<?xml version="1.0" encoding="UTF-8"?>
<!-- Generator: visioncortex VTracer 0.6.12 -->
<svg version="1.1" xmlns="http://www.w3.org/2000/svg" width="134" height="109">
<path d="M0,0 L5,1 L7,4 L6,9 L1,8 L-1,6 L-1,1 Z M2,4 Z M3,5 Z " fill="#000000" transform="translate(16,9)"/>
<path d="M0,0 L6,1 L5,6 L2,8 L-3,7 L-4,4 Z M1,3 Z M0,4 Z " fill="#000000" transform="translate(33,16)"/>
<path d="M0,0 L5,2 L7,4 L7,11 L4,19 L1,22 L-5,22 L-6,17 L-2,12 L0,10 L-2,6 L-1,1 Z M1,4 L3,8 L4,5 Z M0,14 L-3,19 L1,18 L2,14 Z " fill="#000000" transform="translate(58,21)"/>
<path d="M0,0 L5,0 L6,2 L6,8 L3,13 L-3,14 L-5,11 L-4,4 Z M1,3 L-1,5 L-1,11 L3,7 L3,3 Z " fill="#000000" transform="translate(92,21)"/>
<path d="M0,0 L6,1 L8,4 L8,7 L1,8 L-3,4 L-2,1 Z M1,3 L2,5 L4,4 Z " fill="#000000" transform="translate(13,38)"/>
<path d="M0,0 L6,1 L9,4 L9,8 L3,9 L-2,4 Z M2,3 L2,5 L5,4 Z M5,5 Z " fill="#000000" transform="translate(102,52)"/>
<path d="M0,0 L5,1 L6,8 L3,9 L2,12 L-2,14 L-7,13 L-8,9 L-4,6 L-1,5 Z M-3,9 Z " fill="#000000" transform="translate(60,53)"/>
<path d="M0,0 L5,1 L10,3 L12,7 L12,13 L9,16 L5,15 L-1,12 L-2,3 Z M2,3 L1,8 L3,10 L3,3 Z M6,6 L6,12 L8,13 L9,8 L8,6 Z " fill="#000000" transform="translate(26,57)"/>
<path d="M0,0 L4,2 L4,8 L-1,13 L-5,12 L-6,11 L-5,4 L-2,1 Z M-1,4 L-3,6 L-2,10 L1,7 L1,4 Z " fill="#000000" transform="translate(90,76)"/>
<path d="M0,0 L6,0 L11,5 L11,12 L5,13 L-1,8 L-2,2 Z M2,3 L3,8 L8,10 L7,5 L5,3 Z " fill="#000000" transform="translate(24,87)"/>
</svg>
