<?xml version="1.0" encoding="UTF-8"?>
<!-- Generator: visioncortex VTracer 0.6.12 -->
<svg version="1.1" xmlns="http://www.w3.org/2000/svg" width="176" height="98">
<path d="M0,0 L5,1 L24,10 L30,14 L34,16 L33,21 L16,31 L9,37 L6,42 L3,42 L2,39 L6,33 L14,26 L19,23 L-92,24 L-92,19 L-90,18 L-4,18 L21,16 L17,13 L0,5 L-1,1 Z M21,21 Z " fill="#000000" transform="translate(127,18)"/>
<path d="M0,0 L1,0 L1,7 L-2,19 L-4,19 L-2,3 Z " fill="#000000" transform="translate(97,50)"/>
<path d="M0,0 L1,0 L1,9 L-2,19 L-4,19 L-2,8 L-1,1 Z " fill="#000000" transform="translate(107,50)"/>
<path d="M0,0 L2,1 L0,14 L-1,19 L-4,18 L-1,2 Z " fill="#000000" transform="translate(117,50)"/>
<path d="M0,0 L6,0 L8,4 L0,3 L-5,5 L-7,9 L1,8 L1,10 L-6,12 L-3,18 L-3,22 L-6,21 L-8,15 L-9,11 L-15,13 L-14,10 L-11,9 L-7,3 Z " fill="#000000" transform="translate(69,58)"/>
<path d="M0,0 L6,1 L10,4 L10,14 L8,13 L7,5 L4,3 L-1,4 L-2,5 L-3,13 L-5,14 L-6,3 L-2,1 Z " fill="#000000" transform="translate(42,64)"/>
<path d="M0,0 L4,1 L8,5 L8,11 L5,14 L-3,14 L-7,10 L-6,4 L-3,1 Z M0,2 L-5,6 L-4,11 L-3,12 L5,12 L6,11 L5,4 Z " fill="#000000" transform="translate(79,64)"/>
<path d="M0,0 L3,1 L4,4 L4,11 L2,11 Z " fill="#000000" transform="translate(28,66)"/>
</svg>
