<?xml version="1.0" encoding="UTF-8"?>
<!-- Generator: visioncortex VTracer 0.6.12 -->
<svg version="1.1" xmlns="http://www.w3.org/2000/svg" width="201" height="102">
<path d="M0,0 L5,0 L6,1 L5,9 L-2,30 L-5,39 L-6,40 L-12,40 L-14,35 L-11,22 L-3,3 Z " fill="#000000" transform="translate(190,15)"/>
<path d="M0,0 L7,1 L9,5 L6,8 L-15,14 L-21,18 L-24,27 L-24,29 L-4,22 L0,23 L0,28 L-6,32 L-27,41 L-29,47 L-30,51 L-17,46 L-9,42 L-3,43 L-4,48 L-10,53 L-23,59 L-27,60 L-38,60 L-40,58 L-40,49 L-31,13 L-27,4 L-26,3 L-16,4 Z " fill="#000000" transform="translate(47,23)"/>
<path d="M0,0 L7,1 L13,9 L13,21 L8,31 L3,37 L-3,41 L-6,42 L-15,42 L-21,38 L-23,33 L-23,25 L-19,15 L-10,5 Z M0,11 L-7,14 L-13,23 L-14,25 L-14,31 L-12,33 L-5,32 L0,27 L4,19 L4,13 L3,11 Z " fill="#000000" transform="translate(155,34)"/>
<path d="M0,0 L5,1 L6,6 L-3,17 L-5,19 L-4,24 L1,32 L1,39 L0,41 L-6,41 L-13,28 L-21,34 L-29,41 L-34,40 L-35,35 L-30,30 L-22,23 L-19,20 L-17,20 L-20,12 L-23,8 L-22,4 L-20,2 L-14,3 L-9,10 Z " fill="#000000" transform="translate(81,38)"/>
<path d="M0,0 L6,0 L8,1 L8,3 L20,0 L27,1 L32,5 L34,10 L33,20 L27,28 L16,35 L12,37 L4,38 L1,54 L-2,56 L-7,55 L-8,54 L-7,43 L-3,17 L-2,3 Z M18,9 L9,14 L7,17 L5,28 L12,27 L21,21 L24,16 L24,10 L23,9 Z " fill="#000000" transform="translate(95,39)"/>
<path d="M0,0 L6,1 L8,3 L8,9 L3,14 L-2,14 L-6,9 L-4,3 Z " fill="#000000" transform="translate(178,59)"/>
</svg>
