<?xml version="1.0" encoding="UTF-8"?>
<!-- Generator: visioncortex VTracer 0.6.12 -->
<svg version="1.1" xmlns="http://www.w3.org/2000/svg" width="97" height="139">
<path d="M0,0 L5,0 L8,3 L8,9 L7,12 L43,84 L42,86 L26,90 L19,91 L-15,91 L-31,88 L-35,88 L-38,91 L-45,82 L-45,79 L-33,79 L-32,83 L-32,85 L-19,88 L-9,89 L13,89 L34,86 L40,85 L4,13 L-2,11 L-4,8 L-3,2 Z " fill="#000000" transform="translate(51,10)"/>
<path d="M0,0 L4,2 L5,16 L4,38 L2,39 L0,29 L-1,1 Z " fill="#000000" transform="translate(47,37)"/>
<path d="M0,0 L3,0 L6,6 L2,8 L-1,5 Z " fill="#000000" transform="translate(48,78)"/>
<path d="M0,0 L1,3 L-3,5 L-1,8 L-5,7 L-4,3 L0,2 Z " fill="#000000" transform="translate(51,107)"/>
<path d="M0,0 L4,1 L2,2 L6,5 L3,6 L3,4 L-1,3 Z " fill="#000000" transform="translate(28,119)"/>
<path d="M0,0 L2,1 L1,12 L0,8 L-4,8 L-3,6 L-1,6 L0,2 L-2,1 Z " fill="#000000" transform="translate(38,118)"/>
</svg>
