<?xml version="1.0" encoding="UTF-8"?>
<!-- Generator: visioncortex VTracer 0.6.12 -->
<svg version="1.1" xmlns="http://www.w3.org/2000/svg" width="914" height="1083">
<path d="M0,0 L3,0 L3,277 L309,277 L309,0 L312,0 L312,279 L0,279 Z " fill="#000000" transform="translate(302,0)"/>
<path d="M0,0 L18,0 L22,3 L22,10 L18,14 L0,14 Z M6,3 L6,10 L14,10 L16,9 L16,4 L15,3 Z " fill="#000000" transform="translate(308,0)"/>
<path d="M0,0 L6,0 L6,13 L2,15 L0,13 Z " fill="#000000" transform="translate(342,0)"/>
<path d="M0,0 L6,0 L7,9 L12,9 L13,8 L14,0 L20,0 L20,16 L17,21 L15,22 L5,22 L1,19 L1,15 L5,16 L6,17 L13,17 L13,13 L12,14 L4,14 L1,11 L0,8 Z " fill="#000000" transform="translate(368,0)"/>
<path d="M0,0 L9,0 L10,4 L9,5 L0,5 L-1,1 Z " fill="#000000" transform="translate(356,2)"/>
<path d="M0,0 L4,1 L30,13 L42,20 L49,23 L50,28 L46,33 L34,39 L20,48 L15,52 L8,62 L4,61 L4,55 L15,43 L25,36 L30,33 L13,34 L-126,35 L-133,36 L-134,35 L-134,29 L-130,27 L0,27 L25,25 L32,24 L33,23 L10,12 L-1,7 L-1,1 Z " fill="#000000" transform="translate(497,101)"/>
<path d="M0,0 L3,1 L1,17 L-1,25 L-1,27 L-5,26 L-2,13 L-1,2 Z " fill="#000000" transform="translate(452,149)"/>
<path d="M0,0 L3,1 L1,18 L-1,25 L-1,27 L-5,26 L-2,13 L-1,2 Z " fill="#000000" transform="translate(467,149)"/>
<path d="M0,0 L3,0 L2,14 L-1,25 L-1,27 L-5,26 L-2,14 L-1,3 Z " fill="#000000" transform="translate(482,149)"/>
<path d="M0,0 L7,0 L10,2 L9,6 L7,4 L-1,4 L-9,7 L-12,13 L1,12 L0,15 L-10,17 L-5,28 L-6,32 L-9,32 L-11,23 L-14,17 L-23,19 L-21,15 L-15,14 L-14,8 L-9,3 Z " fill="#000000" transform="translate(413,160)"/>
<path d="M0,0 L6,2 L11,8 L12,10 L12,16 L7,21 L0,22 L-7,19 L-10,15 L-9,8 L-5,3 L0,2 Z M1,3 L-5,7 L-7,9 L-7,16 L-2,19 L5,19 L9,16 L9,10 L4,4 Z " fill="#000000" transform="translate(427,168)"/>
<path d="M0,0 L6,0 L12,4 L15,8 L15,19 L12,19 L11,8 L6,4 L0,4 L-3,6 L-4,13 L-5,20 L-8,19 L-9,4 L-6,5 L-2,1 Z " fill="#000000" transform="translate(373,169)"/>
<path d="M0,0 L3,0 L5,6 L5,16 L3,16 L0,3 Z " fill="#000000" transform="translate(353,172)"/>
<path d="M0,0 L4,1 L3,5 L-2,4 Z " fill="#000000" transform="translate(445,184)"/>
<path d="M0,0 L4,1 L3,5 L-2,4 Z " fill="#000000" transform="translate(460,184)"/>
<path d="M0,0 L4,1 L3,5 L-2,4 Z M1,2 Z " fill="#000000" transform="translate(475,184)"/>
<path d="M0,0 L3,0 L1,4 L-3,6 L-1,1 Z " fill="#000000" transform="translate(341,411)"/>
<path d="M0,0 L3,0 L3,30 L-1,29 L-5,31 L-11,30 L-16,24 L-16,15 L-13,10 L-10,8 L-4,8 L-1,10 Z M-8,10 L-13,15 L-13,23 L-11,27 L-4,28 L-1,25 L0,23 L0,16 L-3,11 Z " fill="#000000" transform="translate(369,411)"/>
<path d="M0,0 L2,0 L2,6 L6,7 L6,9 L2,9 L2,26 L6,26 L6,28 L0,28 L-1,27 L-1,9 L-4,9 L-4,6 L-1,6 L-1,1 Z " fill="#000000" transform="translate(560,413)"/>
<path d="M0,0 L7,0 L12,4 L12,7 L9,7 L5,3 L0,4 L-2,7 L-2,15 L-1,19 L6,19 L10,15 L13,16 L10,21 L5,23 L-1,22 L-6,16 L-6,7 L-2,1 Z " fill="#000000" transform="translate(315,419)"/>
<path d="M0,0 L7,0 L12,5 L13,7 L13,15 L10,20 L5,23 L-2,22 L-6,17 L-7,9 L-4,2 Z M2,2 L-2,4 L-4,9 L-3,17 L0,20 L6,20 L9,17 L10,15 L10,8 L7,3 Z " fill="#000000" transform="translate(337,419)"/>
<path d="M0,0 L2,0 L3,2 L6,0 L13,0 L18,5 L19,12 L17,19 L14,22 L8,23 L4,21 L3,30 L0,30 Z M8,2 L3,6 L2,12 L4,18 L6,20 L12,20 L15,17 L16,10 L13,3 Z " fill="#000000" transform="translate(505,419)"/>
<path d="M0,0 L3,1 L3,22 L0,22 Z " fill="#000000" transform="translate(528,419)"/>
<path d="M0,0 L7,0 L12,4 L12,7 L9,7 L5,3 L0,4 L-2,7 L-2,15 L-1,19 L6,19 L10,15 L13,16 L10,21 L5,23 L-1,22 L-6,16 L-6,7 L-2,1 Z " fill="#000000" transform="translate(541,419)"/>
<path d="M0,0 L7,0 L12,5 L13,7 L13,15 L10,20 L5,23 L-2,22 L-6,17 L-7,9 L-4,2 Z M2,2 L-2,4 L-4,9 L-3,17 L0,20 L6,20 L9,17 L10,15 L10,8 L7,3 Z " fill="#000000" transform="translate(575,419)"/>
<path d="M0,0 L6,0 L9,2 L10,0 L13,1 L13,23 L10,29 L6,31 L0,31 L-5,26 L-2,25 L0,27 L7,27 L9,23 L9,20 L7,22 L-1,22 L-6,16 L-6,7 L-3,2 Z M2,2 L-3,7 L-3,15 L1,20 L6,20 L9,17 L10,8 L7,3 Z " fill="#000000" transform="translate(597,419)"/>
<path d="M0,0 L3,1 L10,0 L10,3 L4,5 L3,7 L2,22 L-1,22 L-1,1 Z " fill="#000000" transform="translate(616,419)"/>
<path d="M0,0 L7,0 L11,3 L12,22 L9,22 L8,20 L6,22 L0,23 L-5,20 L-6,15 L-1,10 L8,9 L7,4 L2,3 L-1,3 L-2,6 L-5,6 L-3,2 Z M6,11 L-1,13 L-3,15 L-2,19 L-1,20 L6,19 L8,17 L8,11 Z " fill="#000000" transform="translate(634,419)"/>
<path d="M0,0 L2,0 L3,2 L5,0 L11,0 L15,2 L18,0 L24,0 L27,3 L27,22 L25,22 L24,6 L21,3 L16,5 L15,22 L12,22 L11,3 L5,4 L3,7 L2,22 L-1,22 L-1,1 Z " fill="#000000" transform="translate(652,419)"/>
<path d="M0,0 L8,0 L11,2 L12,5 L13,22 L8,21 L3,23 L-2,22 L-5,19 L-4,12 L5,9 L9,9 L8,3 L2,3 L-1,6 L-4,6 L-3,2 Z M6,11 L-2,14 L-2,19 L-1,20 L5,20 L9,16 L9,11 Z " fill="#000000" transform="translate(689,419)"/>
<path d="M0,0 L7,0 L11,3 L10,6 L4,3 L0,4 L-1,8 L10,11 L12,14 L11,20 L5,23 L-1,22 L-4,19 L-4,16 L-1,17 L-1,19 L7,19 L8,15 L5,13 L-2,11 L-4,9 L-3,2 Z " fill="#000000" transform="translate(897,419)"/>
<path d="M0,0 L1,0 L1,21 L0,21 Z " fill="#000000" transform="translate(913,420)"/>
<path d="M0,0 L4,0 L4,4 L0,4 Z " fill="#000000" transform="translate(378,437)"/>
<path d="M0,0 L15,0 L20,4 L21,9 L19,15 L22,18 L22,25 L18,29 L16,30 L-1,30 L-1,1 Z M4,4 L4,12 L15,12 L16,11 L16,6 L13,4 Z M4,17 L4,26 L15,26 L17,24 L17,18 L15,17 Z " fill="#000000" transform="translate(311,478)"/>
<path d="M0,0 L3,0 L3,30 L-1,30 L-2,9 L-5,11 L-8,11 L-8,7 L-1,2 Z " fill="#000000" transform="translate(347,478)"/>
<path d="M0,0 L6,1 L9,2 L9,0 L12,0 L11,4 L10,5 L2,4 L-2,5 L-1,1 Z " fill="#000000" transform="translate(609,478)"/>
<path d="M0,0 L2,0 L2,7 L6,7 L5,11 L2,11 L2,26 L6,26 L6,29 L-1,29 L-2,28 L-2,11 L-5,11 L-5,7 L-2,7 L-2,2 Z " fill="#000000" transform="translate(529,479)"/>
<path d="M0,0 L9,0 L12,3 L13,5 L14,22 L9,22 L7,22 L0,23 L-4,21 L-5,19 L-5,13 L-1,10 L8,7 L8,4 L0,4 L-1,7 L-5,7 L-3,2 Z M5,12 L0,14 L-1,18 L0,19 L6,19 L8,17 L9,12 Z " fill="#000000" transform="translate(378,486)"/>
<path d="M0,0 L9,0 L13,3 L14,22 L9,21 L5,23 L-2,22 L-5,18 L-4,12 L2,9 L8,8 L7,4 L1,5 L0,7 L-4,7 L-3,3 Z M6,12 L0,14 L0,19 L6,19 L9,16 L9,12 Z " fill="#000000" transform="translate(508,486)"/>
<path d="M0,0 L8,0 L13,5 L14,12 L-2,12 L1,18 L7,18 L9,15 L13,15 L12,20 L7,23 L1,23 L-4,20 L-6,16 L-6,6 L-2,1 Z M2,3 L-1,6 L-2,9 L10,9 L8,4 Z " fill="#000000" transform="translate(543,486)"/>
<path d="M0,0 L5,1 L7,0 L14,0 L18,4 L18,22 L14,22 L13,4 L6,5 L5,8 L4,22 L0,22 Z " fill="#000000" transform="translate(561,486)"/>
<path d="M0,0 L8,0 L13,4 L13,7 L8,6 L8,4 L2,4 L-1,7 L-1,15 L1,18 L7,18 L9,14 L13,14 L12,19 L9,22 L6,23 L8,25 L7,30 L5,31 L-1,31 L-1,28 L4,28 L4,26 L1,25 L1,23 L-4,20 L-6,16 L-6,6 L-2,1 Z " fill="#000000" transform="translate(589,486)"/>
<path d="M0,0 L9,0 L12,3 L13,5 L14,22 L9,22 L7,22 L0,23 L-4,21 L-5,19 L-5,13 L-1,10 L8,7 L8,4 L0,4 L-1,7 L-5,7 L-3,2 Z M5,12 L0,14 L-1,18 L0,19 L6,19 L8,17 L9,12 Z " fill="#000000" transform="translate(610,486)"/>
<path d="M0,0 L9,0 L14,5 L15,8 L15,15 L12,20 L7,23 L-1,22 L-5,17 L-6,15 L-6,8 L-3,2 Z M3,3 L-1,6 L-2,12 L0,18 L7,19 L10,16 L11,10 L9,5 L6,3 Z " fill="#000000" transform="translate(632,486)"/>
<path d="M0,0 L7,0 L11,4 L11,11 L6,15 L-1,14 L-4,10 L-4,4 Z " fill="#000000" transform="translate(897,489)"/>
<path d="M0,0 L11,0 L11,4 L0,4 Z " fill="#000000" transform="translate(359,495)"/>
<path d="M0,0 L15,0 L20,4 L21,9 L19,15 L22,18 L22,25 L18,29 L16,30 L-1,30 L-1,1 Z M4,4 L4,12 L15,12 L16,11 L16,6 L13,4 Z M4,17 L4,26 L15,26 L17,24 L17,18 L15,17 Z " fill="#000000" transform="translate(311,759)"/>
<path d="M0,0 L3,0 L3,30 L-1,30 L-2,9 L-5,11 L-8,11 L-8,7 L-1,2 Z " fill="#000000" transform="translate(347,759)"/>
<path d="M0,0 L4,0 L5,9 L7,8 L14,8 L19,12 L20,15 L20,23 L17,28 L13,31 L6,30 L4,30 L0,30 Z M8,11 L4,16 L4,23 L7,27 L13,27 L16,22 L15,14 L12,11 Z " fill="#000000" transform="translate(374,759)"/>
<path d="M0,0 L4,0 L3,5 L0,5 Z " fill="#000000" transform="translate(615,759)"/>
<path d="M0,0 L6,1 L9,2 L9,0 L12,0 L11,4 L10,5 L2,4 L-2,5 L-1,1 Z " fill="#000000" transform="translate(649,759)"/>
<path d="M0,0 L9,0 L13,4 L15,12 L-1,12 L0,18 L8,18 L10,15 L14,15 L13,19 L10,22 L2,23 L-3,20 L-6,15 L-6,8 L-3,2 Z M3,3 L-1,6 L-1,9 L10,9 L9,5 L6,3 Z " fill="#000000" transform="translate(509,767)"/>
<path d="M0,0 L5,0 L9,6 L13,1 L18,0 L16,5 L13,9 L14,14 L19,21 L19,22 L14,22 L10,16 L8,15 L6,20 L4,22 L-1,22 L6,11 L0,2 Z " fill="#000000" transform="translate(526,767)"/>
<path d="M0,0 L5,1 L7,0 L14,0 L19,5 L20,7 L20,16 L17,21 L13,23 L6,22 L5,21 L4,30 L0,30 Z M8,3 L5,6 L4,8 L5,17 L7,19 L13,19 L16,14 L15,6 L11,3 Z " fill="#000000" transform="translate(548,767)"/>
<path d="M0,0 L9,0 L14,5 L15,8 L15,15 L12,20 L7,23 L-1,22 L-5,17 L-6,15 L-6,8 L-3,2 Z M3,3 L-1,6 L-2,12 L0,18 L7,19 L10,16 L11,10 L9,5 L6,3 Z " fill="#000000" transform="translate(576,767)"/>
<path d="M0,0 L8,0 L12,5 L8,7 L7,4 L0,4 L0,8 L10,10 L13,15 L11,20 L7,23 L1,23 L-4,20 L-5,15 L0,16 L1,18 L7,18 L8,14 L-1,12 L-4,10 L-4,3 Z " fill="#000000" transform="translate(598,767)"/>
<path d="M0,0 L4,0 L4,22 L0,22 Z " fill="#000000" transform="translate(615,767)"/>
<path d="M0,0 L8,0 L13,4 L13,7 L8,6 L8,4 L2,4 L-1,7 L-1,15 L1,18 L7,18 L9,14 L13,14 L12,19 L9,22 L6,23 L8,25 L7,30 L5,31 L-1,31 L-1,28 L4,28 L4,26 L1,25 L1,23 L-4,20 L-6,16 L-6,6 L-2,1 Z " fill="#000000" transform="translate(629,767)"/>
<path d="M0,0 L9,0 L12,3 L13,5 L14,22 L9,22 L7,22 L0,23 L-4,21 L-5,19 L-5,13 L-1,10 L8,7 L8,4 L0,4 L-1,7 L-5,7 L-3,2 Z M5,12 L0,14 L-1,18 L0,19 L6,19 L8,17 L9,12 Z " fill="#000000" transform="translate(650,767)"/>
<path d="M0,0 L9,0 L14,5 L15,8 L15,15 L12,20 L7,23 L-1,22 L-5,17 L-6,15 L-6,8 L-3,2 Z M3,3 L-1,6 L-2,12 L0,18 L7,19 L10,16 L11,10 L9,5 L6,3 Z " fill="#000000" transform="translate(672,767)"/>
<path d="M0,0 L7,0 L11,4 L11,11 L6,15 L-1,14 L-4,10 L-4,4 Z " fill="#000000" transform="translate(897,771)"/>
<path d="M0,0 L11,0 L11,4 L0,4 Z " fill="#000000" transform="translate(359,776)"/>
<path d="M0,0 L7,0 L11,4 L11,11 L6,15 L-1,14 L-4,10 L-4,4 Z " fill="#000000" transform="translate(897,865)"/>
<path d="M0,0 L15,0 L20,4 L21,9 L19,15 L22,18 L22,25 L18,29 L16,30 L-1,30 L-1,1 Z M4,4 L4,12 L15,12 L16,11 L16,6 L13,4 Z M4,17 L4,26 L15,26 L17,24 L17,18 L15,17 Z " fill="#000000" transform="translate(311,961)"/>
<path d="M0,0 L3,0 L3,30 L-1,30 L-2,9 L-5,11 L-8,11 L-8,7 L-1,2 Z " fill="#000000" transform="translate(347,961)"/>
<path d="M0,0 L6,0 L9,4 L9,6 L4,5 L4,3 L2,3 L1,6 L-3,6 L-1,1 Z " fill="#000000" transform="translate(534,961)"/>
<path d="M0,0 L4,0 L4,30 L-1,29 L-4,31 L-11,30 L-15,26 L-16,24 L-16,14 L-11,8 L-3,8 L-1,9 L-1,1 Z M-8,11 L-12,15 L-12,23 L-9,27 L-3,27 L0,22 L-1,14 L-5,11 Z " fill="#000000" transform="translate(589,961)"/>
<path d="M0,0 L4,0 L4,30 L0,30 Z " fill="#000000" transform="translate(621,961)"/>
<path d="M0,0 L4,0 L3,5 L0,5 Z " fill="#000000" transform="translate(727,961)"/>
<path d="M0,0 L3,1 L3,22 L0,22 Z " fill="#000000" transform="translate(894,968)"/>
<path d="M0,0 L3,0 L4,2 L6,0 L12,0 L12,3 L5,5 L4,7 L3,22 L0,22 Z " fill="#000000" transform="translate(902,968)"/>
<path d="M0,0 L8,0 L13,4 L13,7 L8,6 L8,4 L0,5 L-1,7 L-1,15 L1,18 L7,18 L9,14 L13,14 L12,19 L9,22 L1,23 L-4,20 L-6,16 L-6,6 L-2,1 Z " fill="#000000" transform="translate(379,969)"/>
<path d="M0,0 L5,1 L6,0 L14,0 L19,6 L20,13 L17,20 L12,23 L5,22 L4,30 L0,30 Z M8,3 L4,6 L4,16 L7,19 L12,19 L15,16 L15,7 L11,3 Z " fill="#000000" transform="translate(505,969)"/>
<path d="M0,0 L8,0 L13,5 L14,12 L-2,12 L1,18 L7,18 L9,15 L13,15 L12,20 L7,23 L1,23 L-4,20 L-6,16 L-6,6 L-2,1 Z M2,3 L-1,6 L-2,9 L10,9 L8,4 Z " fill="#000000" transform="translate(533,969)"/>
<path d="M0,0 L5,1 L7,0 L14,0 L18,4 L18,22 L14,22 L13,4 L6,5 L5,8 L4,22 L0,22 Z " fill="#000000" transform="translate(551,969)"/>
<path d="M0,0 L4,0 L5,17 L6,18 L11,18 L13,15 L14,0 L18,0 L18,22 L13,21 L10,23 L3,22 L0,18 Z " fill="#000000" transform="translate(598,969)"/>
<path d="M0,0 L9,0 L14,5 L15,8 L15,15 L12,20 L7,23 L-1,22 L-5,17 L-6,15 L-6,8 L-3,2 Z M3,3 L-1,6 L-2,12 L0,18 L7,19 L10,16 L11,10 L9,5 L6,3 Z " fill="#000000" transform="translate(635,969)"/>
<path d="M0,0 L5,1 L7,0 L14,0 L19,5 L20,7 L20,16 L17,21 L13,23 L6,22 L5,21 L4,30 L0,30 Z M8,3 L5,6 L4,8 L5,17 L7,19 L13,19 L16,14 L15,6 L11,3 Z " fill="#000000" transform="translate(665,969)"/>
<path d="M0,0 L9,0 L13,4 L15,12 L-1,12 L0,18 L8,18 L10,15 L14,15 L13,19 L10,22 L2,23 L-3,20 L-6,15 L-6,8 L-3,2 Z M3,3 L-1,6 L-1,9 L10,9 L9,5 L6,3 Z " fill="#000000" transform="translate(693,969)"/>
<path d="M0,0 L5,1 L6,0 L12,0 L12,4 L5,6 L4,22 L0,22 Z " fill="#000000" transform="translate(712,969)"/>
<path d="M0,0 L4,0 L4,22 L0,22 Z " fill="#000000" transform="translate(727,969)"/>
<path d="M0,0 L8,0 L11,0 L14,0 L14,26 L10,30 L8,31 L1,31 L-4,27 L-4,24 L0,24 L1,26 L8,26 L8,22 L1,22 L-4,18 L-5,16 L-5,6 Z M3,3 L-1,7 L-1,15 L3,19 L8,18 L10,16 L10,6 L6,3 Z " fill="#000000" transform="translate(740,969)"/>
<path d="M0,0 L9,0 L14,5 L15,8 L15,15 L12,20 L7,23 L-1,22 L-5,17 L-6,15 L-6,8 L-3,2 Z M3,3 L-1,6 L-2,12 L0,18 L7,19 L10,16 L11,10 L9,5 L6,3 Z " fill="#000000" transform="translate(764,969)"/>
<path d="M0,0 L8,0 L12,5 L8,7 L7,4 L0,4 L0,8 L10,10 L13,15 L11,20 L7,23 L1,23 L-4,20 L-5,15 L0,16 L1,18 L7,18 L8,14 L-1,12 L-4,10 L-4,3 Z " fill="#000000" transform="translate(786,969)"/>
<path d="M0,0 L9,0 L14,5 L15,8 L15,15 L12,20 L7,23 L-1,22 L-5,17 L-6,15 L-6,8 L-3,2 Z M3,3 L-1,6 L-2,12 L0,18 L7,19 L10,16 L11,10 L9,5 L6,3 Z " fill="#000000" transform="translate(807,969)"/>
<path d="M0,0 L11,0 L11,4 L0,4 Z " fill="#000000" transform="translate(359,978)"/>
<path d="M0,0 L4,1 L6,0 L13,0 L18,5 L19,14 L16,20 L12,23 L5,22 L4,21 L3,30 L0,30 Z M6,3 L3,7 L3,16 L7,20 L12,20 L15,16 L15,6 L12,3 Z " fill="#000000" transform="translate(894,1009)"/>
<path d="M0,0 L8,0 L13,4 L14,7 L14,16 L11,21 L7,23 L-1,22 L-5,17 L-6,8 L-3,2 Z M1,3 L-2,6 L-2,17 L2,20 L7,20 L10,17 L11,8 L8,3 Z " fill="#000000" transform="translate(898,1049)"/>
</svg>
