<?xml version="1.0" encoding="UTF-8"?>
<!-- Generator: visioncortex VTracer 0.6.12 -->
<svg version="1.1" xmlns="http://www.w3.org/2000/svg" width="128" height="143">
<path d="M0,0 L8,1 L18,9 L25,16 L36,31 L47,50 L51,60 L53,78 L46,110 L42,118 L37,123 L34,124 L11,124 L0,125 L-20,125 L-41,122 L-45,118 L-46,114 L-47,101 L-49,79 L-49,69 L-46,60 L-37,47 L-29,31 L-21,15 L-14,7 L-4,1 Z M-1,3 L-13,9 L-20,18 L-33,46 L-44,62 L-46,67 L-46,82 L-44,103 L-43,116 L-41,119 L-30,121 L-19,122 L-15,106 L-13,105 L-16,118 L-16,123 L-12,123 L-8,108 L-5,98 L-6,107 L-9,122 L-4,122 L0,106 L0,103 L3,103 L-1,118 L-1,122 L4,121 L9,101 L18,64 L20,63 L6,120 L6,121 L11,121 L20,87 L21,86 L20,93 L18,97 L16,109 L14,117 L14,121 L19,120 L22,106 L24,106 L21,121 L26,121 L30,106 L31,105 L29,121 L33,121 L38,103 L48,62 L45,52 L36,36 L26,22 L17,11 L6,3 Z M48,69 L36,118 L37,120 L41,115 L44,107 L50,79 L49,69 Z " fill="#000000" transform="translate(62,10)"/>
<path d="M0,0 L5,0 L7,2 L7,14 L2,40 L0,43 L-3,42 L-4,40 L-4,24 L-2,1 Z " fill="#000000" transform="translate(65,54)"/>
<path d="M0,0 L5,0 L7,2 L7,14 L2,36 L0,39 L-3,38 L-4,36 L-4,22 L-2,4 L-2,1 Z " fill="#000000" transform="translate(43,58)"/>
<path d="M0,0 L6,0 L8,2 L6,18 L2,33 L-2,34 L-4,30 L-4,22 L-2,11 L-2,1 Z " fill="#000000" transform="translate(88,63)"/>
<path d="M0,0 L3,0 L1,11 L-6,39 L-8,36 L-7,28 Z " fill="#000000" transform="translate(102,71)"/>
<path d="M0,0 L2,0 L1,8 L-2,20 L-4,19 Z " fill="#000000" transform="translate(71,78)"/>
<path d="M0,0 L3,0 L-1,19 L-3,23 L-4,15 Z " fill="#000000" transform="translate(53,88)"/>
<path d="M0,0 L5,1 L8,5 L7,10 L5,12 L-2,11 L-3,9 L-3,2 Z " fill="#000000" transform="translate(62,99)"/>
<path d="M0,0 L5,0 L9,5 L8,10 L6,12 L1,12 L-2,9 L-2,2 Z " fill="#000000" transform="translate(39,103)"/>
<path d="M0,0 L5,0 L8,4 L8,10 L6,12 L0,12 L-3,8 L-2,1 Z " fill="#000000" transform="translate(85,103)"/>
</svg>
