<?xml version="1.0" encoding="UTF-8"?>
<!-- Generator: visioncortex VTracer 0.6.12 -->
<svg version="1.1" xmlns="http://www.w3.org/2000/svg" width="164" height="160">
<path d="M0,0 L10,0 L22,3 L32,9 L40,18 L45,30 L45,36 L54,39 L60,43 L67,51 L71,62 L71,72 L67,83 L61,91 L54,96 L45,99 L36,100 L7,100 L7,136 L17,136 L16,139 L-6,139 L-6,136 L4,136 L3,107 L-2,101 L-29,99 L-45,95 L-54,87 L-59,78 L-60,74 L-60,60 L-56,51 L-51,44 L-42,38 L-36,36 L-31,21 L-25,13 L-17,6 L-9,2 Z M-2,3 L-14,7 L-23,14 L-29,23 L-32,32 L-34,38 L-44,42 L-52,49 L-57,59 L-58,70 L-56,78 L-51,86 L-46,91 L-40,94 L-24,97 L-5,98 L-11,91 L-24,77 L-25,75 L-21,77 L-16,82 L-9,75 L-7,74 L-10,79 L-14,83 L-12,87 L-2,98 L4,98 L4,65 L-10,51 L-9,49 L3,61 L4,61 L4,39 L6,40 L7,81 L14,75 L33,56 L33,58 L23,68 L23,69 L42,69 L42,72 L19,72 L7,84 L7,98 L26,98 L46,96 L55,92 L63,85 L67,77 L68,74 L68,60 L62,48 L55,42 L45,38 L43,38 L42,29 L36,17 L28,9 L17,4 L13,3 Z M1,100 L4,103 L4,100 Z " fill="#000000" transform="translate(77,9)"/>
</svg>
