<?xml version="1.0" encoding="UTF-8"?>
<!-- Generator: visioncortex VTracer 0.6.12 -->
<svg version="1.1" xmlns="http://www.w3.org/2000/svg" width="90" height="111">
<path d="M0,0 L5,1 L16,9 L27,23 L36,38 L41,50 L42,56 L42,67 L36,93 L31,100 L26,102 L6,102 L-5,103 L-16,103 L-31,101 L-37,98 L-38,97 L-41,67 L-41,55 L-36,45 L-29,35 L-19,13 L-13,6 L-4,1 Z M-1,3 L-10,7 L-17,15 L-27,37 L-36,50 L-38,54 L-38,70 L-36,87 L-36,95 L-32,98 L-16,99 L-9,69 L-9,64 L-6,64 L-14,97 L-14,100 L-10,99 L-1,61 L-1,59 L1,59 L-8,98 L-8,100 L-4,99 L6,58 L6,56 L8,56 L-2,99 L2,99 L13,55 L13,52 L16,52 L11,70 L5,94 L5,99 L8,99 L22,45 L24,44 L11,95 L11,98 L14,98 L19,80 L26,52 L26,49 L29,49 L24,67 L17,95 L17,99 L20,99 L32,51 L34,50 L23,95 L23,99 L26,99 L38,51 L35,42 L27,28 L18,16 L10,7 L4,3 Z M38,58 L29,95 L30,97 L34,91 L40,63 L39,58 Z " fill="#000000" transform="translate(44,6)"/>
</svg>
