<?xml version="1.0" encoding="UTF-8"?>
<!-- Generator: visioncortex VTracer 0.6.12 -->
<svg version="1.1" xmlns="http://www.w3.org/2000/svg" width="70" height="185">
<path d="M0,0 L3,0 L12,17 L14,28 L11,36 L4,43 L-4,50 L-7,55 L-7,62 L0,70 L10,79 L13,84 L13,92 L6,100 L-6,111 L-7,113 L-7,121 L0,129 L10,138 L13,143 L14,150 L11,160 L3,175 L0,175 L2,169 L10,153 L10,145 L6,139 L-1,132 L-7,127 L-11,120 L-10,111 L-3,103 L7,95 L10,89 L9,83 L4,77 L-6,69 L-10,64 L-11,55 L-5,46 L7,35 L10,30 L10,22 L2,6 Z " fill="#000000" transform="translate(21,5)"/>
<path d="M0,0 L2,0 L11,16 L13,22 L13,30 L10,36 L1,45 L-5,50 L-8,56 L-7,63 L-1,70 L9,78 L13,86 L12,92 L8,98 L-6,110 L-8,114 L-7,122 L0,130 L8,137 L12,142 L13,145 L13,153 L9,163 L2,175 L0,175 L1,170 L9,154 L9,144 L4,137 L-4,130 L-11,122 L-12,116 L-9,109 L-4,104 L8,93 L9,91 L8,82 L-4,71 L-9,66 L-12,59 L-9,50 L1,40 L6,36 L9,31 L9,21 L1,5 Z " fill="#000000" transform="translate(43,5)"/>
</svg>
