<?xml version="1.0" encoding="UTF-8"?>
<!-- Generator: visioncortex VTracer 0.6.12 -->
<svg version="1.1" xmlns="http://www.w3.org/2000/svg" width="161" height="142">
<path d="M0,0 L2,0 L1,4 L-3,14 L-4,19 L-4,27 L1,17 L6,11 L11,7 L14,7 L13,10 L5,17 L0,27 L6,22 L16,19 L19,21 L10,24 L3,28 L-2,36 L4,36 L4,39 L-15,39 L-14,36 L-8,36 L-12,26 L-21,16 L-31,9 L-33,8 L-33,6 L-28,7 L-17,15 L-10,23 L-9,25 L-5,9 L-1,1 Z " fill="#000000" transform="translate(99,19)"/>
<path d="M0,0 L2,0 L1,4 L-3,14 L-4,19 L-4,27 L1,17 L7,10 L11,7 L14,7 L13,10 L5,17 L0,27 L6,22 L15,19 L19,20 L18,22 L7,25 L2,29 L-2,36 L4,36 L4,39 L-14,39 L-14,36 L-8,36 L-12,26 L-21,16 L-31,9 L-33,8 L-33,6 L-28,7 L-17,15 L-10,23 L-9,25 L-5,9 L-1,1 Z " fill="#000000" transform="translate(50,69)"/>
<path d="M0,0 L2,2 L-2,10 L-4,16 L-5,28 L1,17 L6,11 L11,7 L14,8 L9,13 L3,20 L0,25 L1,26 L6,22 L12,20 L18,20 L17,23 L8,25 L2,29 L-2,36 L4,37 L4,39 L-15,39 L-15,37 L-8,37 L-15,23 L-23,15 L-34,8 L-34,6 L-29,7 L-17,16 L-9,26 L-7,14 L-2,2 Z M-2,28 Z " fill="#000000" transform="translate(122,77)"/>
</svg>
