<?xml version="1.0" encoding="UTF-8"?>
<!-- Generator: visioncortex VTracer 0.6.12 -->
<svg version="1.1" xmlns="http://www.w3.org/2000/svg" width="103" height="150">
<path d="M0,0 L2,0 L1,5 L-10,33 L-15,50 L-18,69 L-18,89 L-2,85 L6,79 L12,69 L15,59 L17,43 L19,43 L19,57 L15,71 L9,80 L1,87 L-9,91 L-17,93 L-13,110 L-9,121 L-1,128 L8,129 L11,132 L10,134 L-2,133 L-9,134 L-19,134 L-22,133 L-21,130 L-6,130 L-12,122 L-16,112 L-16,110 L-23,108 L-32,101 L-39,93 L-44,81 L-45,74 L-45,64 L-41,48 L-38,43 L-36,43 L-37,48 L-41,61 L-41,77 L-37,90 L-30,99 L-19,106 L-18,106 L-21,90 L-21,63 L-16,40 L-7,15 L-1,1 Z " fill="#000000" transform="translate(66,8)"/>
</svg>
