<?xml version="1.0" encoding="UTF-8"?>
<!-- Generator: visioncortex VTracer 0.6.12 -->
<svg version="1.1" xmlns="http://www.w3.org/2000/svg" width="100" height="112">
<path d="M0,0 L3,0 L2,3 L-13,9 L-15,9 L-14,6 Z " fill="#000000" transform="translate(74,1)"/>
<path d="M0,0 L2,0 L0,4 L-4,9 L-7,17 L-9,17 L-7,8 Z " fill="#000000" transform="translate(47,16)"/>
<path d="M0,0 L3,0 L7,13 L7,18 L5,18 L0,2 Z " fill="#000000" transform="translate(39,46)"/>
<path d="M0,0 L3,0 L0,9 L-7,16 L-10,16 L-10,14 L-4,9 Z " fill="#000000" transform="translate(44,76)"/>
<path d="M0,0 L3,0 L2,3 L-12,9 L-15,9 L-15,7 Z " fill="#000000" transform="translate(20,97)"/>
</svg>
