<?xml version="1.0" encoding="UTF-8"?>
<!-- Generator: visioncortex VTracer 0.6.12 -->
<svg version="1.1" xmlns="http://www.w3.org/2000/svg" width="111" height="174">
<path d="M0,0 L5,0 L1,17 L-3,18 L-3,10 L-9,19 L-12,29 L-13,34 L-17,34 L-16,24 L-12,15 L-6,7 L-6,6 L-13,7 L-14,3 L-6,1 Z " fill="#000000" transform="translate(81,6)"/>
<path d="M0,0 L4,2 L15,13 L14,16 L9,14 L7,12 L10,23 L12,31 L12,37 L8,36 L2,15 L1,12 L-2,20 L-6,19 L-3,8 Z " fill="#000000" transform="translate(66,55)"/>
<path d="M0,0 L2,0 L8,15 L8,18 L4,18 L1,11 L-5,22 L-14,31 L-17,33 L-21,32 L-20,29 L-12,23 L-5,13 L-6,12 L-9,15 L-12,14 L-10,10 Z M-4,9 Z " fill="#000000" transform="translate(77,108)"/>
<path d="M0,0 L17,2 L19,3 L17,8 L9,19 L6,18 L8,13 L9,11 L0,14 L-13,20 L-16,20 L-16,16 L7,6 L0,4 Z M10,9 Z " fill="#000000" transform="translate(23,145)"/>
</svg>
