<?xml version="1.0" encoding="UTF-8"?>
<!-- Generator: visioncortex VTracer 0.6.12 -->
<svg version="1.1" xmlns="http://www.w3.org/2000/svg" width="154" height="188">
<path d="M0,0 L2,0 L1,3 L-8,6 L-10,12 L-17,13 L-22,12 L-39,20 L-50,28 L-53,31 L-54,40 L-60,42 L-62,42 L-65,51 L-65,72 L-63,81 L-63,85 L-57,86 L-56,88 L-56,95 L-59,96 L-56,105 L-55,111 L-55,132 L-60,145 L-59,146 L-60,153 L-65,155 L-70,155 L-80,162 L-101,172 L-103,172 L-104,178 L-107,180 L-113,179 L-115,178 L-124,182 L-126,182 L-126,180 L-116,175 L-114,169 L-112,168 L-106,168 L-102,169 L-86,162 L-72,153 L-71,151 L-70,144 L-69,143 L-62,142 L-59,135 L-58,130 L-58,113 L-61,97 L-66,95 L-68,90 L-66,86 L-68,74 L-69,66 L-69,56 L-66,43 L-65,39 L-66,35 L-63,30 L-55,29 L-46,21 L-32,13 L-23,9 L-21,9 L-20,3 L-17,1 L-12,1 L-8,3 Z " fill="#000000" transform="translate(139,1)"/>
</svg>
