<?xml version="1.0" encoding="UTF-8"?>
<!-- Generator: visioncortex VTracer 0.6.12 -->
<svg version="1.1" xmlns="http://www.w3.org/2000/svg" width="116" height="130">
<path d="M0,0 L6,0 L10,4 L11,8 L8,13 L1,16 L-42,102 L-32,104 L-31,106 L-38,105 L-45,103 L-44,97 L-3,15 L-4,4 Z " fill="#000000" transform="translate(52,16)"/>
<path d="M0,0 L15,0 L14,4 L7,14 L2,9 L-1,3 Z " fill="#000000" transform="translate(97,111)"/>
<path d="M0,0 L3,0 L3,2 L-5,4 L-11,4 L-9,2 Z " fill="#000000" transform="translate(94,119)"/>
<path d="M0,0 L14,1 L14,3 L1,2 Z " fill="#000000" transform="translate(26,122)"/>
<path d="M0,0 L10,0 L8,2 L-4,2 Z " fill="#000000" transform="translate(68,123)"/>
<path d="M0,0 L14,0 L14,2 L4,2 Z " fill="#000000" transform="translate(45,124)"/>
</svg>
