<?xml version="1.0" encoding="UTF-8"?>
<!-- Generator: visioncortex VTracer 0.6.12 -->
<svg version="1.1" xmlns="http://www.w3.org/2000/svg" width="191" height="174">
<path d="M0,0 L4,2 L16,15 L23,23 L20,28 L12,35 L10,38 L18,54 L20,61 L20,75 L16,85 L7,95 L-5,101 L-23,101 L-33,98 L-49,89 L-55,90 L-76,106 L-94,120 L-108,131 L-126,145 L-138,154 L-145,153 L-148,148 L-146,142 L-107,103 L-100,95 L-44,39 L-36,32 L-29,25 L-21,18 L-6,4 Z M0,3 L-2,7 L-6,8 L-7,11 L-11,13 L-12,16 L-17,18 L-17,20 L-21,22 L-27,29 L-31,31 L-36,36 L-36,38 L-40,40 L-46,45 L-46,47 L-50,49 L-56,56 L-60,59 L-60,61 L-64,63 L-70,70 L-74,73 L-74,75 L-78,77 L-84,84 L-88,87 L-88,89 L-92,91 L-93,94 L-97,96 L-97,100 L-99,98 L-102,102 L-102,104 L-106,106 L-112,113 L-116,116 L-116,118 L-120,120 L-126,127 L-130,130 L-130,132 L-134,134 L-135,137 L-139,139 L-144,144 L-142,150 L-139,151 L-126,141 L-126,139 L-122,138 L-111,129 L-103,123 L-98,119 L-93,115 L-77,103 L-67,95 L-65,94 L-65,92 L-60,90 L-54,86 L-46,86 L-43,89 L-37,92 L-36,91 L-32,95 L-25,97 L-18,98 L-5,98 L1,95 L6,92 L11,87 L11,84 L13,84 L15,78 L17,75 L17,61 L12,48 L7,39 L6,35 L8,35 L11,30 L15,28 L19,23 L10,13 L5,8 Z M-145,147 Z M-144,148 L-143,150 Z " fill="#000000" transform="translate(157,9)"/>
<path d="M0,0 L4,3 L11,5 L18,15 L21,24 L19,35 L12,44 L7,47 L5,47 L4,50 L4,48 L-3,50 L-11,49 L-11,47 L-16,45 L-21,42 L-24,38 L-26,33 L-26,19 L-24,15 L-24,10 L-21,10 L-15,5 L-13,5 L-12,3 L-7,3 L-6,1 L0,2 Z M-5,5 L-14,8 L-19,13 L-22,17 L-23,20 L-23,31 L-20,37 L-15,42 L-10,45 L0,46 L8,43 L13,38 L16,34 L17,31 L17,20 L14,14 L9,9 L4,6 Z " fill="#000000" transform="translate(144,49)"/>
</svg>
