<?xml version="1.0" encoding="UTF-8"?>
<!-- Generator: visioncortex VTracer 0.6.12 -->
<svg version="1.1" xmlns="http://www.w3.org/2000/svg" width="166" height="171">
<path d="M0,0 L8,0 L16,4 L21,8 L24,13 L25,20 L21,33 L12,54 L6,65 L8,70 L20,88 L29,100 L39,113 L53,131 L57,136 L57,139 L53,137 L40,121 L28,105 L16,89 L6,74 L3,70 L-7,86 L-23,107 L-33,120 L-44,134 L-48,139 L-51,139 L-49,135 L-40,123 L-28,108 L-13,88 L-3,73 L0,68 L-1,62 L-9,47 L-15,31 L-18,18 L-17,11 L-13,6 L-4,1 Z M0,3 L-9,7 L-15,14 L-14,23 L-7,44 L3,63 L6,59 L16,38 L21,25 L22,17 L20,12 L12,5 L7,3 Z " fill="#000000" transform="translate(81,7)"/>
</svg>
