<?xml version="1.0" encoding="UTF-8"?>
<!-- Generator: visioncortex VTracer 0.6.12 -->
<svg version="1.1" xmlns="http://www.w3.org/2000/svg" width="177" height="167">
<path d="M0,0 L2,0 L2,167 L0,167 Z " fill="#000000" transform="translate(0,0)"/>
<path d="M0,0 L1,0 L1,167 L0,167 Z " fill="#000000" transform="translate(176,0)"/>
<path d="M0,0 L10,0 L12,5 L12,8 L12,13 L10,15 L0,15 L-1,14 L-1,1 Z M3,2 L3,6 L8,5 L7,2 Z M3,8 L3,12 L8,12 L9,9 Z " fill="#000000" transform="translate(4,2)"/>
<path d="M0,0 L5,2 L5,8 L6,9 L6,14 L4,16 L-3,16 L-5,14 L-5,11 L-2,11 L-1,13 L2,13 L2,10 L-2,9 L-2,7 L2,6 L2,3 L-4,5 L-3,1 Z " fill="#000000" transform="translate(23,1)"/>
<path d="M0,0 L5,2 L6,12 L-4,12 L-5,7 L-1,5 L2,5 L2,3 L-2,3 L-2,5 L-5,5 L-4,1 Z M0,7 L-2,8 L-2,10 L2,9 L2,7 Z " fill="#000000" transform="translate(43,5)"/>
<path d="M0,0 L6,0 L6,3 L1,3 Z " fill="#000000" transform="translate(30,10)"/>
<path d="M0,0 L4,0 L3,3 L-14,10 L-18,10 L-17,7 Z " fill="#000000" transform="translate(127,21)"/>
<path d="M0,0 L2,0 L1,4 L-4,10 L-7,20 L-10,21 L-9,12 L-4,4 Z " fill="#000000" transform="translate(94,39)"/>
<path d="M0,0 L2,0 L8,20 L7,22 L5,22 L-1,3 Z " fill="#000000" transform="translate(86,74)"/>
<path d="M0,0 L3,0 L2,6 L-4,15 L-9,19 L-12,19 L-10,15 L-5,10 L-2,6 Z " fill="#000000" transform="translate(91,111)"/>
<path d="M0,0 L3,1 L0,4 L-16,11 L-19,11 L-18,8 Z " fill="#000000" transform="translate(63,136)"/>
</svg>
