<?xml version="1.0" encoding="UTF-8"?>
<!-- Generator: visioncortex VTracer 0.6.12 -->
<svg version="1.1" xmlns="http://www.w3.org/2000/svg" width="176" height="172">
<path d="M0,0 L176,0 L176,169 L0,169 Z M1,1 L1,168 L175,168 L175,1 Z " fill="#000000" transform="translate(0,0)"/>
<path d="M0,0 L2,1 L3,5 L8,5 L11,9 L10,15 L5,17 L2,16 L-1,16 L-1,1 Z M4,7 L2,11 L3,14 L7,13 L7,8 Z " fill="#000000" transform="translate(38,2)"/>
<path d="M0,0 L10,0 L12,5 L10,8 L12,8 L12,13 L10,15 L0,15 L-1,14 L-1,1 Z M3,2 L3,6 L8,6 L8,3 Z M3,9 L3,13 L9,12 L8,9 Z " fill="#000000" transform="translate(3,3)"/>
<path d="M0,0 L7,0 L8,1 L8,7 L9,13 L5,16 L0,15 L-2,13 L-2,10 L1,10 L2,12 L5,12 L6,9 L1,8 L1,6 L4,5 L5,2 L2,3 L1,5 L-2,4 Z " fill="#000000" transform="translate(19,3)"/>
<path d="M0,0 L5,0 L5,3 L-1,3 Z " fill="#000000" transform="translate(30,11)"/>
</svg>
