<?xml version="1.0" encoding="UTF-8"?>
<!-- Generator: visioncortex VTracer 0.6.12 -->
<svg version="1.1" xmlns="http://www.w3.org/2000/svg" width="175" height="173">
<path d="M0,0 L175,0 L175,169 L0,169 L0,168 L173,168 L173,1 L0,1 Z " fill="#000000" transform="translate(0,2)"/>
<path d="M0,0 L10,0 L12,5 L12,8 L12,13 L10,15 L0,15 L-1,14 L-1,1 Z M3,2 L3,6 L8,5 L7,2 Z M3,8 L3,12 L8,12 L9,9 Z " fill="#000000" transform="translate(1,5)"/>
<path d="M0,0 L5,2 L5,8 L6,9 L6,14 L4,16 L-3,16 L-5,14 L-5,11 L-2,11 L-1,13 L2,13 L2,10 L-2,9 L-2,7 L2,6 L2,3 L-4,6 L-3,1 Z " fill="#000000" transform="translate(20,4)"/>
<path d="M0,0 L5,2 L6,5 L-1,4 L-1,9 L3,8 L6,8 L4,12 L-3,12 L-5,10 L-5,3 Z " fill="#000000" transform="translate(40,8)"/>
<path d="M0,0 L5,0 L5,3 L0,3 Z " fill="#000000" transform="translate(28,13)"/>
<path d="M0,0 L13,3 L9,10 L6,14 L3,13 L5,9 L7,6 L6,7 L-4,12 L-13,16 L-16,16 L-14,12 L3,5 L-1,3 Z " fill="#000000" transform="translate(121,19)"/>
<path d="M0,0 L5,0 L2,12 L-1,12 L-1,8 L-5,14 L-7,23 L-10,24 L-10,17 L-5,7 L-3,5 L-8,4 L-8,2 Z " fill="#000000" transform="translate(91,40)"/>
<path d="M0,0 L4,2 L11,9 L10,11 L6,9 L6,12 L9,25 L6,26 L1,9 L-1,14 L-4,13 L-1,2 Z " fill="#000000" transform="translate(82,74)"/>
<path d="M0,0 L2,2 L5,10 L4,14 L0,10 L-6,19 L-13,24 L-15,22 L-7,15 L-4,9 L-8,11 L-8,8 Z " fill="#000000" transform="translate(90,110)"/>
<path d="M0,0 L13,2 L12,6 L7,14 L4,12 L6,8 L-8,14 L-11,14 L-10,11 L3,5 L0,3 Z " fill="#000000" transform="translate(52,136)"/>
</svg>
