<?xml version="1.0" encoding="UTF-8"?>
<!-- Generator: visioncortex VTracer 0.6.12 -->
<svg version="1.1" xmlns="http://www.w3.org/2000/svg" width="916" height="1084">
<path d="M0,0 L21,0 L17,3 L0,3 Z " fill="#000000" transform="translate(310,0)"/>
<path d="M0,0 L16,0 L13,3 L11,4 L5,4 L0,1 Z " fill="#000000" transform="translate(338,0)"/>
<path d="M0,0 L17,0 L18,3 L13,3 L11,3 L4,4 L0,2 Z " fill="#000000" transform="translate(374,0)"/>
<path d="M0,0 L13,0 L12,2 L4,3 L0,1 Z " fill="#000000" transform="translate(522,0)"/>
<path d="M0,0 L8,0 L8,2 L4,3 L0,1 Z " fill="#000000" transform="translate(544,0)"/>
<path d="M0,0 L12,0 L8,3 L1,2 Z " fill="#000000" transform="translate(555,0)"/>
<path d="M0,0 L12,0 L9,3 L2,2 Z " fill="#000000" transform="translate(590,0)"/>
<path d="M0,0 L12,0 L8,3 L1,2 Z " fill="#000000" transform="translate(612,0)"/>
<path d="M0,0 L12,0 L8,3 L1,2 Z " fill="#000000" transform="translate(675,0)"/>
<path d="M0,0 L14,0 L10,3 L4,3 Z " fill="#000000" transform="translate(710,0)"/>
<path d="M0,0 L11,0 L8,3 L1,2 Z " fill="#000000" transform="translate(733,0)"/>
<path d="M0,0 L12,0 L9,3 L2,2 Z " fill="#000000" transform="translate(768,0)"/>
<path d="M0,0 L12,0 L8,3 L1,2 Z " fill="#000000" transform="translate(790,0)"/>
<path d="M0,0 L4,0 L3,5 L0,5 Z " fill="#000000" transform="translate(562,13)"/>
<path d="M0,0 L1,0 L1,7 L5,7 L5,11 L1,11 L2,25 L6,27 L6,29 L2,30 L-3,27 L-3,11 L-6,10 L-6,7 L-3,7 L-3,2 Z " fill="#000000" transform="translate(619,14)"/>
<path d="M0,0 L5,1 L10,15 L16,0 L20,0 L19,5 L13,21 L8,22 L0,2 Z " fill="#000000" transform="translate(502,21)"/>
<path d="M0,0 L9,0 L12,3 L13,5 L14,22 L9,22 L7,22 L0,23 L-4,21 L-5,19 L-5,13 L-1,10 L8,7 L8,4 L0,4 L-1,7 L-5,7 L-3,2 Z M5,12 L0,14 L-1,18 L0,19 L6,19 L8,17 L9,12 Z " fill="#000000" transform="translate(529,21)"/>
<path d="M0,0 L5,1 L6,0 L12,0 L12,4 L5,6 L4,22 L0,22 Z " fill="#000000" transform="translate(547,21)"/>
<path d="M0,0 L4,0 L4,22 L0,22 Z " fill="#000000" transform="translate(562,21)"/>
<path d="M0,0 L9,0 L12,3 L13,5 L14,22 L9,22 L7,22 L0,23 L-4,21 L-5,19 L-5,13 L-1,10 L8,7 L8,4 L0,4 L-1,7 L-5,7 L-3,2 Z M5,12 L0,14 L-1,18 L0,19 L6,19 L8,17 L9,12 Z " fill="#000000" transform="translate(575,21)"/>
<path d="M0,0 L5,1 L6,0 L14,0 L17,3 L18,6 L18,22 L13,22 L12,5 L8,4 L5,6 L4,22 L0,22 Z " fill="#000000" transform="translate(593,21)"/>
<path d="M0,0 L9,0 L13,4 L15,12 L-1,12 L0,18 L8,18 L10,15 L14,15 L13,19 L10,22 L2,23 L-3,20 L-6,15 L-6,8 L-3,2 Z M3,3 L-1,6 L-1,9 L10,9 L9,5 L6,3 Z " fill="#000000" transform="translate(632,21)"/>
<path d="M0,0 L7,0 L11,4 L11,11 L6,15 L-1,14 L-4,10 L-4,4 Z " fill="#000000" transform="translate(897,38)"/>
<path d="M0,0 L15,0 L20,4 L21,9 L19,15 L22,18 L22,25 L18,29 L16,30 L-1,30 L-1,1 Z M4,4 L4,12 L15,12 L16,11 L16,6 L13,4 Z M4,17 L4,26 L15,26 L17,24 L17,18 L15,17 Z " fill="#000000" transform="translate(311,292)"/>
<path d="M0,0 L6,0 L11,3 L12,10 L9,15 L11,15 L13,18 L13,25 L8,30 L6,31 L0,31 L-5,28 L-7,22 L-3,21 L0,26 L6,26 L8,21 L7,18 L0,16 L0,13 L6,11 L7,6 L6,5 L0,5 L-2,9 L-6,9 L-5,3 Z " fill="#000000" transform="translate(343,292)"/>
<path d="M0,0 L4,0 L5,9 L7,8 L14,8 L19,12 L20,15 L20,23 L17,28 L13,31 L6,30 L4,30 L0,30 Z M8,11 L4,16 L4,23 L7,27 L13,27 L16,22 L15,14 L12,11 Z " fill="#000000" transform="translate(374,292)"/>
<path d="M0,0 L4,0 L3,5 L0,5 Z " fill="#000000" transform="translate(706,292)"/>
<path d="M0,0 L8,0 L8,3 L3,4 L2,8 L6,8 L6,12 L2,12 L2,30 L-2,30 L-2,12 L-5,12 L-5,8 L-2,8 L-2,2 Z " fill="#000000" transform="translate(718,292)"/>
<path d="M0,0 L4,0 L3,5 L0,5 Z " fill="#000000" transform="translate(727,292)"/>
<path d="M0,0 L4,0 L4,5 L0,5 Z " fill="#000000" transform="translate(758,292)"/>
<path d="M0,0 L4,0 L4,30 L0,30 Z " fill="#000000" transform="translate(789,292)"/>
<path d="M0,0 L1,0 L1,7 L5,7 L5,11 L1,11 L2,25 L6,27 L6,29 L2,30 L-3,27 L-3,11 L-6,10 L-6,7 L-3,7 L-3,2 Z " fill="#000000" transform="translate(546,293)"/>
<path d="M0,0 L1,0 L1,7 L5,7 L5,11 L1,11 L2,25 L6,27 L6,29 L2,30 L-3,27 L-3,11 L-12,12 L-13,13 L-14,29 L-18,29 L-18,7 L-13,8 L-12,7 L-3,7 L-3,2 Z " fill="#000000" transform="translate(697,293)"/>
<path d="M0,0 L5,1 L6,0 L12,0 L12,4 L5,6 L4,22 L0,22 Z " fill="#000000" transform="translate(505,300)"/>
<path d="M0,0 L9,0 L14,5 L15,8 L15,15 L12,20 L7,23 L-1,22 L-5,17 L-6,15 L-6,8 L-3,2 Z M3,3 L-1,6 L-2,12 L0,18 L7,19 L10,16 L11,10 L9,5 L6,3 Z " fill="#000000" transform="translate(524,300)"/>
<path d="M0,0 L9,0 L13,3 L14,22 L9,21 L5,23 L-2,22 L-5,18 L-4,12 L2,9 L8,8 L7,4 L1,5 L0,7 L-4,7 L-3,3 Z M6,12 L0,14 L0,19 L6,19 L9,16 L9,12 Z " fill="#000000" transform="translate(558,300)"/>
<path d="M0,0 L9,0 L13,4 L15,12 L-1,12 L0,18 L8,18 L10,15 L14,15 L13,19 L10,22 L2,23 L-3,20 L-6,15 L-6,8 L-3,2 Z M3,3 L-1,6 L-1,9 L10,9 L9,5 L6,3 Z " fill="#000000" transform="translate(592,300)"/>
<path d="M0,0 L5,1 L6,0 L13,0 L16,2 L19,0 L26,0 L29,3 L29,22 L25,22 L24,5 L18,4 L17,22 L12,22 L11,5 L8,4 L5,6 L4,22 L0,22 Z " fill="#000000" transform="translate(611,300)"/>
<path d="M0,0 L9,0 L12,3 L13,5 L14,22 L9,22 L7,22 L0,23 L-4,21 L-5,19 L-5,13 L-1,10 L8,7 L8,4 L0,4 L-1,7 L-5,7 L-3,2 Z M5,12 L0,14 L-1,18 L0,19 L6,19 L8,17 L9,12 Z " fill="#000000" transform="translate(661,300)"/>
<path d="M0,0 L4,0 L4,22 L0,22 Z " fill="#000000" transform="translate(706,300)"/>
<path d="M0,0 L4,0 L4,22 L0,22 Z " fill="#000000" transform="translate(727,300)"/>
<path d="M0,0 L8,0 L13,4 L13,7 L8,6 L8,4 L0,5 L-1,7 L-1,15 L1,18 L7,18 L9,14 L13,14 L12,19 L9,22 L1,23 L-4,20 L-6,16 L-6,6 L-2,1 Z " fill="#000000" transform="translate(741,300)"/>
<path d="M0,0 L4,0 L4,22 L0,22 Z " fill="#000000" transform="translate(758,300)"/>
<path d="M0,0 L9,0 L13,3 L14,22 L9,21 L5,23 L-2,22 L-5,18 L-4,12 L2,9 L8,8 L7,4 L1,5 L0,7 L-4,7 L-3,3 Z M6,12 L0,14 L0,19 L6,19 L9,16 L9,12 Z " fill="#000000" transform="translate(771,300)"/>
<path d="M0,0 L7,0 L11,4 L11,11 L6,15 L-1,14 L-4,10 L-4,4 Z " fill="#000000" transform="translate(897,304)"/>
<path d="M0,0 L11,0 L11,4 L0,4 Z " fill="#000000" transform="translate(359,309)"/>
<path d="M0,0 L7,0 L11,4 L11,11 L6,15 L-1,14 L-4,10 L-4,4 Z " fill="#000000" transform="translate(897,358)"/>
<path d="M0,0 L15,0 L20,4 L21,9 L19,15 L22,18 L22,25 L18,29 L16,30 L-1,30 L-1,1 Z M4,4 L4,12 L15,12 L16,11 L16,6 L13,4 Z M4,17 L4,26 L15,26 L17,24 L17,18 L15,17 Z " fill="#000000" transform="translate(311,814)"/>
<path d="M0,0 L6,0 L11,3 L12,10 L9,15 L11,15 L13,18 L13,25 L8,30 L6,31 L0,31 L-5,28 L-7,22 L-3,21 L0,26 L6,26 L8,21 L7,18 L0,16 L0,13 L6,11 L7,6 L6,5 L0,5 L-2,9 L-6,9 L-5,3 Z " fill="#000000" transform="translate(343,814)"/>
<path d="M0,0 L4,0 L5,9 L6,8 L14,8 L17,11 L18,14 L18,30 L13,30 L12,13 L8,12 L5,14 L4,30 L0,30 Z " fill="#000000" transform="translate(577,814)"/>
<path d="M0,0 L4,0 L4,30 L-1,29 L-4,31 L-11,30 L-15,26 L-16,24 L-16,14 L-11,8 L-3,8 L-1,9 L-1,1 Z M-8,11 L-12,15 L-12,23 L-9,27 L-3,27 L0,22 L-1,14 L-5,11 Z " fill="#000000" transform="translate(649,814)"/>
<path d="M0,0 L1,0 L1,7 L5,7 L5,11 L1,11 L2,25 L6,27 L6,29 L2,30 L-3,27 L-3,11 L-6,10 L-6,7 L-3,7 L-3,2 Z " fill="#000000" transform="translate(508,815)"/>
<path d="M0,0 L2,0 L2,6 L6,6 L6,9 L2,9 L3,25 L6,26 L6,28 L3,29 L-1,27 L-1,9 L-4,9 L-4,6 L-1,6 L-1,1 Z " fill="#000000" transform="translate(896,816)"/>
<path d="M0,0 L8,0 L13,4 L13,7 L8,6 L8,4 L0,5 L-1,7 L-1,15 L1,18 L7,18 L9,14 L13,14 L12,19 L9,22 L1,23 L-4,20 L-6,16 L-6,6 L-2,1 Z " fill="#000000" transform="translate(379,822)"/>
<path d="M0,0 L5,1 L6,0 L12,0 L12,4 L5,6 L4,22 L0,22 Z " fill="#000000" transform="translate(517,822)"/>
<path d="M0,0 L9,0 L13,4 L15,12 L-1,12 L0,18 L8,18 L10,15 L14,15 L13,19 L10,22 L2,23 L-3,20 L-6,15 L-6,8 L-3,2 Z M3,3 L-1,6 L-1,9 L10,9 L9,5 L6,3 Z " fill="#000000" transform="translate(536,822)"/>
<path d="M0,0 L9,0 L13,4 L14,7 L10,8 L6,4 L1,5 L-1,12 L1,17 L2,18 L9,18 L10,14 L14,14 L13,19 L7,23 L-1,22 L-5,17 L-6,8 L-3,2 Z " fill="#000000" transform="translate(559,822)"/>
<path d="M0,0 L9,0 L14,5 L15,8 L15,15 L12,20 L7,23 L-1,22 L-5,17 L-6,15 L-6,8 L-3,2 Z M3,3 L-1,6 L-2,12 L0,18 L7,19 L10,16 L11,10 L9,5 L6,3 Z " fill="#000000" transform="translate(604,822)"/>
<path d="M0,0 L9,0 L13,4 L15,12 L-1,12 L0,18 L8,18 L10,15 L14,15 L13,19 L10,22 L2,23 L-3,20 L-6,15 L-6,8 L-3,2 Z M3,3 L-1,6 L-1,9 L10,9 L9,5 L6,3 Z " fill="#000000" transform="translate(662,822)"/>
<path d="M0,0 L4,1 L5,0 L10,0 L10,3 L5,4 L4,6 L3,22 L0,22 Z " fill="#000000" transform="translate(906,822)"/>
<path d="M0,0 L11,0 L11,4 L0,4 Z " fill="#000000" transform="translate(359,831)"/>
<path d="M0,0 L4,0 L4,5 L0,5 Z " fill="#000000" transform="translate(583,854)"/>
<path d="M0,0 L4,0 L5,9 L6,8 L14,8 L17,11 L18,14 L18,30 L13,30 L12,13 L8,12 L5,14 L4,30 L0,30 Z " fill="#000000" transform="translate(616,854)"/>
<path d="M0,0 L4,0 L4,30 L-2,30 L-8,31 L-13,28 L-16,22 L-15,13 L-10,8 L-3,8 L-1,9 Z M-8,11 L-11,14 L-12,20 L-10,26 L-3,27 L0,24 L0,15 L-4,11 Z " fill="#000000" transform="translate(675,854)"/>
<path d="M0,0 L9,0 L13,4 L14,7 L10,8 L6,4 L1,5 L-1,12 L1,17 L2,18 L9,18 L10,14 L14,14 L13,19 L7,23 L-1,22 L-5,17 L-6,8 L-3,2 Z " fill="#000000" transform="translate(509,862)"/>
<path d="M0,0 L9,0 L13,3 L14,22 L9,21 L5,23 L-2,22 L-5,18 L-4,12 L2,9 L8,8 L7,4 L1,5 L0,7 L-4,7 L-3,3 Z M6,12 L0,14 L0,19 L6,19 L9,16 L9,12 Z " fill="#000000" transform="translate(530,862)"/>
<path d="M0,0 L5,1 L7,0 L14,0 L17,2 L19,0 L26,0 L29,2 L30,5 L30,22 L26,22 L25,4 L19,5 L18,7 L17,22 L13,22 L12,5 L8,4 L6,5 L5,8 L4,22 L0,22 Z " fill="#000000" transform="translate(548,862)"/>
<path d="M0,0 L4,0 L4,22 L0,22 Z " fill="#000000" transform="translate(583,862)"/>
<path d="M0,0 L5,1 L6,0 L14,0 L17,3 L18,6 L18,22 L13,22 L12,5 L8,4 L5,6 L4,22 L0,22 Z " fill="#000000" transform="translate(593,862)"/>
<path d="M0,0 L9,0 L13,3 L14,22 L9,21 L5,23 L-2,22 L-5,18 L-4,12 L2,9 L8,8 L7,4 L1,5 L0,7 L-4,7 L-3,3 Z M6,12 L0,14 L0,19 L6,19 L9,16 L9,12 Z " fill="#000000" transform="translate(642,862)"/>
<path d="M0,0 L9,0 L12,3 L13,5 L14,22 L9,22 L7,22 L0,23 L-4,21 L-5,19 L-5,13 L-1,10 L8,7 L8,4 L0,4 L-1,7 L-5,7 L-3,2 Z M5,12 L0,14 L-1,18 L0,19 L6,19 L8,17 L9,12 Z " fill="#000000" transform="translate(688,862)"/>
<path d="M0,0 L8,0 L13,5 L14,12 L-2,12 L0,18 L7,19 L10,16 L13,16 L11,21 L7,23 L-1,22 L-5,17 L-6,8 L-3,2 Z M1,3 L-2,6 L-2,9 L10,9 L9,4 L8,3 Z " fill="#000000" transform="translate(898,862)"/>
<path d="M0,0 L4,1 L5,0 L11,0 L11,3 L5,4 L4,6 L3,22 L0,22 Z " fill="#000000" transform="translate(894,903)"/>
<path d="M0,0 L3,1 L3,22 L0,22 Z " fill="#000000" transform="translate(908,903)"/>
<path d="M0,0 L15,0 L20,4 L21,9 L19,15 L22,18 L22,25 L18,29 L16,30 L-1,30 L-1,1 Z M4,4 L4,12 L15,12 L16,11 L16,6 L13,4 Z M4,17 L4,26 L15,26 L17,24 L17,18 L15,17 Z " fill="#000000" transform="translate(311,961)"/>
<path d="M0,0 L6,0 L11,3 L12,10 L9,15 L11,15 L13,18 L13,25 L8,30 L6,31 L0,31 L-5,28 L-7,22 L-3,21 L0,26 L6,26 L8,21 L7,18 L0,16 L0,13 L6,11 L7,6 L6,5 L0,5 L-2,9 L-6,9 L-5,3 Z " fill="#000000" transform="translate(343,961)"/>
<path d="M0,0 L4,0 L4,30 L-1,29 L-4,31 L-11,30 L-15,26 L-16,24 L-16,14 L-11,8 L-3,8 L-1,9 L-1,1 Z M-8,11 L-12,15 L-12,23 L-9,27 L-3,27 L0,22 L-1,14 L-5,11 Z " fill="#000000" transform="translate(389,961)"/>
<path d="M0,0 L4,0 L4,30 L-2,30 L-8,31 L-13,28 L-16,22 L-15,13 L-10,8 L-3,8 L-1,9 Z M-8,11 L-11,14 L-12,20 L-10,26 L-3,27 L0,24 L0,15 L-4,11 Z " fill="#000000" transform="translate(579,961)"/>
<path d="M0,0 L8,0 L8,3 L3,4 L2,8 L6,8 L6,12 L2,12 L2,30 L-2,30 L-2,12 L-5,12 L-5,8 L-2,8 L-2,2 Z " fill="#000000" transform="translate(624,961)"/>
<path d="M0,0 L4,0 L3,5 L0,5 Z " fill="#000000" transform="translate(633,961)"/>
<path d="M0,0 L4,0 L5,9 L6,8 L14,8 L19,13 L20,20 L18,27 L15,30 L7,31 L0,30 Z M8,11 L4,14 L4,24 L6,27 L12,27 L15,24 L15,15 L11,11 Z " fill="#000000" transform="translate(798,961)"/>
<path d="M0,0 L2,0 L2,6 L6,6 L6,9 L2,9 L3,25 L6,26 L6,28 L3,29 L-1,27 L-1,9 L-4,9 L-4,6 L-1,6 L-1,1 Z " fill="#000000" transform="translate(896,963)"/>
<path d="M0,0 L9,0 L13,4 L14,7 L10,8 L6,4 L1,5 L-1,12 L1,17 L2,18 L9,18 L10,14 L14,14 L13,19 L7,23 L-1,22 L-5,17 L-6,8 L-3,2 Z " fill="#000000" transform="translate(509,969)"/>
<path d="M0,0 L9,0 L14,5 L15,8 L15,15 L12,20 L7,23 L-1,22 L-5,17 L-6,15 L-6,8 L-3,2 Z M3,3 L-1,6 L-2,12 L0,18 L7,19 L10,16 L11,10 L9,5 L6,3 Z " fill="#000000" transform="translate(531,969)"/>
<path d="M0,0 L5,1 L6,0 L12,0 L12,4 L5,6 L4,22 L0,22 Z " fill="#000000" transform="translate(550,969)"/>
<path d="M0,0 L9,0 L12,3 L13,5 L14,22 L9,22 L7,22 L0,23 L-4,21 L-5,19 L-5,13 L-1,10 L8,7 L8,4 L0,4 L-1,7 L-5,7 L-3,2 Z M5,12 L0,14 L-1,18 L0,19 L6,19 L8,17 L9,12 Z " fill="#000000" transform="translate(592,969)"/>
<path d="M0,0 L4,0 L4,22 L0,22 Z " fill="#000000" transform="translate(633,969)"/>
<path d="M0,0 L5,1 L9,6 L14,0 L18,0 L16,4 L12,11 L18,20 L18,22 L13,21 L9,15 L4,22 L-1,22 L4,13 L5,10 L0,2 Z " fill="#000000" transform="translate(641,969)"/>
<path d="M0,0 L9,0 L13,3 L14,22 L9,21 L5,23 L-2,22 L-5,18 L-4,12 L2,9 L8,8 L7,4 L1,5 L0,7 L-4,7 L-3,3 Z M6,12 L0,14 L0,19 L6,19 L9,16 L9,12 Z " fill="#000000" transform="translate(666,969)"/>
<path d="M0,0 L8,0 L13,4 L14,6 L14,16 L11,21 L7,23 L1,23 L-4,20 L-6,16 L-6,6 L-2,1 Z M2,3 L-1,6 L-2,8 L-2,15 L1,19 L7,19 L10,15 L10,7 L6,3 Z " fill="#000000" transform="translate(701,969)"/>
<path d="M0,0 L4,0 L5,17 L6,18 L11,18 L13,15 L14,0 L18,0 L18,22 L13,21 L10,23 L3,22 L0,18 Z " fill="#000000" transform="translate(719,969)"/>
<path d="M0,0 L9,0 L13,4 L14,7 L10,8 L6,4 L1,5 L-1,12 L1,17 L2,18 L9,18 L10,14 L14,14 L13,19 L7,23 L-1,22 L-5,17 L-6,8 L-3,2 Z " fill="#000000" transform="translate(758,969)"/>
<path d="M0,0 L9,0 L13,3 L14,22 L9,21 L5,23 L-2,22 L-5,18 L-4,12 L2,9 L8,8 L7,4 L1,5 L0,7 L-4,7 L-3,3 Z M6,12 L0,14 L0,19 L6,19 L9,16 L9,12 Z " fill="#000000" transform="translate(779,969)"/>
<path d="M0,0 L8,0 L13,4 L14,6 L14,16 L11,21 L7,23 L1,23 L-4,20 L-6,16 L-6,6 L-2,1 Z M2,3 L-1,6 L-2,8 L-2,15 L1,19 L7,19 L10,15 L10,7 L6,3 Z " fill="#000000" transform="translate(826,969)"/>
<path d="M0,0 L4,1 L5,0 L10,0 L10,3 L5,4 L4,6 L3,22 L0,22 Z " fill="#000000" transform="translate(906,969)"/>
<path d="M0,0 L11,0 L11,4 L0,4 Z " fill="#000000" transform="translate(359,978)"/>
<path d="M0,0 L4,0 L4,30 L-2,30 L-8,31 L-13,28 L-16,22 L-15,13 L-10,8 L-3,8 L-1,9 Z M-8,11 L-11,14 L-12,20 L-10,26 L-3,27 L0,24 L0,15 L-4,11 Z " fill="#000000" transform="translate(519,1001)"/>
<path d="M0,0 L10,0 L10,4 L2,3 L0,8 L5,9 L5,11 L0,11 L0,30 L-3,30 L-3,11 L-6,11 L-6,8 L-3,8 L-2,1 Z " fill="#000000" transform="translate(897,1001)"/>
<path d="M0,0 L8,0 L13,5 L14,12 L-2,12 L1,18 L7,18 L9,15 L13,15 L12,20 L7,23 L1,23 L-4,20 L-6,16 L-6,6 L-2,1 Z M2,3 L-1,6 L-2,9 L10,9 L8,4 Z " fill="#000000" transform="translate(533,1009)"/>
<path d="M0,0 L9,0 L13,3 L14,22 L9,21 L5,23 L-2,22 L-5,18 L-4,12 L2,9 L8,8 L7,4 L1,5 L0,7 L-4,7 L-3,3 Z M6,12 L0,14 L0,19 L6,19 L9,16 L9,12 Z " fill="#000000" transform="translate(566,1009)"/>
<path d="M0,0 L8,0 L13,4 L13,7 L8,6 L8,4 L2,4 L-1,7 L-1,15 L1,18 L7,18 L9,14 L13,14 L12,19 L9,22 L6,23 L8,25 L7,30 L5,31 L-1,31 L-1,28 L4,28 L4,26 L1,25 L1,23 L-4,20 L-6,16 L-6,6 L-2,1 Z " fill="#000000" transform="translate(589,1009)"/>
<path d="M0,0 L8,0 L13,4 L14,6 L14,16 L11,21 L7,23 L1,23 L-4,20 L-6,16 L-6,6 L-2,1 Z M2,3 L-1,6 L-2,8 L-2,15 L1,19 L7,19 L10,15 L10,7 L6,3 Z " fill="#000000" transform="translate(611,1009)"/>
<path d="M0,0 L3,0 L3,22 L0,22 Z " fill="#000000" transform="translate(904,1009)"/>
<path d="M0,0 L4,1 L5,2 L5,7 L1,3 Z " fill="#000000" transform="translate(911,1009)"/>
<path d="M0,0 L1,0 L1,6 L-1,8 L-5,7 Z " fill="#000000" transform="translate(915,1023)"/>
<path d="M0,0 L15,0 L20,4 L21,9 L19,15 L19,16 L-1,16 L-1,1 Z M4,4 L4,12 L15,12 L16,11 L16,6 L13,4 Z " fill="#000000" transform="translate(311,1068)"/>
<path d="M0,0 L6,0 L11,3 L12,10 L9,15 L11,16 L0,16 L0,13 L6,11 L7,6 L6,5 L0,5 L-2,9 L-6,9 L-5,3 Z " fill="#000000" transform="translate(343,1068)"/>
<path d="M0,0 L5,1 L6,0 L14,0 L19,6 L19,9 L15,9 L13,5 L8,4 L5,6 L4,9 L0,9 Z " fill="#000000" transform="translate(505,1075)"/>
<path d="M0,0 L9,0 L12,3 L13,9 L7,9 L8,4 L0,4 L-1,7 L-5,7 L-3,2 Z " fill="#000000" transform="translate(532,1075)"/>
<path d="M0,0 L8,0 L12,5 L8,7 L7,4 L0,4 L0,8 L3,9 L-4,9 L-4,3 Z " fill="#000000" transform="translate(553,1075)"/>
<path d="M0,0 L8,0 L12,5 L8,7 L7,4 L0,4 L0,8 L3,9 L-4,9 L-4,3 Z " fill="#000000" transform="translate(573,1075)"/>
<path d="M0,0 L9,0 L13,3 L13,9 L8,9 L7,4 L1,5 L0,7 L-4,7 L-3,3 Z " fill="#000000" transform="translate(593,1075)"/>
<path d="M0,0 L8,0 L11,0 L14,0 L14,9 L10,9 L8,5 L3,4 L0,7 L-1,9 L-5,9 L-4,4 Z " fill="#000000" transform="translate(615,1075)"/>
<path d="M0,0 L9,0 L13,4 L14,9 L10,9 L8,5 L3,4 L0,6 L-1,9 L-6,9 L-3,2 Z " fill="#000000" transform="translate(639,1075)"/>
<path d="M0,0 L5,1 L6,0 L13,0 L16,2 L19,0 L26,0 L29,3 L29,9 L25,9 L24,5 L18,4 L17,9 L12,9 L10,4 L5,6 L4,9 L0,9 Z " fill="#000000" transform="translate(658,1075)"/>
<path d="M0,0 L8,0 L13,5 L14,9 L9,8 L8,4 L0,4 L-2,9 L-6,9 L-5,4 Z " fill="#000000" transform="translate(709,1075)"/>
<path d="M0,0 L5,1 L7,0 L14,0 L17,2 L19,0 L26,0 L29,2 L30,9 L26,9 L25,4 L19,5 L17,9 L13,9 L12,5 L8,4 L6,5 L4,9 L0,9 Z " fill="#000000" transform="translate(727,1075)"/>
<path d="M0,0 L3,1 L3,9 L0,9 Z " fill="#000000" transform="translate(894,1075)"/>
<path d="M0,0 L3,0 L4,2 L6,0 L13,0 L14,5 L12,4 L6,4 L3,9 L0,9 Z " fill="#000000" transform="translate(902,1075)"/>
<path d="M0,0 L8,0 L13,5 L14,8 L9,8 L8,4 L0,4 L-1,8 L-6,8 L-4,3 Z " fill="#000000" transform="translate(379,1076)"/>
</svg>
