<?xml version="1.0" encoding="UTF-8"?>
<!-- Generator: visioncortex VTracer 0.6.12 -->
<svg version="1.1" xmlns="http://www.w3.org/2000/svg" width="177" height="171">
<path d="M0,0 L176,0 L176,1 L1,1 L1,168 L176,167 L176,169 L0,169 Z " fill="#000000" transform="translate(1,1)"/>
<path d="M0,0 L10,0 L12,2 L11,7 L13,12 L10,15 L0,15 Z M3,2 L3,6 L8,5 L7,2 Z M3,8 L3,12 L9,12 L9,9 Z " fill="#000000" transform="translate(4,4)"/>
<path d="M0,0 L5,2 L6,5 L5,8 L6,9 L6,14 L4,16 L-2,16 L-5,13 L-5,11 L-1,12 L-1,14 L2,13 L2,10 L-2,9 L-2,7 L1,6 L2,3 L-4,5 L-3,1 Z " fill="#000000" transform="translate(23,3)"/>
<path d="M0,0 L5,2 L6,7 L-1,7 L-1,10 L6,8 L4,12 L-3,12 L-5,9 L-4,2 Z M-1,3 L-1,5 L3,4 Z " fill="#000000" transform="translate(43,7)"/>
<path d="M0,0 L6,0 L6,3 L0,3 Z " fill="#000000" transform="translate(31,12)"/>
<path d="M0,0 L5,1 L7,3 L6,9 L5,10 L0,10 L-2,16 L-29,70 L-22,73 L-25,74 L-32,72 L-31,67 L-3,11 L-3,2 Z " fill="#000000" transform="translate(42,38)"/>
<path d="M0,0 L6,1 L7,8 L8,14 L29,56 L36,69 L35,72 L26,74 L27,72 L33,71 L22,48 L4,12 L-2,9 L-3,8 L-3,3 Z " fill="#000000" transform="translate(133,38)"/>
<path d="M0,0 L10,0 L8,5 L4,10 L-1,3 Z " fill="#000000" transform="translate(73,104)"/>
<path d="M0,0 L10,0 L10,4 L6,10 L2,6 L0,3 Z " fill="#000000" transform="translate(96,104)"/>
<path d="M0,0 L4,1 L3,8 L6,11 L2,10 L1,6 L-2,6 L-1,2 L-1,5 L1,5 Z " fill="#000000" transform="translate(121,129)"/>
</svg>
