<?xml version="1.0" encoding="UTF-8"?>
<!-- Generator: visioncortex VTracer 0.6.12 -->
<svg version="1.1" xmlns="http://www.w3.org/2000/svg" width="181" height="170">
<path d="M0,0 L1,0 L2,166 L176,167 L176,0 L177,0 L177,168 L0,168 Z " fill="#000000" transform="translate(2,0)"/>
<path d="M0,0 L4,2 L1,4 L3,7 L1,8 L0,16 L-3,16 L-3,7 L-5,7 L-5,5 L-3,5 L-2,1 Z " fill="#000000" transform="translate(43,1)"/>
<path d="M0,0 L10,0 L12,2 L12,8 L13,13 L11,15 L0,15 Z M4,2 L3,6 L8,6 L9,3 Z M3,9 L3,13 L9,12 L9,9 Z " fill="#000000" transform="translate(5,2)"/>
<path d="M0,0 L6,0 L8,2 L8,8 L9,11 L8,14 L2,16 L-1,15 L-2,10 L1,11 L1,13 L5,13 L4,9 L1,8 L1,6 L4,6 L4,3 L1,2 L0,5 L-2,4 Z " fill="#000000" transform="translate(22,2)"/>
<path d="M0,0 L6,0 L6,3 L0,3 Z " fill="#000000" transform="translate(32,10)"/>
<path d="M0,0 L5,0 L7,2 L6,8 L3,9 L-1,7 L-2,3 Z " fill="#000000" transform="translate(88,79)"/>
</svg>
