<?xml version="1.0" encoding="UTF-8"?>
<!-- Generator: visioncortex VTracer 0.6.12 -->
<svg version="1.1" xmlns="http://www.w3.org/2000/svg" width="178" height="168">
<path d="M0,0 L176,0 L176,168 L175,168 L175,2 L1,2 L1,168 L-1,168 L-1,1 Z " fill="#000000" transform="translate(2,0)"/>
<path d="M0,0 L9,0 L12,3 L11,8 L12,9 L12,14 L9,16 L0,16 L-1,15 L-1,1 Z M3,3 L3,6 L8,6 L8,3 Z M3,9 L3,13 L8,13 L8,9 Z " fill="#000000" transform="translate(5,3)"/>
<path d="M0,0 L5,0 L7,2 L7,8 L8,13 L5,16 L-2,15 L-3,11 L0,11 L0,13 L4,12 L4,10 L0,9 L1,6 L4,6 L4,3 L-2,5 L-2,2 Z " fill="#000000" transform="translate(22,3)"/>
<path d="M0,0 L8,0 L8,14 L6,16 L-1,16 L-3,15 L-2,11 L-3,9 L-3,2 Z M1,3 L0,8 L4,9 L5,4 Z M3,11 L0,13 L4,14 L5,11 Z " fill="#000000" transform="translate(42,7)"/>
<path d="M0,0 L7,0 L7,2 L1,3 Z " fill="#000000" transform="translate(31,12)"/>
<path d="M0,0 L2,0 L0,4 L-20,24 L-15,29 L-5,39 L2,45 L0,47 L-15,33 L-22,27 L-29,33 L-44,48 L-46,48 L-44,44 L-25,25 L-31,18 L-43,7 L-45,4 L-41,5 L-34,12 L-26,19 L-22,22 Z " fill="#000000" transform="translate(112,61)"/>
</svg>
