<?xml version="1.0" encoding="UTF-8"?>
<!-- Generator: visioncortex VTracer 0.6.12 -->
<svg version="1.1" xmlns="http://www.w3.org/2000/svg" width="178" height="170">
<path d="M0,0 L177,0 L177,169 L0,169 Z M1,2 L1,168 L175,168 L175,2 Z " fill="#000000" transform="translate(0,1)"/>
<path d="M0,0 L8,0 L12,3 L11,8 L12,9 L12,14 L10,16 L0,16 L-1,15 L-1,1 Z M3,3 L3,7 L8,6 L8,3 Z M3,9 L3,13 L8,13 L8,9 Z " fill="#000000" transform="translate(3,4)"/>
<path d="M0,0 L5,1 L6,2 L6,8 L7,13 L4,16 L-3,15 L-4,11 L-1,11 L0,13 L4,13 L3,10 L-1,9 L0,6 L3,6 L3,3 L-3,5 L-2,1 Z " fill="#000000" transform="translate(21,4)"/>
<path d="M0,0 L2,0 L2,5 L7,4 L10,7 L10,15 L6,15 L6,7 L3,7 L2,16 L-1,16 L-1,1 Z " fill="#000000" transform="translate(38,4)"/>
<path d="M0,0 L7,0 L6,3 L1,3 Z " fill="#000000" transform="translate(29,13)"/>
<path d="M0,0 L3,4 L32,62 L32,63 L-32,63 L-23,44 L-1,1 Z M-1,5 L-28,59 L-28,61 L28,61 L26,55 L1,5 Z " fill="#000000" transform="translate(88,54)"/>
</svg>
