<?xml version="1.0" encoding="UTF-8"?>
<!-- Generator: visioncortex VTracer 0.6.12 -->
<svg version="1.1" xmlns="http://www.w3.org/2000/svg" width="175" height="168">
<path d="M0,0 L9,0 L12,3 L11,8 L12,9 L12,14 L9,16 L0,16 L-1,15 L-1,1 Z M3,3 L3,6 L8,6 L8,3 Z M3,9 L3,13 L8,13 L8,9 Z " fill="#000000" transform="translate(2,1)"/>
<path d="M0,0 L5,0 L7,2 L7,8 L8,13 L5,16 L-2,15 L-3,11 L0,11 L0,13 L4,12 L4,10 L0,9 L1,6 L4,6 L4,3 L-2,5 L-2,2 Z " fill="#000000" transform="translate(19,1)"/>
<path d="M0,0 L2,0 L2,12 L-1,11 L-1,1 Z " fill="#000000" transform="translate(37,5)"/>
<path d="M0,0 L7,0 L6,3 L1,3 Z " fill="#000000" transform="translate(28,10)"/>
<path d="M0,0 L4,1 L11,8 L17,15 L15,19 L9,25 L11,31 L15,40 L15,53 L11,61 L3,68 L-2,70 L-15,70 L-25,66 L-32,62 L-37,63 L-51,73 L-66,85 L-79,95 L-95,107 L-100,106 L-101,105 L-101,99 L-69,67 L-62,59 L-33,30 L-25,23 L-17,15 L-9,8 Z M1,2 L0,5 L-5,7 L-10,12 L-10,14 L-13,15 L-14,17 L-17,18 L-17,20 L-20,21 L-25,26 L-37,37 L-37,39 L-40,40 L-40,42 L-43,43 L-48,48 L-50,52 L-53,53 L-58,58 L-60,62 L-63,63 L-63,65 L-65,65 L-66,69 L-69,70 L-69,72 L-73,74 L-79,80 L-79,82 L-82,83 L-87,88 L-92,93 L-92,95 L-95,96 L-99,101 L-97,104 L-93,103 L-90,101 L-90,99 L-85,97 L-76,90 L-76,88 L-71,86 L-62,79 L-60,77 L-58,76 L-58,74 L-53,72 L-48,68 L-47,66 L-44,65 L-44,63 L-40,62 L-35,59 L-31,59 L-28,62 L-23,64 L-17,67 L-7,68 L0,67 L2,66 L2,64 L6,63 L11,57 L13,52 L13,41 L6,25 L11,20 L14,17 L12,13 L7,8 L2,2 Z M8,9 Z M-99,103 Z " fill="#000000" transform="translate(129,30)"/>
<path d="M0,0 L1,2 L5,2 L6,0 L7,2 L11,2 L15,7 L19,13 L20,19 L19,26 L17,27 L16,30 L11,33 L9,33 L8,35 L-2,35 L-9,30 L-12,26 L-14,21 L-12,11 L-11,8 L-9,7 L-7,4 L-5,4 L-3,2 L0,3 Z M1,4 L-6,7 L-10,12 L-11,21 L-8,27 L-3,31 L-1,32 L7,32 L14,28 L17,22 L17,14 L13,8 L9,5 Z M-13,22 Z " fill="#000000" transform="translate(116,57)"/>
<path d="M0,0 L1,0 L1,168 L-174,168 L-174,166 L0,166 Z " fill="#000000" transform="translate(174,0)"/>
</svg>
