<?xml version="1.0" encoding="UTF-8"?>
<!-- Generator: visioncortex VTracer 0.6.12 -->
<svg version="1.1" xmlns="http://www.w3.org/2000/svg" width="178" height="170">
<path d="M0,0 L177,0 L177,170 L0,170 Z M1,2 L1,168 L175,168 L175,2 Z " fill="#000000" transform="translate(1,0)"/>
<path d="M0,0 L9,0 L12,3 L11,8 L12,9 L12,14 L9,16 L0,16 L-1,15 L-1,2 Z M3,3 L3,6 L8,6 L8,3 Z M3,9 L3,13 L8,13 L8,9 Z " fill="#000000" transform="translate(4,3)"/>
<path d="M0,0 L5,1 L6,2 L6,8 L7,13 L4,16 L-1,16 L-4,13 L-3,10 L2,13 L4,13 L3,10 L-1,9 L0,6 L3,6 L3,3 L-3,5 L-2,1 Z " fill="#000000" transform="translate(22,3)"/>
<path d="M0,0 L3,1 L3,14 L2,16 L-3,16 L-3,13 L-1,13 L-1,1 Z " fill="#000000" transform="translate(39,7)"/>
<path d="M0,0 L7,0 L6,3 L1,3 Z " fill="#000000" transform="translate(30,12)"/>
<path d="M0,0 L10,0 L16,4 L20,9 L20,16 L12,36 L8,44 L9,49 L21,66 L31,79 L43,95 L40,95 L30,83 L15,63 L5,49 L-6,65 L-16,78 L-27,92 L-30,96 L-32,96 L-30,91 L-17,75 L-4,57 L3,46 L-6,26 L-10,10 L-7,5 L-2,1 Z M1,2 L-5,6 L-7,8 L-7,15 L-2,30 L5,43 L8,39 L16,21 L18,15 L17,8 L11,3 L9,2 Z " fill="#000000" transform="translate(84,37)"/>
</svg>
