<?xml version="1.0" encoding="UTF-8"?>
<!-- Generator: visioncortex VTracer 0.6.12 -->
<svg version="1.1" xmlns="http://www.w3.org/2000/svg" width="63" height="30">
<path d="M0,0 L2,2 L-5,9 L-3,13 L1,17 L0,19 L-7,13 L-11,15 L-16,20 L-18,20 L-16,16 L-11,11 L-13,7 L-17,3 L-16,1 L-9,7 L-5,5 Z " fill="#000000" transform="translate(54,5)"/>
<path d="M0,0 L0,3 L-6,9 L-5,12 L1,17 L1,19 L-3,17 L-9,12 L-17,20 L-17,17 L-11,11 L-12,8 L-18,3 L-18,1 L-14,3 L-8,8 Z " fill="#000000" transform="translate(26,5)"/>
</svg>
