<?xml version="1.0" encoding="UTF-8"?>
<!-- Generator: visioncortex VTracer 0.6.12 -->
<svg version="1.1" xmlns="http://www.w3.org/2000/svg" width="313" height="292">
<path d="M0,0 L313,0 L313,291 L0,291 Z M1,1 L1,289 L312,289 L312,1 Z " fill="#000000" transform="translate(0,1)"/>
<path d="M0,0 L7,0 L10,3 L9,7 L10,8 L10,13 L8,14 L-1,14 L-1,1 Z M2,3 L2,6 L7,5 L6,3 Z M2,8 L2,12 L7,11 L6,8 Z " fill="#000000" transform="translate(3,3)"/>
<path d="M0,0 L2,0 L2,9 L4,9 L4,11 L2,11 L2,14 L0,14 L-1,12 L-7,11 L-5,6 Z M-1,5 L-4,9 L0,9 Z " fill="#000000" transform="translate(21,3)"/>
<path d="M0,0 L2,0 L2,14 L-6,14 L-8,11 L-7,5 L-6,4 L-1,4 Z M-4,6 L-5,11 L-1,12 L-1,6 Z " fill="#000000" transform="translate(40,3)"/>
<path d="M0,0 L7,0 L17,3 L23,7 L28,12 L32,19 L35,27 L43,31 L50,39 L53,49 L51,60 L45,69 L37,74 L25,76 L5,76 L5,101 L12,101 L11,104 L-5,104 L-6,101 L1,101 L0,80 L-3,77 L-29,74 L-37,70 L-44,62 L-46,56 L-46,45 L-41,35 L-34,29 L-27,27 L-26,20 L-22,12 L-13,4 L-6,1 Z M-3,4 L-12,8 L-19,14 L-23,22 L-24,30 L-33,33 L-39,38 L-42,44 L-43,52 L-40,62 L-32,69 L-25,71 L-18,72 L-7,72 L-13,65 L-19,58 L-16,56 L-14,60 L-10,58 L-7,56 L-7,59 L-10,62 L-8,66 L-1,73 L1,73 L1,49 L-9,39 L-7,37 L0,44 L1,44 L1,30 L5,30 L5,59 L12,53 L23,42 L24,45 L19,51 L30,51 L30,55 L14,55 L5,64 L5,73 L29,72 L39,69 L45,64 L49,55 L49,46 L45,38 L38,32 L31,29 L28,18 L23,11 L13,5 L9,4 Z " fill="#000000" transform="translate(220,90)"/>
<path d="M0,0 L3,0 L2,10 L1,18 L1,34 L3,38 L-1,39 L-3,36 L-3,10 L-6,11 L-6,8 Z " fill="#000000" transform="translate(144,107)"/>
<path d="M0,0 L11,0 L22,3 L29,9 L30,16 L24,21 L17,23 L7,23 L8,33 L10,37 L6,37 L4,35 L3,15 L3,4 L-1,5 L-2,1 Z M6,4 L7,20 L20,19 L26,16 L27,13 L22,7 L13,4 Z " fill="#000000" transform="translate(100,108)"/>
<path d="M0,0 L8,1 L15,6 L18,11 L19,21 L15,29 L10,33 L5,35 L-2,35 L-10,31 L-12,29 L-13,41 L-1,41 L-10,61 L-14,68 L-17,64 L-27,44 L-27,41 L-15,41 L-15,12 L-11,5 L-5,1 Z M-4,3 L-10,7 L-13,13 L-13,22 L-10,28 L-4,32 L2,33 L11,30 L15,25 L16,23 L16,12 L13,7 L6,3 Z " fill="#000000" transform="translate(69,132)"/>
<path d="M0,0 L5,1 L5,3 L0,4 L-6,12 L-7,15 L-7,22 L-2,24 L-4,19 L1,14 L5,13 L8,16 L6,22 L0,26 L-7,26 L-10,23 L-10,14 L-5,5 Z M1,16 L-2,19 L-1,22 L4,21 L5,16 Z " fill="#000000" transform="translate(129,152)"/>
<path d="M0,0 L6,0 L8,1 L8,6 L6,8 L12,11 L13,12 L13,17 L7,22 L3,24 L-3,24 L-5,22 L-5,19 L-3,19 L-2,21 L5,20 L10,16 L9,12 L-3,12 L-3,10 L5,5 L6,2 L-5,4 L-2,1 Z " fill="#000000" transform="translate(102,154)"/>
<path d="M0,0 L3,3 L4,6 L10,1 L14,3 L16,8 L23,2 L28,3 L31,9 L31,16 L30,18 L28,18 L27,7 L26,5 L21,6 L17,12 L16,18 L13,17 L13,10 L12,4 L7,6 L4,11 L2,18 L0,17 Z " fill="#000000" transform="translate(141,160)"/>
</svg>
