<?xml version="1.0" encoding="UTF-8"?>
<!-- Generator: visioncortex VTracer 0.6.12 -->
<svg version="1.1" xmlns="http://www.w3.org/2000/svg" width="114" height="132">
<path d="M0,0 L7,1 L45,18 L41,19 L10,5 L2,2 L-33,18 L-38,20 L-41,19 L-26,12 Z " fill="#000000" transform="translate(56,8)"/>
<path d="M0,0 L16,2 L26,7 L36,16 L42,25 L46,38 L46,50 L42,63 L35,74 L25,82 L13,87 L7,88 L-3,88 L-15,85 L-26,78 L-33,71 L-40,57 L-42,45 L-40,31 L-34,19 L-26,10 L-16,4 L-7,1 Z M-3,2 L-14,5 L-23,10 L-29,15 L-35,24 L-39,34 L-40,39 L-40,49 L-37,61 L-30,72 L-21,80 L-9,85 L-5,86 L9,86 L19,83 L29,77 L36,70 L41,61 L44,52 L44,36 L40,25 L34,16 L26,9 L16,4 L8,2 Z " fill="#000000" transform="translate(56,33)"/>
</svg>
