<?xml version="1.0" encoding="UTF-8"?>
<!-- Generator: visioncortex VTracer 0.6.12 -->
<svg version="1.1" xmlns="http://www.w3.org/2000/svg" width="117" height="184">
<path d="M0,0 L8,1 L39,15 L45,18 L44,20 L6,3 L2,2 L-37,20 L-40,19 L-24,11 Z " fill="#000000" transform="translate(59,3)"/>
<path d="M0,0 L13,1 L24,5 L33,11 L40,19 L46,31 L47,35 L47,53 L43,64 L37,73 L28,81 L18,86 L9,88 L-2,88 L-14,85 L-23,80 L-31,72 L-37,61 L-38,110 L-18,110 L-19,115 L-35,148 L-38,154 L-41,151 L-58,116 L-58,110 L-39,110 L-39,34 L-35,23 L-29,14 L-20,6 L-11,2 Z M-3,2 L-16,6 L-25,12 L-31,19 L-35,27 L-38,39 L-38,49 L-35,61 L-31,69 L-23,78 L-15,83 L-4,86 L11,86 L23,82 L33,75 L40,66 L44,58 L46,49 L46,40 L43,28 L38,19 L33,13 L24,7 L14,3 L9,2 Z " fill="#000000" transform="translate(58,28)"/>
</svg>
