<?xml version="1.0" encoding="UTF-8"?>
<!-- Generator: visioncortex VTracer 0.6.12 -->
<svg version="1.1" xmlns="http://www.w3.org/2000/svg" width="108" height="109">
<path d="M0,0 L10,0 L22,3 L33,10 L40,17 L45,25 L48,34 L49,40 L49,48 L46,60 L42,68 L33,78 L24,84 L15,87 L2,88 L-9,86 L-19,81 L-29,72 L-36,61 L-39,49 L-39,39 L-36,27 L-30,17 L-21,8 L-9,2 Z M-2,2 L-14,6 L-23,12 L-31,21 L-36,33 L-37,37 L-37,51 L-33,63 L-27,72 L-19,79 L-9,84 L-1,86 L11,86 L24,82 L34,75 L40,68 L45,58 L47,50 L47,38 L43,25 L37,16 L28,8 L16,3 L12,2 Z " fill="#000000" transform="translate(48,7)"/>
</svg>
