<?xml version="1.0" encoding="UTF-8"?>
<!-- Generator: visioncortex VTracer 0.6.12 -->
<svg version="1.1" xmlns="http://www.w3.org/2000/svg" width="115" height="164">
<path d="M0,0 L14,0 L27,4 L37,11 L45,20 L50,32 L51,36 L51,52 L47,63 L41,72 L34,79 L25,84 L16,87 L-2,87 L-14,83 L-23,76 L-29,69 L-33,61 L-34,110 L-14,110 L-17,119 L-34,153 L-36,153 L-55,114 L-56,110 L-36,110 L-36,40 L-33,26 L-26,14 L-18,7 L-8,2 Z M-2,2 L-13,6 L-19,10 L-27,18 L-32,29 L-34,37 L-34,50 L-31,61 L-27,69 L-20,77 L-10,83 L3,86 L12,86 L24,83 L35,76 L43,67 L48,57 L50,43 L48,31 L42,19 L35,11 L25,5 L16,2 Z " fill="#000000" transform="translate(59,6)"/>
</svg>
