<?xml version="1.0" encoding="UTF-8"?>
<!-- Generator: visioncortex VTracer 0.6.12 -->
<svg version="1.1" xmlns="http://www.w3.org/2000/svg" width="154" height="172">
<path d="M0,0 L11,0 L23,3 L32,8 L40,15 L46,25 L50,38 L64,45 L72,54 L76,63 L77,75 L74,87 L68,96 L60,103 L50,107 L33,109 L8,109 L8,145 L18,145 L17,150 L-6,150 L-7,145 L3,145 L2,116 L-3,110 L-34,107 L-46,104 L-55,98 L-61,90 L-65,80 L-65,65 L-60,53 L-51,44 L-44,40 L-38,39 L-37,31 L-33,22 L-29,16 L-24,11 L-16,5 L-6,1 Z M0,5 L-13,9 L-23,16 L-30,26 L-33,35 L-33,42 L-43,45 L-52,51 L-58,60 L-60,66 L-60,79 L-56,89 L-49,97 L-39,101 L-27,103 L-8,104 L-14,97 L-21,90 L-26,84 L-25,81 L-21,83 L-17,87 L-10,80 L-7,83 L-14,90 L-8,97 L-2,104 L3,104 L3,70 L-12,55 L-11,53 L-7,54 L2,63 L3,63 L3,43 L8,43 L8,85 L15,79 L34,60 L37,63 L28,72 L28,74 L45,74 L45,78 L22,78 L8,92 L8,104 L33,104 L50,102 L60,97 L68,88 L71,80 L72,70 L70,61 L64,52 L56,46 L46,42 L42,28 L36,18 L28,11 L20,7 L11,5 Z " fill="#000000" transform="translate(68,8)"/>
</svg>
