<?xml version="1.0" encoding="UTF-8"?>
<!-- Generator: visioncortex VTracer 0.6.12 -->
<svg version="1.1" xmlns="http://www.w3.org/2000/svg" width="145" height="168">
<path d="M0,0 L8,1 L19,8 L32,21 L44,37 L52,50 L60,65 L63,75 L64,83 L64,96 L56,131 L51,141 L42,148 L31,148 L19,147 L13,148 L-7,149 L-15,150 L-24,150 L-28,148 L-46,146 L-53,143 L-57,138 L-57,127 L-59,116 L-61,91 L-60,78 L-55,68 L-44,53 L-28,20 L-21,11 L-13,5 L-4,1 Z M1,5 L-10,9 L-18,15 L-24,23 L-40,56 L-52,72 L-55,79 L-56,84 L-55,102 L-53,121 L-52,134 L-51,139 L-46,141 L-24,143 L-11,91 L-7,91 L-19,140 L-19,144 L-15,144 L0,84 L3,84 L1,95 L-10,140 L-10,144 L-6,143 L10,80 L14,79 L-1,141 L-1,143 L3,143 L18,86 L21,75 L24,74 L23,83 L8,141 L12,142 L16,129 L33,64 L33,62 L37,62 L31,88 L18,137 L18,142 L22,140 L40,70 L43,69 L42,79 L26,141 L30,142 L36,121 L48,73 L48,71 L52,72 L48,90 L35,142 L39,142 L44,124 L57,72 L52,60 L44,46 L34,32 L25,21 L15,11 L5,5 Z M58,85 L45,137 L46,139 L50,133 L54,117 L59,96 L59,85 Z " fill="#000000" transform="translate(67,6)"/>
</svg>
