<?xml version="1.0" encoding="UTF-8"?>
<!-- Generator: visioncortex VTracer 0.6.12 -->
<svg version="1.1" xmlns="http://www.w3.org/2000/svg" width="315" height="294">
<path d="M0,0 L313,0 L313,291 L0,291 Z M1,2 L1,290 L312,290 L312,2 Z " fill="#000000" transform="translate(0,1)"/>
<path d="M0,0 L9,0 L11,2 L12,12 L10,14 L0,14 Z M3,3 L3,6 L8,5 L8,3 Z M3,8 L3,12 L8,11 L8,8 Z " fill="#000000" transform="translate(2,4)"/>
<path d="M0,0 L3,0 L3,9 L5,9 L5,11 L3,11 L3,14 L0,14 L0,11 L-6,11 L-5,7 Z M-1,5 L-3,9 L0,9 Z " fill="#000000" transform="translate(21,4)"/>
<path d="M0,0 L6,0 L8,5 L7,9 L6,10 L0,10 L-3,6 L-2,1 Z M1,2 L1,4 L5,3 Z M1,6 L1,8 L6,7 L6,6 Z " fill="#000000" transform="translate(36,8)"/>
<path d="M0,0 L6,1 L16,8 L24,17 L34,31 L42,46 L44,53 L45,65 L38,94 L32,101 L29,103 L5,103 L-7,104 L-17,104 L-35,101 L-40,96 L-40,88 L-42,73 L-42,54 L-39,48 L-30,35 L-20,14 L-12,5 L-4,1 Z M-2,4 L-11,9 L-17,16 L-28,39 L-38,53 L-39,57 L-38,78 L-36,96 L-33,98 L-17,99 L-8,64 L-5,63 L-14,100 L-11,100 L-7,86 L-1,61 L-1,58 L2,58 L-4,84 L-7,97 L-7,100 L-4,99 L7,56 L9,56 L5,74 L-1,99 L2,99 L14,54 L14,51 L17,51 L6,95 L6,99 L8,99 L12,86 L23,44 L25,44 L23,54 L12,96 L12,98 L15,98 L27,52 L27,48 L30,50 L18,97 L18,99 L21,99 L33,52 L36,49 L31,71 L24,99 L27,99 L39,52 L38,46 L31,33 L21,19 L12,9 L4,4 Z M40,60 L32,91 L33,95 L36,88 L41,66 L41,60 Z M31,95 Z " fill="#000000" transform="translate(225,92)"/>
<path d="M0,0 L3,0 L2,9 L1,16 L1,33 L3,37 L-1,38 L-3,35 L-3,14 L-2,9 L-6,11 L-7,9 Z " fill="#000000" transform="translate(147,110)"/>
<path d="M0,0 L11,0 L22,3 L29,9 L30,15 L25,20 L18,22 L7,22 L8,32 L10,36 L5,35 L4,34 L3,22 L3,19 L3,4 L-1,5 L-2,1 Z M6,4 L6,13 L7,19 L16,19 L25,16 L27,12 L22,7 L14,4 Z " fill="#000000" transform="translate(103,111)"/>
<path d="M0,0 L12,0 L19,4 L23,10 L24,19 L20,27 L15,31 L10,33 L3,33 L-4,30 L-7,27 L-8,39 L4,39 L-5,58 L-9,65 L-12,61 L-22,41 L-22,39 L-11,39 L-11,15 L-8,6 L-2,1 Z M1,2 L-5,6 L-8,11 L-8,21 L-4,27 L1,30 L7,31 L16,28 L20,23 L21,21 L21,11 L14,3 L11,2 Z " fill="#000000" transform="translate(67,135)"/>
<path d="M0,0 L3,0 L4,3 L-1,4 L-7,12 L-8,15 L-8,22 L-4,22 L-5,18 L0,14 L6,14 L7,18 L2,24 L-3,26 L-9,25 L-11,23 L-12,18 L-10,11 L-2,1 Z M0,16 L-3,19 L-2,22 L2,21 L4,19 L4,16 Z " fill="#000000" transform="translate(133,153)"/>
<path d="M0,0 L5,1 L6,6 L4,8 L10,11 L11,16 L6,21 L-1,24 L-6,23 L-7,19 L-5,19 L-5,21 L4,19 L8,15 L7,12 L-5,12 L-5,10 L3,5 L3,3 L-7,4 L-4,1 Z " fill="#000000" transform="translate(107,155)"/>
<path d="M0,0 L3,3 L4,6 L8,2 L13,3 L16,8 L23,2 L28,3 L31,9 L30,18 L28,17 L27,5 L21,6 L17,11 L16,17 L13,17 L13,10 L12,4 L7,6 L4,11 L2,17 L0,17 Z " fill="#000000" transform="translate(144,161)"/>
</svg>
