<?xml version="1.0" encoding="UTF-8"?>
<!-- Generator: visioncortex VTracer 0.6.12 -->
<svg version="1.1" xmlns="http://www.w3.org/2000/svg" width="914" height="1083">
<path d="M0,0 L3,0 L3,761 L612,761 L612,764 L0,764 Z " fill="#000000" transform="translate(302,0)"/>
<path d="M0,0 L5,0 L5,5 L6,6 L13,6 L14,2 L13,0 L18,0 L19,3 L17,7 L18,12 L-6,12 L-6,8 L2,8 L0,5 Z " fill="#000000" transform="translate(432,0)"/>
<path d="M0,0 L2,0 L2,3 L8,0 L11,1 L6,4 L14,7 L16,10 L11,8 L3,6 L2,10 L0,10 Z " fill="#000000" transform="translate(599,0)"/>
<path d="M0,0 L3,1 L1,1 L1,3 L7,2 L9,0 L8,4 L1,6 L6,7 L10,8 L8,9 L1,9 L-2,5 Z " fill="#000000" transform="translate(616,0)"/>
<path d="M0,0 L2,1 L1,3 L4,6 L8,4 L11,0 L11,20 L9,22 L1,22 L-3,19 L-2,17 L2,20 L9,19 L9,7 L2,8 L-1,5 Z " fill="#000000" transform="translate(629,0)"/>
<path d="M0,0 L2,1 L2,7 L7,6 L10,0 L12,1 L12,8 L14,9 L10,8 L8,8 L1,9 L-1,3 Z " fill="#000000" transform="translate(643,0)"/>
<path d="M0,0 L2,0 L2,9 L0,9 Z " fill="#000000" transform="translate(659,0)"/>
<path d="M0,0 L3,1 L-1,4 L0,7 L5,5 L7,1 L8,5 L9,10 L5,8 L4,9 L-2,9 L-3,8 L-2,1 Z " fill="#000000" transform="translate(667,0)"/>
<path d="M0,0 L4,1 L3,10 L1,9 Z " fill="#000000" transform="translate(679,0)"/>
<path d="M0,0 L3,0 L3,9 L-1,9 L-1,1 Z " fill="#000000" transform="translate(440,15)"/>
<path d="M0,0 L27,0 L26,2 L1,2 Z " fill="#000000" transform="translate(518,15)"/>
<path d="M0,0 L4,0 L4,3 L9,4 L8,8 L4,8 L4,18 L0,19 L-13,9 L-15,7 L-14,3 L0,3 Z M-7,8 L-2,13 L0,14 L0,8 Z " fill="#000000" transform="translate(441,26)"/>
<path d="M0,0 L3,0 L3,88 L168,88 L170,84 L174,83 L179,87 L343,88 L343,32 L94,32 L94,29 L343,29 L343,0 L346,0 L346,91 L179,92 L175,97 L172,97 L168,93 L168,91 L1,91 L0,90 Z " fill="#000000" transform="translate(390,0)"/>
<path d="M0,0 L5,1 L8,5 L8,20 L-15,20 L-16,19 L-16,5 L-11,1 L-4,3 Z M-1,6 L-2,7 L-2,15 L4,15 L4,7 Z M-11,7 L-12,8 L-12,15 L-6,15 L-6,9 L-7,7 Z " fill="#000000" transform="translate(442,46)"/>
<path d="M0,0 L7,0 L10,2 L9,6 L4,9 L11,12 L13,15 L4,12 L0,11 L0,15 L-2,15 L-2,5 L-1,3 L1,4 L0,8 L7,5 L7,3 L-2,2 Z " fill="#000000" transform="translate(601,53)"/>
<path d="M0,0 L2,1 L2,8 L3,12 L0,11 L-1,9 L-5,12 L-9,11 L-11,6 L-10,1 L-8,1 L-8,9 L-3,8 L-1,5 Z " fill="#000000" transform="translate(626,56)"/>
<path d="M0,0 L3,3 L5,1 L9,2 L12,5 L10,12 L9,12 L8,3 L4,5 L2,11 L0,11 Z " fill="#000000" transform="translate(639,56)"/>
<path d="M0,0 L3,1 L4,3 L4,11 L3,11 L2,2 L-4,4 L-3,1 Z " fill="#000000" transform="translate(655,57)"/>
<path d="M0,0 L27,0 L26,2 L0,2 Z " fill="#000000" transform="translate(518,59)"/>
<path d="M0,0 L1,0 L1,10 L-7,18 L-16,31 L-24,47 L-29,62 L-31,72 L-32,82 L-32,95 L-29,115 L-24,130 L-16,146 L-7,158 L1,167 L1,176 L-5,172 L-15,161 L-25,146 L-33,129 L-37,116 L-40,97 L-40,80 L-37,61 L-32,45 L-24,29 L-15,16 L-6,6 Z " fill="#000000" transform="translate(913,136)"/>
<path d="M0,0 L5,0 L7,2 L7,46 L51,46 L54,49 L53,56 L50,59 L8,60 L7,101 L3,105 L0,106 L-4,104 L-5,60 L-49,59 L-51,56 L-50,50 L-46,46 L-4,46 L-4,4 Z " fill="#000000" transform="translate(792,163)"/>
<path d="M0,0 L3,0 L3,16 L-4,10 L-6,7 Z " fill="#000000" transform="translate(911,186)"/>
<path d="M0,0 L1,0 L1,16 L-3,18 L-10,11 L-4,4 Z " fill="#000000" transform="translate(913,236)"/>
<path d="M0,0 L99,0 L101,2 L100,9 L95,13 L-1,13 L-4,10 L-3,3 Z " fill="#000000" transform="translate(745,273)"/>
<path d="M0,0 L604,0 L604,3 L3,3 L3,382 L172,382 L172,87 L175,87 L175,382 L345,382 L345,87 L348,87 L348,382 L518,382 L518,87 L520,87 L520,382 L604,382 L604,385 L0,385 Z " fill="#000000" transform="translate(310,371)"/>
<path d="M0,0 L14,0 L18,3 L18,9 L18,13 L19,14 L19,20 L17,23 L14,24 L0,24 L-1,23 L-1,1 Z M4,4 L4,9 L5,10 L12,9 L13,5 L12,4 Z M5,13 L4,14 L4,20 L12,20 L14,19 L13,14 Z " fill="#000000" transform="translate(622,403)"/>
<path d="M0,0 L4,0 L5,2 L5,15 L8,16 L7,19 L5,19 L4,24 L0,23 L0,19 L-10,19 L-11,15 Z M-1,7 L-6,14 L-6,15 L0,15 L0,7 Z " fill="#000000" transform="translate(654,403)"/>
<path d="M0,0 L7,0 L12,5 L11,7 L7,6 L1,4 L1,13 L7,14 L8,11 L12,12 L10,17 L8,18 L-1,18 L-5,14 L-5,5 Z " fill="#000000" transform="translate(680,409)"/>
<path d="M0,0 L8,0 L9,4 L-1,4 Z " fill="#000000" transform="translate(664,416)"/>
<path d="M0,0 L2,0 L3,5 L6,4 L10,6 L11,11 L7,15 L-1,15 L0,9 Z M4,6 L1,13 L5,14 L9,11 L8,6 Z " fill="#000000" transform="translate(872,470)"/>
<path d="M0,0 L1,0 L1,7 L6,5 L10,8 L9,14 L6,16 L-1,16 L-1,13 L-1,2 Z M4,7 L2,9 L1,15 L7,14 L9,9 L7,7 Z " fill="#000000" transform="translate(700,471)"/>
<path d="M0,0 L2,0 L3,4 L0,11 L-4,10 L-8,5 L-7,2 L-2,9 L0,6 Z " fill="#000000" transform="translate(899,474)"/>
<path d="M0,0 L3,0 L4,3 L4,11 L-5,11 L-7,9 L-6,4 Z M-1,2 L-5,5 L-5,9 L1,9 L3,6 L2,2 Z " fill="#000000" transform="translate(910,474)"/>
<path d="M0,0 L5,0 L6,5 L4,6 L3,13 L4,20 L12,21 L12,19 L10,19 L10,17 L14,19 L13,22 L7,23 L2,20 L0,13 L-5,13 L-6,12 L-6,5 Z M1,1 L-4,5 L-5,11 L-1,12 L1,10 L3,1 Z " fill="#000000" transform="translate(752,475)"/>
<path d="M0,0 L2,0 L3,2 L3,10 L1,6 Z " fill="#000000" transform="translate(885,475)"/>
<path d="M0,0 L2,0 L1,9 L0,11 L-4,10 L-8,5 L-9,2 L-7,2 L-3,8 L-2,9 Z " fill="#000000" transform="translate(727,476)"/>
<path d="M0,0 L3,0 L4,9 L4,12 L1,10 L-5,11 L-7,9 L-7,4 L-3,1 Z M-2,2 L-6,6 L-5,9 L0,9 L2,7 L1,2 Z " fill="#000000" transform="translate(738,476)"/>
<path d="M0,0 L1,3 L1,8 L3,9 L8,4 L9,0 L11,0 L11,10 L13,11 L9,10 L8,8 L5,11 L0,10 L-1,9 L-1,1 Z " fill="#000000" transform="translate(762,476)"/>
<path d="M0,0 L6,0 L7,4 L3,7 L-1,8 L8,8 L8,10 L0,11 L-4,7 L-3,3 Z M3,1 L-2,4 L-2,6 L4,5 L4,1 Z " fill="#000000" transform="translate(780,476)"/>
<path d="M0,0 L5,0 L2,2 L0,2 L0,10 L-2,12 L-3,11 L-4,3 Z " fill="#000000" transform="translate(529,477)"/>
<path d="M0,0 L5,1 L4,6 L-3,7 L-3,9 L6,9 L5,11 L-3,11 L-5,9 L-4,2 Z M-1,2 L-4,6 L3,5 L4,2 Z " fill="#000000" transform="translate(541,477)"/>
<path d="M0,0 L1,0 L1,7 L2,9 L6,8 L8,5 L9,0 L11,0 L11,10 L13,11 L10,11 L10,8 L6,11 L0,11 L-1,9 L-1,2 Z " fill="#000000" transform="translate(550,477)"/>
<path d="M0,0 L6,1 L9,5 L9,11 L7,11 L6,4 L5,3 L-1,3 L-2,10 L-4,11 L-5,3 Z " fill="#000000" transform="translate(570,477)"/>
<path d="M0,0 L3,1 L4,7 L5,12 L1,10 L0,11 L-6,11 L-8,6 L-4,2 Z M-1,2 L-6,6 L-6,9 L-1,10 L2,7 L1,2 Z " fill="#000000" transform="translate(595,477)"/>
<path d="M0,0 L5,1 L8,4 L8,9 L6,10 L5,4 L2,2 L-2,3 L-3,9 L-4,9 L-3,2 Z " fill="#000000" transform="translate(606,477)"/>
<path d="M0,0 L2,1 L3,10 L1,9 Z " fill="#000000" transform="translate(713,477)"/>
<path d="M0,0 L3,1 L4,7 L5,12 L1,10 L0,11 L-6,11 L-8,6 L-4,2 Z M-1,2 L-6,5 L-6,9 L-2,10 L2,7 L1,2 Z " fill="#000000" transform="translate(363,479)"/>
<path d="M0,0 L6,1 L5,5 L3,7 L-2,8 L3,9 L7,10 L5,11 L-2,11 L-5,8 L-4,3 Z M0,2 L-3,4 L-3,6 L3,5 L4,2 Z " fill="#000000" transform="translate(390,479)"/>
<path d="M0,0 L7,1 L10,5 L9,11 L8,11 L7,4 L2,2 L-1,4 L-2,11 L-4,10 L-4,3 Z " fill="#000000" transform="translate(403,479)"/>
<path d="M0,0 L6,0 L7,2 L0,2 L0,4 L6,5 L7,10 L6,11 L-1,11 L-2,9 L5,9 L4,7 L-2,5 L-1,1 Z " fill="#000000" transform="translate(431,479)"/>
<path d="M0,0 L7,2 L9,7 L6,10 L0,11 L1,19 L-1,19 L-1,12 L-4,12 L-4,10 L-2,10 L-3,3 L-5,2 Z M-2,2 L-1,9 L1,10 L7,7 L5,3 L4,2 Z " fill="#000000" transform="translate(375,479)"/>
<path d="M0,0 L2,0 L2,3 L4,3 L4,10 L5,12 L-1,11 L-6,11 L-8,9 L-7,4 L-3,1 Z M-1,2 L-6,5 L-6,9 L-2,10 L2,6 L2,3 Z " fill="#000000" transform="translate(422,479)"/>
<path d="M0,0 L2,3 L3,8 L3,15 L1,15 Z " fill="#000000" transform="translate(607,496)"/>
<path d="M0,0 L5,1 L4,6 L-3,8 L3,9 L6,10 L5,11 L-3,11 L-6,7 L-4,2 Z M-1,2 L-4,6 L3,5 L3,2 Z " fill="#000000" transform="translate(880,496)"/>
<path d="M0,0 L5,0 L6,2 L0,2 L-1,12 L-3,11 L-4,3 Z " fill="#000000" transform="translate(903,496)"/>
<path d="M0,0 L2,1 L-1,4 L-2,7 L2,9 L-3,8 L-4,4 Z " fill="#000000" transform="translate(912,498)"/>
<path d="M0,0 L5,1 L5,2 L0,3 L-1,11 L-4,11 L-4,3 Z " fill="#000000" transform="translate(558,499)"/>
<path d="M0,0 L6,0 L7,3 L4,6 L-1,8 L8,8 L7,10 L0,11 L-4,8 L-4,3 Z M1,1 L-2,3 L-2,5 L3,5 L5,2 Z " fill="#000000" transform="translate(533,500)"/>
<path d="M0,0 L4,0 L6,5 L6,11 L2,10 L-3,11 L-6,9 L-6,4 Z M-1,2 L-5,6 L-4,9 L1,9 L3,7 L4,2 Z " fill="#000000" transform="translate(569,500)"/>
<path d="M0,0 L7,0 L11,4 L10,8 L4,11 L3,18 L1,14 L1,11 L-2,10 L0,10 L-2,1 Z M2,1 L-1,3 L1,3 L2,9 L8,8 L9,4 L7,2 Z " fill="#000000" transform="translate(580,500)"/>
<path d="M0,0 L6,0 L7,3 L4,6 L-1,8 L8,8 L7,10 L0,11 L-4,8 L-4,3 Z M1,1 L-2,3 L-2,5 L3,5 L5,2 Z " fill="#000000" transform="translate(597,500)"/>
<path d="M0,0 L5,1 L2,2 L-1,5 L-1,11 L-4,11 L-4,3 L-2,3 L-2,1 Z " fill="#000000" transform="translate(357,501)"/>
<path d="M0,0 L1,0 L1,10 L3,10 L3,12 L0,11 L0,8 L-2,8 L-2,10 L-8,12 L-11,9 L-11,3 L-10,1 L-8,2 L-9,10 L-3,9 Z " fill="#000000" transform="translate(387,501)"/>
<path d="M0,0 L6,1 L9,5 L9,11 L7,11 L6,4 L-1,3 L-2,11 L-4,11 L-5,3 Z " fill="#000000" transform="translate(397,501)"/>
<path d="M0,0 L4,1 L7,4 L7,10 L4,12 L-2,12 L-5,9 L-5,4 Z M-1,2 L-4,5 L-3,10 L3,11 L6,9 L5,4 L3,2 Z " fill="#000000" transform="translate(434,501)"/>
<path d="M0,0 L4,1 L5,4 L2,7 L-2,9 L6,9 L5,11 L-4,11 L-6,9 L-6,4 L-3,1 Z M-1,2 L-4,4 L-4,6 L1,6 L3,2 Z " fill="#000000" transform="translate(369,501)"/>
<path d="M0,0 L3,3 L3,10 L4,12 L-1,11 L-5,12 L-9,8 L-6,3 Z M-1,2 L-7,6 L-6,10 L0,9 L2,3 Z " fill="#000000" transform="translate(423,501)"/>
<path d="M0,0 L2,0 L2,2 L-30,17 L-46,24 L-48,24 L-48,22 L-9,4 Z " fill="#000000" transform="translate(912,532)"/>
<path d="M0,0 L7,1 L43,17 L54,22 L54,24 L45,21 L16,8 L4,3 L-2,4 L-41,22 L-49,25 L-50,23 L-18,8 Z " fill="#000000" transform="translate(740,535)"/>
<path d="M0,0 L19,0 L32,4 L42,10 L50,17 L57,27 L62,40 L63,45 L63,61 L59,75 L52,86 L48,91 L36,100 L23,105 L18,106 L1,106 L-11,103 L-22,97 L-30,90 L-37,79 L-40,72 L-41,134 L-16,134 L-18,140 L-32,168 L-41,187 L-44,184 L-64,143 L-68,134 L-43,134 L-43,48 L-40,34 L-33,20 L-25,11 L-14,4 Z M0,2 L-13,6 L-23,12 L-30,19 L-37,31 L-41,47 L-41,59 L-37,75 L-30,87 L-23,94 L-13,100 L-4,103 L1,104 L18,104 L31,100 L40,95 L50,86 L58,72 L61,61 L61,45 L57,32 L52,23 L43,13 L32,6 L19,2 Z " fill="#000000" transform="translate(561,561)"/>
<path d="M0,0 L1,2 L-9,4 L-21,8 L-30,14 L-37,21 L-44,35 L-47,49 L-47,59 L-44,73 L-38,85 L-32,92 L-23,98 L-14,102 L1,105 L1,107 L-10,106 L-22,102 L-32,95 L-39,88 L-45,78 L-47,73 L-48,134 L-23,134 L-24,139 L-42,175 L-48,187 L-51,184 L-69,148 L-74,137 L-74,134 L-50,134 L-50,49 L-47,35 L-43,26 L-37,17 L-27,8 L-16,3 L-9,1 Z " fill="#000000" transform="translate(913,562)"/>
<path d="M0,0 L18,0 L31,4 L43,11 L51,19 L57,28 L61,39 L62,43 L62,63 L58,75 L52,85 L44,94 L33,101 L22,105 L17,106 L1,106 L-13,102 L-24,95 L-34,85 L-39,77 L-43,66 L-44,61 L-44,45 L-41,34 L-36,24 L-28,14 L-17,6 L-5,1 Z M0,2 L-13,6 L-24,13 L-31,20 L-37,30 L-41,40 L-42,45 L-42,61 L-38,74 L-32,84 L-25,92 L-14,99 L-4,103 L1,104 L18,104 L31,100 L42,93 L50,85 L57,73 L60,63 L60,43 L56,31 L50,21 L41,12 L31,6 L18,2 Z " fill="#000000" transform="translate(388,565)"/>
<path d="M0,0 L13,0 L25,3 L35,8 L45,16 L53,27 L58,39 L60,55 L58,68 L53,80 L46,89 L39,96 L27,103 L17,106 L5,107 L-9,105 L-25,97 L-35,88 L-42,77 L-46,66 L-47,60 L-47,46 L-44,34 L-38,23 L-29,13 L-19,6 L-6,1 Z M0,2 L-12,5 L-22,10 L-32,19 L-39,28 L-44,41 L-45,46 L-45,61 L-41,74 L-35,85 L-26,94 L-14,101 L-4,104 L9,105 L21,103 L31,99 L42,91 L50,81 L55,71 L57,64 L58,51 L56,39 L51,27 L44,18 L35,10 L22,4 L13,2 Z " fill="#000000" transform="translate(736,566)"/>
<path d="M0,0 L3,0 L1,4 L-3,6 L-1,1 Z " fill="#000000" transform="translate(341,894)"/>
<path d="M0,0 L3,0 L3,30 L-1,29 L-5,31 L-11,30 L-16,24 L-16,15 L-13,10 L-10,8 L-4,8 L-1,10 Z M-8,10 L-13,15 L-13,23 L-11,27 L-4,28 L-1,25 L0,23 L0,16 L-3,11 Z " fill="#000000" transform="translate(369,894)"/>
<path d="M0,0 L2,0 L2,6 L6,7 L6,9 L2,9 L2,26 L6,26 L6,28 L0,28 L-1,27 L-1,9 L-4,9 L-4,6 L-1,6 L-1,1 Z " fill="#000000" transform="translate(560,896)"/>
<path d="M0,0 L7,0 L12,4 L12,7 L9,7 L5,3 L0,4 L-2,7 L-2,15 L-1,19 L6,19 L10,15 L13,16 L10,21 L5,23 L-1,22 L-6,16 L-6,7 L-2,1 Z " fill="#000000" transform="translate(315,902)"/>
<path d="M0,0 L7,0 L12,5 L13,7 L13,15 L10,20 L5,23 L-2,22 L-6,17 L-7,9 L-4,2 Z M2,2 L-2,4 L-4,9 L-3,17 L0,20 L6,20 L9,17 L10,15 L10,8 L7,3 Z " fill="#000000" transform="translate(337,902)"/>
<path d="M0,0 L2,0 L3,2 L6,0 L13,0 L18,5 L19,12 L17,19 L14,22 L8,23 L4,21 L3,30 L0,30 Z M8,2 L3,6 L2,12 L4,18 L6,20 L12,20 L15,17 L16,10 L13,3 Z " fill="#000000" transform="translate(505,902)"/>
<path d="M0,0 L3,1 L3,22 L0,22 Z " fill="#000000" transform="translate(528,902)"/>
<path d="M0,0 L7,0 L12,4 L12,7 L9,7 L5,3 L0,4 L-2,7 L-2,15 L-1,19 L6,19 L10,15 L13,16 L10,21 L5,23 L-1,22 L-6,16 L-6,7 L-2,1 Z " fill="#000000" transform="translate(541,902)"/>
<path d="M0,0 L7,0 L12,5 L13,7 L13,15 L10,20 L5,23 L-2,22 L-6,17 L-7,9 L-4,2 Z M2,2 L-2,4 L-4,9 L-3,17 L0,20 L6,20 L9,17 L10,15 L10,8 L7,3 Z " fill="#000000" transform="translate(575,902)"/>
<path d="M0,0 L6,0 L9,2 L10,0 L13,1 L13,23 L10,29 L6,31 L0,31 L-5,26 L-2,25 L0,27 L7,27 L9,23 L9,20 L7,22 L-1,22 L-6,16 L-6,7 L-3,2 Z M2,2 L-3,7 L-3,15 L1,20 L6,20 L9,17 L10,8 L7,3 Z " fill="#000000" transform="translate(597,902)"/>
<path d="M0,0 L3,1 L10,0 L10,3 L4,5 L3,7 L2,22 L-1,22 L-1,1 Z " fill="#000000" transform="translate(616,902)"/>
<path d="M0,0 L7,0 L11,3 L12,22 L9,22 L8,20 L6,22 L0,23 L-5,20 L-6,15 L-1,10 L8,9 L7,4 L2,3 L-1,3 L-2,6 L-5,6 L-3,2 Z M6,11 L-1,13 L-3,15 L-2,19 L-1,20 L6,19 L8,17 L8,11 Z " fill="#000000" transform="translate(634,902)"/>
<path d="M0,0 L2,0 L3,2 L5,0 L11,0 L15,2 L18,0 L24,0 L27,3 L27,22 L25,22 L24,6 L21,3 L16,5 L15,22 L12,22 L11,3 L5,4 L3,7 L2,22 L-1,22 L-1,1 Z " fill="#000000" transform="translate(652,902)"/>
<path d="M0,0 L8,0 L11,2 L12,5 L13,22 L8,21 L3,23 L-2,22 L-5,19 L-4,12 L5,9 L9,9 L8,3 L2,3 L-1,6 L-4,6 L-3,2 Z M6,11 L-2,14 L-2,19 L-1,20 L5,20 L9,16 L9,11 Z " fill="#000000" transform="translate(689,902)"/>
<path d="M0,0 L7,0 L11,3 L10,6 L4,3 L0,4 L-1,8 L10,11 L12,14 L11,20 L5,23 L-1,22 L-4,19 L-4,16 L-1,17 L-1,19 L7,19 L8,15 L5,13 L-2,11 L-4,9 L-3,2 Z " fill="#000000" transform="translate(897,902)"/>
<path d="M0,0 L1,0 L1,21 L0,21 Z " fill="#000000" transform="translate(913,903)"/>
<path d="M0,0 L4,0 L4,4 L0,4 Z " fill="#000000" transform="translate(378,920)"/>
<path d="M0,0 L15,0 L20,4 L21,9 L19,15 L22,18 L22,25 L18,29 L16,30 L-1,30 L-1,1 Z M4,4 L4,12 L15,12 L16,11 L16,6 L13,4 Z M4,17 L4,26 L15,26 L17,24 L17,18 L15,17 Z " fill="#000000" transform="translate(311,961)"/>
<path d="M0,0 L4,0 L4,19 L8,19 L8,23 L4,23 L4,30 L0,30 L0,23 L-13,23 L-12,17 Z M-1,8 L-8,18 L-8,19 L0,19 L0,8 Z " fill="#000000" transform="translate(348,961)"/>
<path d="M0,0 L4,0 L4,30 L0,30 Z " fill="#000000" transform="translate(527,961)"/>
<path d="M0,0 L4,0 L3,5 L0,5 Z " fill="#000000" transform="translate(598,961)"/>
<path d="M0,0 L8,0 L8,3 L3,4 L2,8 L6,8 L6,12 L2,12 L2,30 L-2,30 L-2,12 L-5,12 L-5,8 L-2,8 L-2,2 Z " fill="#000000" transform="translate(610,961)"/>
<path d="M0,0 L4,0 L3,5 L0,5 Z " fill="#000000" transform="translate(619,961)"/>
<path d="M0,0 L6,1 L9,2 L9,0 L12,0 L11,4 L10,5 L2,4 L-2,5 L-1,1 Z " fill="#000000" transform="translate(696,961)"/>
<path d="M0,0 L4,0 L4,30 L-1,29 L-4,31 L-11,30 L-15,26 L-16,24 L-16,14 L-11,8 L-3,8 L-1,9 L-1,1 Z M-8,11 L-12,15 L-12,23 L-9,27 L-3,27 L0,22 L-1,14 L-5,11 Z " fill="#000000" transform="translate(764,961)"/>
<path d="M0,0 L9,0 L12,3 L13,5 L14,22 L9,22 L7,22 L0,23 L-4,21 L-5,19 L-5,13 L-1,10 L8,7 L8,4 L0,4 L-1,7 L-5,7 L-3,2 Z M5,12 L0,14 L-1,18 L0,19 L6,19 L8,17 L9,12 Z " fill="#000000" transform="translate(378,969)"/>
<path d="M0,0 L9,0 L13,4 L14,7 L10,8 L6,4 L1,5 L-1,12 L1,17 L2,18 L9,18 L10,14 L14,14 L13,19 L7,23 L-1,22 L-5,17 L-6,8 L-3,2 Z " fill="#000000" transform="translate(509,969)"/>
<path d="M0,0 L9,0 L12,3 L13,5 L14,22 L9,22 L7,22 L0,23 L-4,21 L-5,19 L-5,13 L-1,10 L8,7 L8,4 L0,4 L-1,7 L-5,7 L-3,2 Z M5,12 L0,14 L-1,18 L0,19 L6,19 L8,17 L9,12 Z " fill="#000000" transform="translate(540,969)"/>
<path d="M0,0 L8,0 L12,5 L8,7 L7,4 L0,4 L0,8 L10,10 L13,15 L11,20 L7,23 L1,23 L-4,20 L-5,15 L0,16 L1,18 L7,18 L8,14 L-1,12 L-4,10 L-4,3 Z " fill="#000000" transform="translate(561,969)"/>
<path d="M0,0 L8,0 L12,5 L8,7 L7,4 L0,4 L0,8 L10,10 L13,15 L11,20 L7,23 L1,23 L-4,20 L-5,15 L0,16 L1,18 L7,18 L8,14 L-1,12 L-4,10 L-4,3 Z " fill="#000000" transform="translate(581,969)"/>
<path d="M0,0 L4,0 L4,22 L0,22 Z " fill="#000000" transform="translate(598,969)"/>
<path d="M0,0 L4,0 L4,22 L0,22 Z " fill="#000000" transform="translate(619,969)"/>
<path d="M0,0 L9,0 L13,4 L14,7 L10,8 L6,4 L1,5 L-1,12 L1,17 L2,18 L9,18 L10,14 L14,14 L13,19 L7,23 L-1,22 L-5,17 L-6,8 L-3,2 Z " fill="#000000" transform="translate(632,969)"/>
<path d="M0,0 L9,0 L13,3 L14,22 L9,21 L5,23 L-2,22 L-5,18 L-4,12 L2,9 L8,8 L7,4 L1,5 L0,7 L-4,7 L-3,3 Z M6,12 L0,14 L0,19 L6,19 L9,16 L9,12 Z " fill="#000000" transform="translate(653,969)"/>
<path d="M0,0 L8,0 L13,4 L13,7 L8,6 L8,4 L2,4 L-1,7 L-1,15 L1,18 L7,18 L9,14 L13,14 L12,19 L9,22 L6,23 L8,25 L7,30 L5,31 L-1,31 L-1,28 L4,28 L4,26 L1,25 L1,23 L-4,20 L-6,16 L-6,6 L-2,1 Z " fill="#000000" transform="translate(676,969)"/>
<path d="M0,0 L9,0 L12,3 L13,5 L14,22 L9,22 L7,22 L0,23 L-4,21 L-5,19 L-5,13 L-1,10 L8,7 L8,4 L0,4 L-1,7 L-5,7 L-3,2 Z M5,12 L0,14 L-1,18 L0,19 L6,19 L8,17 L9,12 Z " fill="#000000" transform="translate(697,969)"/>
<path d="M0,0 L9,0 L14,5 L15,8 L15,15 L12,20 L7,23 L-1,22 L-5,17 L-6,15 L-6,8 L-3,2 Z M3,3 L-1,6 L-2,12 L0,18 L7,19 L10,16 L11,10 L9,5 L6,3 Z " fill="#000000" transform="translate(719,969)"/>
<path d="M0,0 L9,0 L14,5 L15,8 L15,15 L12,20 L7,23 L-1,22 L-5,17 L-6,15 L-6,8 L-3,2 Z M3,3 L-1,6 L-2,12 L0,18 L7,19 L10,16 L11,10 L9,5 L6,3 Z " fill="#000000" transform="translate(777,969)"/>
<path d="M0,0 L7,0 L11,4 L11,11 L6,15 L-1,14 L-4,10 L-4,4 Z " fill="#000000" transform="translate(897,973)"/>
<path d="M0,0 L11,0 L11,4 L0,4 Z " fill="#000000" transform="translate(359,978)"/>
<path d="M0,0 L4,0 L3,5 L0,5 Z " fill="#000000" transform="translate(517,1001)"/>
<path d="M0,0 L4,0 L4,30 L-1,29 L-4,31 L-11,30 L-15,26 L-16,24 L-16,14 L-11,8 L-3,8 L-1,9 L-1,1 Z M-8,11 L-12,15 L-12,23 L-9,27 L-3,27 L0,22 L-1,14 L-5,11 Z " fill="#000000" transform="translate(599,1001)"/>
<path d="M0,0 L4,0 L4,30 L-2,30 L-8,31 L-13,28 L-16,22 L-15,13 L-10,8 L-3,8 L-1,9 Z M-8,11 L-11,14 L-12,20 L-10,26 L-3,27 L0,24 L0,15 L-4,11 Z " fill="#000000" transform="translate(738,1001)"/>
<path d="M0,0 L1,0 L1,7 L5,7 L5,11 L1,11 L2,25 L6,27 L6,29 L2,30 L-3,27 L-3,11 L-6,10 L-6,7 L-3,7 L-3,2 Z " fill="#000000" transform="translate(508,1002)"/>
<path d="M0,0 L4,0 L4,22 L0,22 Z " fill="#000000" transform="translate(517,1009)"/>
<path d="M0,0 L5,1 L7,0 L14,0 L19,5 L20,7 L20,16 L17,21 L13,23 L6,22 L5,21 L4,30 L0,30 Z M8,3 L5,6 L4,8 L5,17 L7,19 L13,19 L16,14 L15,6 L11,3 Z " fill="#000000" transform="translate(526,1009)"/>
<path d="M0,0 L9,0 L14,5 L15,8 L15,15 L12,20 L7,23 L-1,22 L-5,17 L-6,15 L-6,8 L-3,2 Z M3,3 L-1,6 L-2,12 L0,18 L7,19 L10,16 L11,10 L9,5 L6,3 Z " fill="#000000" transform="translate(554,1009)"/>
<path d="M0,0 L9,0 L12,3 L13,5 L14,22 L9,22 L7,22 L0,23 L-4,21 L-5,19 L-5,13 L-1,10 L8,7 L8,4 L0,4 L-1,7 L-5,7 L-3,2 Z M5,12 L0,14 L-1,18 L0,19 L6,19 L8,17 L9,12 Z " fill="#000000" transform="translate(612,1009)"/>
<path d="M0,0 L5,1 L6,0 L14,0 L19,6 L20,13 L17,20 L12,23 L5,22 L4,30 L0,30 Z M8,3 L4,6 L4,16 L7,19 L12,19 L15,16 L15,7 L11,3 Z " fill="#000000" transform="translate(642,1009)"/>
<path d="M0,0 L9,0 L12,3 L13,5 L14,22 L9,22 L7,22 L0,23 L-4,21 L-5,19 L-5,13 L-1,10 L8,7 L8,4 L0,4 L-1,7 L-5,7 L-3,2 Z M5,12 L0,14 L-1,18 L0,19 L6,19 L8,17 L9,12 Z " fill="#000000" transform="translate(669,1009)"/>
<path d="M0,0 L5,1 L6,0 L12,0 L12,4 L5,6 L4,22 L0,22 Z " fill="#000000" transform="translate(687,1009)"/>
<path d="M0,0 L9,0 L12,3 L13,5 L14,22 L9,22 L7,22 L0,23 L-4,21 L-5,19 L-5,13 L-1,10 L8,7 L8,4 L0,4 L-1,7 L-5,7 L-3,2 Z M5,12 L0,14 L-1,18 L0,19 L6,19 L8,17 L9,12 Z " fill="#000000" transform="translate(706,1009)"/>
<path d="M0,0 L9,0 L13,3 L14,22 L9,21 L5,23 L-2,22 L-5,18 L-4,12 L2,9 L8,8 L7,4 L1,5 L0,7 L-4,7 L-3,3 Z M6,12 L0,14 L0,19 L6,19 L9,16 L9,12 Z " fill="#000000" transform="translate(751,1009)"/>
<path d="M0,0 L7,0 L11,4 L11,11 L6,15 L-1,14 L-4,10 L-4,4 Z " fill="#000000" transform="translate(897,1027)"/>
<path d="M0,0 L7,0 L9,3 L-2,3 Z " fill="#000000" transform="translate(897,1080)"/>
</svg>
