<?xml version="1.0" encoding="UTF-8"?>
<!-- Generator: visioncortex VTracer 0.6.12 -->
<svg version="1.1" xmlns="http://www.w3.org/2000/svg" width="109" height="122">
<path d="M0,0 L7,0 L17,3 L23,7 L28,12 L32,19 L35,27 L43,31 L50,39 L53,49 L51,60 L45,69 L37,74 L25,76 L5,76 L5,101 L12,101 L11,104 L-5,104 L-6,101 L1,101 L0,80 L-3,77 L-29,74 L-37,70 L-44,62 L-46,56 L-46,45 L-41,35 L-34,29 L-27,27 L-26,20 L-22,12 L-13,4 L-6,1 Z M-3,4 L-12,8 L-19,14 L-23,22 L-24,30 L-33,33 L-39,38 L-42,44 L-43,52 L-40,62 L-32,69 L-25,71 L-18,72 L-7,72 L-13,65 L-19,58 L-16,56 L-14,60 L-10,58 L-7,56 L-7,59 L-10,62 L-8,66 L-1,73 L1,73 L1,49 L-9,39 L-7,37 L0,44 L1,44 L1,30 L5,30 L5,59 L12,53 L23,42 L24,45 L19,51 L30,51 L30,55 L14,55 L5,64 L5,73 L29,72 L39,69 L45,64 L49,55 L49,46 L45,38 L38,32 L31,29 L28,18 L23,11 L13,5 L9,4 Z " fill="#000000" transform="translate(51,6)"/>
<path d="M0,0 L2,2 L3,5 L3,12 L2,14 L0,14 Z " fill="#000000" transform="translate(0,80)"/>
</svg>
