<?xml version="1.0" encoding="UTF-8"?>
<!-- Generator: visioncortex VTracer 0.6.12 -->
<svg version="1.1" xmlns="http://www.w3.org/2000/svg" width="914" height="1084">
<path d="M0,0 L14,0 L11,3 L5,4 L0,1 Z " fill="#000000" transform="translate(312,0)"/>
<path d="M0,0 L14,0 L12,3 L5,4 L0,1 Z " fill="#000000" transform="translate(333,0)"/>
<path d="M0,0 L16,0 L16,3 L12,2 L8,4 L2,3 Z " fill="#000000" transform="translate(356,0)"/>
<path d="M0,0 L16,0 L14,3 L8,4 L4,2 L3,11 L0,11 Z " fill="#000000" transform="translate(505,0)"/>
<path d="M0,0 L14,0 L11,3 L5,4 L0,1 Z " fill="#000000" transform="translate(538,0)"/>
<path d="M0,0 L7,1 L7,3 L1,3 Z " fill="#000000" transform="translate(559,0)"/>
<path d="M0,0 L14,0 L12,3 L5,4 L0,1 Z " fill="#000000" transform="translate(571,0)"/>
<path d="M0,0 L12,0 L10,3 L2,3 Z " fill="#000000" transform="translate(594,0)"/>
<path d="M0,0 L3,0 L2,7 L-1,11 L-10,12 L-15,7 L-12,6 L-10,8 L-3,8 Z " fill="#000000" transform="translate(607,0)"/>
<path d="M0,0 L13,0 L11,3 L5,4 L0,1 Z " fill="#000000" transform="translate(629,0)"/>
<path d="M0,0 L16,0 L17,3 L12,2 L7,4 L2,3 L0,2 Z " fill="#000000" transform="translate(685,0)"/>
<path d="M0,0 L14,0 L11,3 L5,4 L0,1 Z " fill="#000000" transform="translate(894,0)"/>
<path d="M0,0 L15,0 L20,4 L21,9 L19,15 L22,18 L22,25 L18,29 L16,30 L-1,30 L-1,1 Z M4,4 L4,12 L15,12 L16,11 L16,6 L13,4 Z M4,17 L4,26 L15,26 L17,24 L17,18 L15,17 Z " fill="#000000" transform="translate(311,40)"/>
<path d="M0,0 L4,0 L4,19 L8,19 L8,23 L4,23 L4,30 L0,30 L0,23 L-13,23 L-12,17 Z M-1,8 L-8,18 L-8,19 L0,19 L0,8 Z " fill="#000000" transform="translate(348,40)"/>
<path d="M0,0 L4,0 L4,30 L0,30 Z " fill="#000000" transform="translate(527,40)"/>
<path d="M0,0 L4,0 L3,5 L0,5 Z " fill="#000000" transform="translate(598,40)"/>
<path d="M0,0 L8,0 L8,3 L3,4 L2,8 L6,8 L6,12 L2,12 L2,30 L-2,30 L-2,12 L-5,12 L-5,8 L-2,8 L-2,2 Z " fill="#000000" transform="translate(610,40)"/>
<path d="M0,0 L4,0 L3,5 L0,5 Z " fill="#000000" transform="translate(619,40)"/>
<path d="M0,0 L6,1 L9,2 L9,0 L12,0 L11,4 L10,5 L2,4 L-2,5 L-1,1 Z " fill="#000000" transform="translate(696,40)"/>
<path d="M0,0 L4,0 L4,30 L-1,29 L-4,31 L-11,30 L-15,26 L-16,24 L-16,14 L-11,8 L-3,8 L-1,9 L-1,1 Z M-8,11 L-12,15 L-12,23 L-9,27 L-3,27 L0,22 L-1,14 L-5,11 Z " fill="#000000" transform="translate(764,40)"/>
<path d="M0,0 L9,0 L12,3 L13,5 L14,22 L9,22 L7,22 L0,23 L-4,21 L-5,19 L-5,13 L-1,10 L8,7 L8,4 L0,4 L-1,7 L-5,7 L-3,2 Z M5,12 L0,14 L-1,18 L0,19 L6,19 L8,17 L9,12 Z " fill="#000000" transform="translate(378,48)"/>
<path d="M0,0 L9,0 L13,4 L14,7 L10,8 L6,4 L1,5 L-1,12 L1,17 L2,18 L9,18 L10,14 L14,14 L13,19 L7,23 L-1,22 L-5,17 L-6,8 L-3,2 Z " fill="#000000" transform="translate(509,48)"/>
<path d="M0,0 L9,0 L12,3 L13,5 L14,22 L9,22 L7,22 L0,23 L-4,21 L-5,19 L-5,13 L-1,10 L8,7 L8,4 L0,4 L-1,7 L-5,7 L-3,2 Z M5,12 L0,14 L-1,18 L0,19 L6,19 L8,17 L9,12 Z " fill="#000000" transform="translate(540,48)"/>
<path d="M0,0 L8,0 L12,5 L8,7 L7,4 L0,4 L0,8 L10,10 L13,15 L11,20 L7,23 L1,23 L-4,20 L-5,15 L0,16 L1,18 L7,18 L8,14 L-1,12 L-4,10 L-4,3 Z " fill="#000000" transform="translate(561,48)"/>
<path d="M0,0 L8,0 L12,5 L8,7 L7,4 L0,4 L0,8 L10,10 L13,15 L11,20 L7,23 L1,23 L-4,20 L-5,15 L0,16 L1,18 L7,18 L8,14 L-1,12 L-4,10 L-4,3 Z " fill="#000000" transform="translate(581,48)"/>
<path d="M0,0 L4,0 L4,22 L0,22 Z " fill="#000000" transform="translate(598,48)"/>
<path d="M0,0 L4,0 L4,22 L0,22 Z " fill="#000000" transform="translate(619,48)"/>
<path d="M0,0 L9,0 L13,4 L14,7 L10,8 L6,4 L1,5 L-1,12 L1,17 L2,18 L9,18 L10,14 L14,14 L13,19 L7,23 L-1,22 L-5,17 L-6,8 L-3,2 Z " fill="#000000" transform="translate(632,48)"/>
<path d="M0,0 L9,0 L13,3 L14,22 L9,21 L5,23 L-2,22 L-5,18 L-4,12 L2,9 L8,8 L7,4 L1,5 L0,7 L-4,7 L-3,3 Z M6,12 L0,14 L0,19 L6,19 L9,16 L9,12 Z " fill="#000000" transform="translate(653,48)"/>
<path d="M0,0 L8,0 L13,4 L13,7 L8,6 L8,4 L2,4 L-1,7 L-1,15 L1,18 L7,18 L9,14 L13,14 L12,19 L9,22 L6,23 L8,25 L7,30 L5,31 L-1,31 L-1,28 L4,28 L4,26 L1,25 L1,23 L-4,20 L-6,16 L-6,6 L-2,1 Z " fill="#000000" transform="translate(676,48)"/>
<path d="M0,0 L9,0 L12,3 L13,5 L14,22 L9,22 L7,22 L0,23 L-4,21 L-5,19 L-5,13 L-1,10 L8,7 L8,4 L0,4 L-1,7 L-5,7 L-3,2 Z M5,12 L0,14 L-1,18 L0,19 L6,19 L8,17 L9,12 Z " fill="#000000" transform="translate(697,48)"/>
<path d="M0,0 L9,0 L14,5 L15,8 L15,15 L12,20 L7,23 L-1,22 L-5,17 L-6,15 L-6,8 L-3,2 Z M3,3 L-1,6 L-2,12 L0,18 L7,19 L10,16 L11,10 L9,5 L6,3 Z " fill="#000000" transform="translate(719,48)"/>
<path d="M0,0 L9,0 L14,5 L15,8 L15,15 L12,20 L7,23 L-1,22 L-5,17 L-6,15 L-6,8 L-3,2 Z M3,3 L-1,6 L-2,12 L0,18 L7,19 L10,16 L11,10 L9,5 L6,3 Z " fill="#000000" transform="translate(777,48)"/>
<path d="M0,0 L7,0 L11,4 L11,11 L6,15 L-1,14 L-4,10 L-4,4 Z " fill="#000000" transform="translate(897,52)"/>
<path d="M0,0 L11,0 L11,4 L0,4 Z " fill="#000000" transform="translate(359,57)"/>
<path d="M0,0 L4,0 L3,5 L0,5 Z " fill="#000000" transform="translate(517,80)"/>
<path d="M0,0 L4,0 L4,30 L-1,29 L-4,31 L-11,30 L-15,26 L-16,24 L-16,14 L-11,8 L-3,8 L-1,9 L-1,1 Z M-8,11 L-12,15 L-12,23 L-9,27 L-3,27 L0,22 L-1,14 L-5,11 Z " fill="#000000" transform="translate(599,80)"/>
<path d="M0,0 L4,0 L4,30 L-2,30 L-8,31 L-13,28 L-16,22 L-15,13 L-10,8 L-3,8 L-1,9 Z M-8,11 L-11,14 L-12,20 L-10,26 L-3,27 L0,24 L0,15 L-4,11 Z " fill="#000000" transform="translate(738,80)"/>
<path d="M0,0 L1,0 L1,7 L5,7 L5,11 L1,11 L2,25 L6,27 L6,29 L2,30 L-3,27 L-3,11 L-6,10 L-6,7 L-3,7 L-3,2 Z " fill="#000000" transform="translate(508,81)"/>
<path d="M0,0 L4,0 L4,22 L0,22 Z " fill="#000000" transform="translate(517,88)"/>
<path d="M0,0 L5,1 L7,0 L14,0 L19,5 L20,7 L20,16 L17,21 L13,23 L6,22 L5,21 L4,30 L0,30 Z M8,3 L5,6 L4,8 L5,17 L7,19 L13,19 L16,14 L15,6 L11,3 Z " fill="#000000" transform="translate(526,88)"/>
<path d="M0,0 L9,0 L14,5 L15,8 L15,15 L12,20 L7,23 L-1,22 L-5,17 L-6,15 L-6,8 L-3,2 Z M3,3 L-1,6 L-2,12 L0,18 L7,19 L10,16 L11,10 L9,5 L6,3 Z " fill="#000000" transform="translate(554,88)"/>
<path d="M0,0 L9,0 L12,3 L13,5 L14,22 L9,22 L7,22 L0,23 L-4,21 L-5,19 L-5,13 L-1,10 L8,7 L8,4 L0,4 L-1,7 L-5,7 L-3,2 Z M5,12 L0,14 L-1,18 L0,19 L6,19 L8,17 L9,12 Z " fill="#000000" transform="translate(612,88)"/>
<path d="M0,0 L5,1 L6,0 L14,0 L19,6 L20,13 L17,20 L12,23 L5,22 L4,30 L0,30 Z M8,3 L4,6 L4,16 L7,19 L12,19 L15,16 L15,7 L11,3 Z " fill="#000000" transform="translate(642,88)"/>
<path d="M0,0 L9,0 L12,3 L13,5 L14,22 L9,22 L7,22 L0,23 L-4,21 L-5,19 L-5,13 L-1,10 L8,7 L8,4 L0,4 L-1,7 L-5,7 L-3,2 Z M5,12 L0,14 L-1,18 L0,19 L6,19 L8,17 L9,12 Z " fill="#000000" transform="translate(669,88)"/>
<path d="M0,0 L5,1 L6,0 L12,0 L12,4 L5,6 L4,22 L0,22 Z " fill="#000000" transform="translate(687,88)"/>
<path d="M0,0 L9,0 L12,3 L13,5 L14,22 L9,22 L7,22 L0,23 L-4,21 L-5,19 L-5,13 L-1,10 L8,7 L8,4 L0,4 L-1,7 L-5,7 L-3,2 Z M5,12 L0,14 L-1,18 L0,19 L6,19 L8,17 L9,12 Z " fill="#000000" transform="translate(706,88)"/>
<path d="M0,0 L9,0 L13,3 L14,22 L9,21 L5,23 L-2,22 L-5,18 L-4,12 L2,9 L8,8 L7,4 L1,5 L0,7 L-4,7 L-3,3 Z M6,12 L0,14 L0,19 L6,19 L9,16 L9,12 Z " fill="#000000" transform="translate(751,88)"/>
<path d="M0,0 L7,0 L11,4 L11,11 L6,15 L-1,14 L-4,10 L-4,4 Z " fill="#000000" transform="translate(897,106)"/>
<path d="M0,0 L7,0 L11,4 L11,11 L6,15 L-1,14 L-4,10 L-4,4 Z " fill="#000000" transform="translate(897,159)"/>
<path d="M0,0 L7,0 L11,4 L11,11 L6,15 L-1,14 L-4,10 L-4,4 Z " fill="#000000" transform="translate(897,213)"/>
<path d="M0,0 L8,0 L13,4 L14,7 L14,16 L11,21 L7,23 L-1,22 L-5,17 L-6,8 L-3,2 Z M1,3 L-2,6 L-2,17 L2,20 L7,20 L10,17 L11,8 L8,3 Z " fill="#000000" transform="translate(898,263)"/>
<path d="M0,0 L7,0 L10,1 L13,0 L13,30 L10,30 L9,21 L6,23 L-1,22 L-5,17 L-6,8 L-3,2 Z M0,3 L-2,6 L-3,12 L0,19 L1,20 L8,19 L10,16 L10,7 L7,3 Z " fill="#000000" transform="translate(898,303)"/>
<path d="M0,0 L9,1 L12,5 L11,12 L9,15 L12,16 L13,18 L13,25 L9,30 L1,31 L-4,28 L-6,25 L-6,22 L-3,22 L0,27 L6,27 L9,24 L8,17 L1,16 L1,13 L8,10 L7,4 L0,4 L-3,8 L-6,7 L-3,2 Z " fill="#000000" transform="translate(899,336)"/>
<path d="M0,0 L15,0 L20,4 L21,9 L19,15 L22,18 L22,25 L18,29 L16,30 L-1,30 L-1,1 Z M4,4 L4,12 L15,12 L16,11 L16,6 L13,4 Z M4,17 L4,26 L15,26 L17,24 L17,18 L15,17 Z " fill="#000000" transform="translate(311,402)"/>
<path d="M0,0 L4,0 L4,19 L8,19 L8,23 L4,23 L4,30 L0,30 L0,23 L-13,23 L-12,17 Z M-1,8 L-8,18 L-8,19 L0,19 L0,8 Z " fill="#000000" transform="translate(348,402)"/>
<path d="M0,0 L4,0 L5,9 L7,8 L14,8 L19,12 L20,15 L20,23 L17,28 L13,31 L6,30 L4,30 L0,30 Z M8,11 L4,16 L4,23 L7,27 L13,27 L16,22 L15,14 L12,11 Z " fill="#000000" transform="translate(374,402)"/>
<path d="M0,0 L4,0 L4,30 L0,30 Z " fill="#000000" transform="translate(527,402)"/>
<path d="M0,0 L4,0 L3,5 L0,5 Z " fill="#000000" transform="translate(598,402)"/>
<path d="M0,0 L8,0 L8,3 L3,4 L2,8 L6,8 L6,12 L2,12 L2,30 L-2,30 L-2,12 L-5,12 L-5,8 L-2,8 L-2,2 Z " fill="#000000" transform="translate(610,402)"/>
<path d="M0,0 L4,0 L3,5 L0,5 Z " fill="#000000" transform="translate(619,402)"/>
<path d="M0,0 L6,1 L9,2 L9,0 L12,0 L11,4 L10,5 L2,4 L-2,5 L-1,1 Z " fill="#000000" transform="translate(696,402)"/>
<path d="M0,0 L4,0 L4,30 L-1,29 L-4,31 L-11,30 L-15,26 L-16,24 L-16,14 L-11,8 L-3,8 L-1,9 L-1,1 Z M-8,11 L-12,15 L-12,23 L-9,27 L-3,27 L0,22 L-1,14 L-5,11 Z " fill="#000000" transform="translate(764,402)"/>
<path d="M0,0 L9,0 L13,4 L14,7 L10,8 L6,4 L1,5 L-1,12 L1,17 L2,18 L9,18 L10,14 L14,14 L13,19 L7,23 L-1,22 L-5,17 L-6,8 L-3,2 Z " fill="#000000" transform="translate(509,410)"/>
<path d="M0,0 L9,0 L12,3 L13,5 L14,22 L9,22 L7,22 L0,23 L-4,21 L-5,19 L-5,13 L-1,10 L8,7 L8,4 L0,4 L-1,7 L-5,7 L-3,2 Z M5,12 L0,14 L-1,18 L0,19 L6,19 L8,17 L9,12 Z " fill="#000000" transform="translate(540,410)"/>
<path d="M0,0 L8,0 L12,5 L8,7 L7,4 L0,4 L0,8 L10,10 L13,15 L11,20 L7,23 L1,23 L-4,20 L-5,15 L0,16 L1,18 L7,18 L8,14 L-1,12 L-4,10 L-4,3 Z " fill="#000000" transform="translate(561,410)"/>
<path d="M0,0 L8,0 L12,5 L8,7 L7,4 L0,4 L0,8 L10,10 L13,15 L11,20 L7,23 L1,23 L-4,20 L-5,15 L0,16 L1,18 L7,18 L8,14 L-1,12 L-4,10 L-4,3 Z " fill="#000000" transform="translate(581,410)"/>
<path d="M0,0 L4,0 L4,22 L0,22 Z " fill="#000000" transform="translate(598,410)"/>
<path d="M0,0 L4,0 L4,22 L0,22 Z " fill="#000000" transform="translate(619,410)"/>
<path d="M0,0 L9,0 L13,4 L14,7 L10,8 L6,4 L1,5 L-1,12 L1,17 L2,18 L9,18 L10,14 L14,14 L13,19 L7,23 L-1,22 L-5,17 L-6,8 L-3,2 Z " fill="#000000" transform="translate(632,410)"/>
<path d="M0,0 L9,0 L13,3 L14,22 L9,21 L5,23 L-2,22 L-5,18 L-4,12 L2,9 L8,8 L7,4 L1,5 L0,7 L-4,7 L-3,3 Z M6,12 L0,14 L0,19 L6,19 L9,16 L9,12 Z " fill="#000000" transform="translate(653,410)"/>
<path d="M0,0 L8,0 L13,4 L13,7 L8,6 L8,4 L2,4 L-1,7 L-1,15 L1,18 L7,18 L9,14 L13,14 L12,19 L9,22 L6,23 L8,25 L7,30 L5,31 L-1,31 L-1,28 L4,28 L4,26 L1,25 L1,23 L-4,20 L-6,16 L-6,6 L-2,1 Z " fill="#000000" transform="translate(676,410)"/>
<path d="M0,0 L9,0 L12,3 L13,5 L14,22 L9,22 L7,22 L0,23 L-4,21 L-5,19 L-5,13 L-1,10 L8,7 L8,4 L0,4 L-1,7 L-5,7 L-3,2 Z M5,12 L0,14 L-1,18 L0,19 L6,19 L8,17 L9,12 Z " fill="#000000" transform="translate(697,410)"/>
<path d="M0,0 L9,0 L14,5 L15,8 L15,15 L12,20 L7,23 L-1,22 L-5,17 L-6,15 L-6,8 L-3,2 Z M3,3 L-1,6 L-2,12 L0,18 L7,19 L10,16 L11,10 L9,5 L6,3 Z " fill="#000000" transform="translate(719,410)"/>
<path d="M0,0 L9,0 L13,4 L15,12 L-1,12 L0,18 L8,18 L10,15 L14,15 L13,19 L10,22 L2,23 L-3,20 L-6,15 L-6,8 L-3,2 Z M3,3 L-1,6 L-1,9 L10,9 L9,5 L6,3 Z " fill="#000000" transform="translate(777,410)"/>
<path d="M0,0 L7,0 L11,4 L11,11 L6,15 L-1,14 L-4,10 L-4,4 Z " fill="#000000" transform="translate(897,414)"/>
<path d="M0,0 L11,0 L11,4 L0,4 Z " fill="#000000" transform="translate(359,419)"/>
<path d="M0,0 L8,0 L6,4 L2,3 L1,8 L6,9 L5,12 L1,12 L1,30 L-3,30 L-3,12 L-6,11 L-6,8 L-3,8 L-2,1 Z " fill="#000000" transform="translate(576,442)"/>
<path d="M0,0 L4,0 L4,30 L-1,29 L-4,31 L-11,30 L-15,26 L-16,24 L-16,14 L-11,8 L-3,8 L-1,9 L-1,1 Z M-8,11 L-12,15 L-12,23 L-9,27 L-3,27 L0,22 L-1,14 L-5,11 Z " fill="#000000" transform="translate(684,442)"/>
<path d="M0,0 L4,0 L4,30 L-2,30 L-8,31 L-13,28 L-16,22 L-15,13 L-10,8 L-3,8 L-1,9 Z M-8,11 L-11,14 L-12,20 L-10,26 L-3,27 L0,24 L0,15 L-4,11 Z " fill="#000000" transform="translate(823,442)"/>
<path d="M0,0 L2,0 L2,7 L6,7 L5,11 L2,11 L2,26 L6,26 L6,29 L-1,29 L-2,28 L-2,11 L-11,12 L-13,15 L-14,29 L-18,29 L-18,7 L-13,8 L-12,7 L-2,7 L-2,2 Z " fill="#000000" transform="translate(625,443)"/>
<path d="M0,0 L9,0 L13,4 L14,7 L10,8 L6,4 L1,5 L-1,12 L1,17 L2,18 L9,18 L10,14 L14,14 L13,19 L7,23 L-1,22 L-5,17 L-6,8 L-3,2 Z " fill="#000000" transform="translate(509,450)"/>
<path d="M0,0 L9,0 L14,5 L15,8 L15,15 L12,20 L7,23 L-1,22 L-5,17 L-6,15 L-6,8 L-3,2 Z M3,3 L-1,6 L-2,12 L0,18 L7,19 L10,16 L11,10 L9,5 L6,3 Z " fill="#000000" transform="translate(531,450)"/>
<path d="M0,0 L5,1 L6,0 L14,0 L17,3 L18,6 L18,22 L13,22 L12,5 L8,4 L5,6 L4,22 L0,22 Z " fill="#000000" transform="translate(550,450)"/>
<path d="M0,0 L8,0 L13,4 L14,6 L14,16 L11,21 L7,23 L1,23 L-4,20 L-6,16 L-6,6 L-2,1 Z M2,3 L-1,6 L-2,8 L-2,15 L1,19 L7,19 L10,15 L10,7 L6,3 Z " fill="#000000" transform="translate(589,450)"/>
<path d="M0,0 L9,0 L14,5 L15,8 L15,15 L12,20 L7,23 L-1,22 L-5,17 L-6,15 L-6,8 L-3,2 Z M3,3 L-1,6 L-2,12 L0,18 L7,19 L10,16 L11,10 L9,5 L6,3 Z " fill="#000000" transform="translate(639,450)"/>
<path d="M0,0 L9,0 L12,3 L13,5 L14,22 L9,22 L7,22 L0,23 L-4,21 L-5,19 L-5,13 L-1,10 L8,7 L8,4 L0,4 L-1,7 L-5,7 L-3,2 Z M5,12 L0,14 L-1,18 L0,19 L6,19 L8,17 L9,12 Z " fill="#000000" transform="translate(697,450)"/>
<path d="M0,0 L5,1 L7,0 L14,0 L19,5 L20,7 L20,16 L17,21 L13,23 L6,22 L5,21 L4,30 L0,30 Z M8,3 L5,6 L4,8 L5,17 L7,19 L13,19 L16,14 L15,6 L11,3 Z " fill="#000000" transform="translate(726,450)"/>
<path d="M0,0 L9,0 L12,3 L13,5 L14,22 L9,22 L7,22 L0,23 L-4,21 L-5,19 L-5,13 L-1,10 L8,7 L8,4 L0,4 L-1,7 L-5,7 L-3,2 Z M5,12 L0,14 L-1,18 L0,19 L6,19 L8,17 L9,12 Z " fill="#000000" transform="translate(754,450)"/>
<path d="M0,0 L5,1 L6,0 L12,0 L12,4 L5,6 L4,22 L0,22 Z " fill="#000000" transform="translate(772,450)"/>
<path d="M0,0 L9,0 L13,3 L14,22 L9,21 L5,23 L-2,22 L-5,18 L-4,12 L2,9 L8,8 L7,4 L1,5 L0,7 L-4,7 L-3,3 Z M6,12 L0,14 L0,19 L6,19 L9,16 L9,12 Z " fill="#000000" transform="translate(790,450)"/>
<path d="M0,0 L9,0 L13,3 L14,22 L9,21 L5,23 L-2,22 L-5,18 L-4,12 L2,9 L8,8 L7,4 L1,5 L0,7 L-4,7 L-3,3 Z M6,12 L0,14 L0,19 L6,19 L9,16 L9,12 Z " fill="#000000" transform="translate(836,450)"/>
<path d="M0,0 L7,0 L11,4 L11,11 L6,15 L-1,14 L-4,10 L-4,4 Z " fill="#000000" transform="translate(897,666)"/>
<path d="M0,0 L15,0 L20,4 L21,9 L19,15 L22,18 L22,25 L18,29 L16,30 L-1,30 L-1,1 Z M4,4 L4,12 L15,12 L16,11 L16,6 L13,4 Z M4,17 L4,26 L15,26 L17,24 L17,18 L15,17 Z " fill="#000000" transform="translate(311,961)"/>
<path d="M0,0 L4,0 L4,19 L8,19 L8,23 L4,23 L4,30 L0,30 L0,23 L-13,23 L-12,17 Z M-1,8 L-8,18 L-8,19 L0,19 L0,8 Z " fill="#000000" transform="translate(348,961)"/>
<path d="M0,0 L4,0 L4,30 L0,30 Z " fill="#000000" transform="translate(527,961)"/>
<path d="M0,0 L4,0 L3,5 L0,5 Z " fill="#000000" transform="translate(598,961)"/>
<path d="M0,0 L8,0 L8,3 L3,4 L2,8 L6,8 L6,12 L2,12 L2,30 L-2,30 L-2,12 L-5,12 L-5,8 L-2,8 L-2,2 Z " fill="#000000" transform="translate(610,961)"/>
<path d="M0,0 L4,0 L3,5 L0,5 Z " fill="#000000" transform="translate(619,961)"/>
<path d="M0,0 L6,1 L9,2 L9,0 L12,0 L11,4 L10,5 L2,4 L-2,5 L-1,1 Z " fill="#000000" transform="translate(696,961)"/>
<path d="M0,0 L4,0 L4,30 L-1,29 L-4,31 L-11,30 L-15,26 L-16,24 L-16,14 L-11,8 L-3,8 L-1,9 L-1,1 Z M-8,11 L-12,15 L-12,23 L-9,27 L-3,27 L0,22 L-1,14 L-5,11 Z " fill="#000000" transform="translate(764,961)"/>
<path d="M0,0 L8,0 L13,4 L13,7 L8,6 L8,4 L0,5 L-1,7 L-1,15 L1,18 L7,18 L9,14 L13,14 L12,19 L9,22 L1,23 L-4,20 L-6,16 L-6,6 L-2,1 Z " fill="#000000" transform="translate(379,969)"/>
<path d="M0,0 L9,0 L13,4 L14,7 L10,8 L6,4 L1,5 L-1,12 L1,17 L2,18 L9,18 L10,14 L14,14 L13,19 L7,23 L-1,22 L-5,17 L-6,8 L-3,2 Z " fill="#000000" transform="translate(509,969)"/>
<path d="M0,0 L9,0 L12,3 L13,5 L14,22 L9,22 L7,22 L0,23 L-4,21 L-5,19 L-5,13 L-1,10 L8,7 L8,4 L0,4 L-1,7 L-5,7 L-3,2 Z M5,12 L0,14 L-1,18 L0,19 L6,19 L8,17 L9,12 Z " fill="#000000" transform="translate(540,969)"/>
<path d="M0,0 L8,0 L12,5 L8,7 L7,4 L0,4 L0,8 L10,10 L13,15 L11,20 L7,23 L1,23 L-4,20 L-5,15 L0,16 L1,18 L7,18 L8,14 L-1,12 L-4,10 L-4,3 Z " fill="#000000" transform="translate(561,969)"/>
<path d="M0,0 L8,0 L12,5 L8,7 L7,4 L0,4 L0,8 L10,10 L13,15 L11,20 L7,23 L1,23 L-4,20 L-5,15 L0,16 L1,18 L7,18 L8,14 L-1,12 L-4,10 L-4,3 Z " fill="#000000" transform="translate(581,969)"/>
<path d="M0,0 L4,0 L4,22 L0,22 Z " fill="#000000" transform="translate(598,969)"/>
<path d="M0,0 L4,0 L4,22 L0,22 Z " fill="#000000" transform="translate(619,969)"/>
<path d="M0,0 L9,0 L13,4 L14,7 L10,8 L6,4 L1,5 L-1,12 L1,17 L2,18 L9,18 L10,14 L14,14 L13,19 L7,23 L-1,22 L-5,17 L-6,8 L-3,2 Z " fill="#000000" transform="translate(632,969)"/>
<path d="M0,0 L9,0 L13,3 L14,22 L9,21 L5,23 L-2,22 L-5,18 L-4,12 L2,9 L8,8 L7,4 L1,5 L0,7 L-4,7 L-3,3 Z M6,12 L0,14 L0,19 L6,19 L9,16 L9,12 Z " fill="#000000" transform="translate(653,969)"/>
<path d="M0,0 L8,0 L13,4 L13,7 L8,6 L8,4 L2,4 L-1,7 L-1,15 L1,18 L7,18 L9,14 L13,14 L12,19 L9,22 L6,23 L8,25 L7,30 L5,31 L-1,31 L-1,28 L4,28 L4,26 L1,25 L1,23 L-4,20 L-6,16 L-6,6 L-2,1 Z " fill="#000000" transform="translate(676,969)"/>
<path d="M0,0 L9,0 L12,3 L13,5 L14,22 L9,22 L7,22 L0,23 L-4,21 L-5,19 L-5,13 L-1,10 L8,7 L8,4 L0,4 L-1,7 L-5,7 L-3,2 Z M5,12 L0,14 L-1,18 L0,19 L6,19 L8,17 L9,12 Z " fill="#000000" transform="translate(697,969)"/>
<path d="M0,0 L9,0 L14,5 L15,8 L15,15 L12,20 L7,23 L-1,22 L-5,17 L-6,15 L-6,8 L-3,2 Z M3,3 L-1,6 L-2,12 L0,18 L7,19 L10,16 L11,10 L9,5 L6,3 Z " fill="#000000" transform="translate(719,969)"/>
<path d="M0,0 L9,0 L14,5 L15,8 L15,15 L12,20 L7,23 L-1,22 L-5,17 L-6,15 L-6,8 L-3,2 Z M3,3 L-1,6 L-2,12 L0,18 L7,19 L10,16 L11,10 L9,5 L6,3 Z " fill="#000000" transform="translate(777,969)"/>
<path d="M0,0 L7,0 L11,4 L11,11 L6,15 L-1,14 L-4,10 L-4,4 Z " fill="#000000" transform="translate(897,973)"/>
<path d="M0,0 L11,0 L11,4 L0,4 Z " fill="#000000" transform="translate(359,978)"/>
<path d="M0,0 L4,0 L4,30 L-1,29 L-4,31 L-11,30 L-15,26 L-16,24 L-16,14 L-11,8 L-3,8 L-1,9 L-1,1 Z M-8,11 L-12,15 L-12,23 L-9,27 L-3,27 L0,22 L-1,14 L-5,11 Z " fill="#000000" transform="translate(597,1001)"/>
<path d="M0,0 L4,0 L4,30 L-2,30 L-8,31 L-13,28 L-16,22 L-15,13 L-10,8 L-3,8 L-1,9 Z M-8,11 L-11,14 L-12,20 L-10,26 L-3,27 L0,24 L0,15 L-4,11 Z " fill="#000000" transform="translate(736,1001)"/>
<path d="M0,0 L4,1 L5,18 L12,17 L13,1 L17,0 L18,1 L18,22 L13,21 L9,23 L2,22 L-1,15 L-1,1 Z " fill="#000000" transform="translate(505,1009)"/>
<path d="M0,0 L8,0 L12,5 L8,7 L7,4 L0,4 L0,8 L10,10 L13,15 L11,20 L7,23 L1,23 L-4,20 L-5,15 L0,16 L1,18 L7,18 L8,14 L-1,12 L-4,10 L-4,3 Z " fill="#000000" transform="translate(531,1009)"/>
<path d="M0,0 L9,0 L14,5 L15,8 L15,15 L12,20 L7,23 L-1,22 L-5,17 L-6,15 L-6,8 L-3,2 Z M3,3 L-1,6 L-2,12 L0,18 L7,19 L10,16 L11,10 L9,5 L6,3 Z " fill="#000000" transform="translate(552,1009)"/>
<path d="M0,0 L9,0 L12,3 L13,5 L14,22 L9,22 L7,22 L0,23 L-4,21 L-5,19 L-5,13 L-1,10 L8,7 L8,4 L0,4 L-1,7 L-5,7 L-3,2 Z M5,12 L0,14 L-1,18 L0,19 L6,19 L8,17 L9,12 Z " fill="#000000" transform="translate(610,1009)"/>
<path d="M0,0 L5,1 L7,0 L14,0 L19,5 L20,7 L20,16 L17,21 L13,23 L6,22 L5,21 L4,30 L0,30 Z M8,3 L5,6 L4,8 L5,17 L7,19 L13,19 L16,14 L15,6 L11,3 Z " fill="#000000" transform="translate(639,1009)"/>
<path d="M0,0 L9,0 L12,3 L13,5 L14,22 L9,22 L7,22 L0,23 L-4,21 L-5,19 L-5,13 L-1,10 L8,7 L8,4 L0,4 L-1,7 L-5,7 L-3,2 Z M5,12 L0,14 L-1,18 L0,19 L6,19 L8,17 L9,12 Z " fill="#000000" transform="translate(667,1009)"/>
<path d="M0,0 L5,1 L6,0 L12,0 L12,4 L5,6 L4,22 L0,22 Z " fill="#000000" transform="translate(685,1009)"/>
<path d="M0,0 L9,0 L13,3 L14,22 L9,21 L5,23 L-2,22 L-5,18 L-4,12 L2,9 L8,8 L7,4 L1,5 L0,7 L-4,7 L-3,3 Z M6,12 L0,14 L0,19 L6,19 L9,16 L9,12 Z " fill="#000000" transform="translate(703,1009)"/>
<path d="M0,0 L9,0 L13,3 L14,22 L9,21 L5,23 L-2,22 L-5,18 L-4,12 L2,9 L8,8 L7,4 L1,5 L0,7 L-4,7 L-3,3 Z M6,12 L0,14 L0,19 L6,19 L9,16 L9,12 Z " fill="#000000" transform="translate(749,1009)"/>
<path d="M0,0 L7,0 L11,4 L11,11 L6,15 L-1,14 L-4,10 L-4,4 Z " fill="#000000" transform="translate(897,1067)"/>
</svg>
