<?xml version="1.0" encoding="UTF-8"?>
<!-- Generator: visioncortex VTracer 0.6.12 -->
<svg version="1.1" xmlns="http://www.w3.org/2000/svg" width="76" height="79">
<path d="M0,0 L10,0 L19,3 L25,7 L22,7 L13,3 L3,2 L-6,4 L-10,5 L-7,2 Z " fill="#000000" transform="translate(32,6)"/>
<path d="M0,0 L5,5 L9,16 L9,25 L5,36 L0,41 L2,37 L6,28 L6,13 L1,3 Z " fill="#000000" transform="translate(59,16)"/>
<path d="M0,0 L1,2 L-2,12 L-2,19 L1,31 L-2,28 L-4,21 L-4,10 L-1,1 Z " fill="#000000" transform="translate(11,21)"/>
<path d="M0,0 L2,1 L-6,6 L-13,8 L-22,8 L-29,6 L-26,5 L-15,6 L-5,3 Z " fill="#000000" transform="translate(55,59)"/>
</svg>
