<?xml version="1.0" encoding="UTF-8"?>
<!-- Generator: visioncortex VTracer 0.6.12 -->
<svg version="1.1" xmlns="http://www.w3.org/2000/svg" width="92" height="130">
<path d="M0,0 L6,1 L17,6 L14,7 L3,2 L-3,4 L-25,14 L-28,13 Z " fill="#000000" transform="translate(45,4)"/>
<path d="M0,0 L5,1 L15,6 L13,7 L0,1 Z " fill="#000000" transform="translate(62,11)"/>
<path d="M0,0 L14,0 L19,2 L16,3 L12,2 L2,2 L-7,5 L-11,6 L-8,3 Z " fill="#000000" transform="translate(40,22)"/>
<path d="M0,0 L0,3 L-3,10 L-4,15 L-4,23 L-1,33 L0,37 L-3,34 L-4,32 L-5,65 L9,65 L8,70 L-4,94 L-7,94 L-20,67 L-20,65 L-6,65 L-6,13 L-2,2 Z " fill="#000000" transform="translate(23,33)"/>
<path d="M0,0 L3,3 L5,9 L5,24 L0,34 L-2,35 L0,30 L3,22 L3,10 Z " fill="#000000" transform="translate(72,36)"/>
<path d="M0,0 L7,6 L16,10 L31,10 L37,9 L35,11 L27,13 L15,12 L5,7 L0,2 Z " fill="#000000" transform="translate(23,70)"/>
</svg>
