<?xml version="1.0" encoding="UTF-8"?>
<!-- Generator: visioncortex VTracer 0.6.12 -->
<svg version="1.1" xmlns="http://www.w3.org/2000/svg" width="88" height="123">
<path d="M0,0 L14,0 L24,4 L26,7 L21,5 L12,2 L2,2 L-9,6 L-12,6 L-6,2 Z " fill="#000000" transform="translate(39,14)"/>
<path d="M0,0 L1,2 L-2,10 L-2,25 L-1,31 L-2,31 L-3,63 L11,63 L2,83 L-3,93 L-5,93 L-17,69 L-19,63 L-5,63 L-5,14 L-3,5 Z " fill="#000000" transform="translate(21,27)"/>
<path d="M0,0 L3,4 L4,9 L4,17 L1,27 L-2,30 L1,21 L1,6 Z " fill="#000000" transform="translate(73,31)"/>
<path d="M0,0 L0,3 L-8,10 L-15,13 L-27,14 L-36,12 L-45,6 L-47,2 L-39,8 L-31,11 L-17,11 L-8,7 Z " fill="#000000" transform="translate(70,61)"/>
</svg>
