<?xml version="1.0" encoding="UTF-8"?>
<!-- Generator: visioncortex VTracer 0.6.12 -->
<svg version="1.1" xmlns="http://www.w3.org/2000/svg" width="103" height="123">
<path d="M0,0 L6,1 L16,8 L24,17 L34,31 L42,46 L44,53 L45,65 L38,94 L32,101 L29,103 L5,103 L-7,104 L-17,104 L-35,101 L-40,96 L-40,88 L-42,73 L-42,54 L-39,48 L-30,35 L-20,14 L-12,5 L-4,1 Z M-2,4 L-11,9 L-17,16 L-28,39 L-38,53 L-39,57 L-38,78 L-36,96 L-33,98 L-17,99 L-8,64 L-5,63 L-14,100 L-11,100 L-7,86 L-1,61 L-1,58 L2,58 L-4,84 L-7,97 L-7,100 L-4,99 L7,56 L9,56 L5,74 L-1,99 L2,99 L14,54 L14,51 L17,51 L6,95 L6,99 L8,99 L12,86 L23,44 L25,44 L23,54 L12,96 L12,98 L15,98 L27,52 L27,48 L30,50 L18,97 L18,99 L21,99 L33,52 L36,49 L31,71 L24,99 L27,99 L39,52 L38,46 L31,33 L21,19 L12,9 L4,4 Z M40,60 L32,91 L33,95 L36,88 L41,66 L41,60 Z M31,95 Z " fill="#000000" transform="translate(48,8)"/>
</svg>
