<?xml version="1.0" encoding="UTF-8"?>
<!-- Generator: visioncortex VTracer 0.6.12 -->
<svg version="1.1" xmlns="http://www.w3.org/2000/svg" width="57" height="154">
<path d="M0,0 L4,2 L11,9 L15,12 L15,14 L10,12 L3,5 L3,13 L15,25 L15,27 L11,25 L3,17 L3,26 L15,37 L15,39 L11,37 L3,30 L3,38 L15,50 L15,52 L11,50 L3,42 L3,51 L13,60 L15,64 L11,62 L3,55 L3,63 L12,72 L15,74 L15,76 L10,74 L3,67 L3,75 L15,87 L15,89 L11,87 L3,79 L3,88 L15,99 L15,101 L11,99 L3,92 L3,100 L15,112 L15,114 L11,112 L3,104 L3,113 L13,122 L15,126 L11,124 L3,117 L3,125 L12,134 L15,136 L15,138 L11,137 L2,128 L-2,130 L-11,139 L-13,137 L-1,125 L-1,117 L-11,126 L-13,126 L-11,122 L-1,113 L-1,104 L-11,114 L-13,114 L-11,110 L-1,100 L-1,92 L-10,101 L-13,101 L-13,99 L-5,92 L-1,88 L-1,80 L-9,87 L-13,89 L-11,85 L-4,78 L-1,76 L-1,67 L-10,76 L-13,75 L-1,63 L-1,55 L-11,64 L-13,64 L-11,60 L-1,51 L-1,42 L-11,52 L-13,52 L-11,48 L-1,38 L-1,30 L-10,39 L-13,39 L-13,37 L-5,30 L-1,26 L-1,18 L-9,25 L-13,27 L-11,23 L-4,16 L-1,14 L-1,5 L-11,15 L-13,13 Z " fill="#000000" transform="translate(28,4)"/>
</svg>
