<?xml version="1.0" encoding="UTF-8"?>
<!-- Generator: visioncortex VTracer 0.6.12 -->
<svg version="1.1" xmlns="http://www.w3.org/2000/svg" width="186" height="71">
<path d="M0,0 L3,1 L15,36 L15,39 L20,39 L20,15 L24,15 L24,39 L28,39 L28,14 L31,14 L31,39 L35,39 L35,14 L38,14 L38,39 L42,39 L42,14 L45,14 L45,39 L50,39 L50,14 L53,15 L53,39 L57,39 L57,14 L60,14 L60,39 L64,39 L64,14 L67,14 L67,39 L71,39 L71,15 L74,14 L74,39 L79,39 L79,14 L82,14 L82,39 L86,39 L86,14 L89,14 L89,39 L93,39 L93,14 L96,14 L96,39 L101,39 L101,14 L104,15 L104,39 L108,39 L108,14 L111,14 L111,39 L115,39 L115,14 L118,14 L118,39 L122,39 L122,15 L125,14 L125,39 L130,39 L130,14 L133,14 L133,39 L138,39 L140,30 L150,1 L153,0 L152,8 L140,42 L13,42 L-1,2 Z " fill="#000000" transform="translate(16,13)"/>
</svg>
