<?xml version="1.0" encoding="UTF-8"?>
<!-- Generator: visioncortex VTracer 0.6.12 -->
<svg version="1.1" xmlns="http://www.w3.org/2000/svg" width="195" height="65">
<path d="M0,0 L126,0 L130,10 L140,39 L140,42 L137,42 L124,5 L124,3 L119,3 L119,28 L116,28 L116,3 L112,3 L112,28 L109,28 L109,3 L105,3 L105,28 L102,29 L102,3 L97,3 L97,28 L94,28 L94,3 L90,3 L90,28 L87,28 L87,3 L83,3 L83,28 L80,28 L80,3 L75,3 L75,29 L73,29 L72,27 L72,3 L68,3 L68,28 L65,28 L65,3 L61,3 L61,28 L58,28 L58,3 L54,3 L54,28 L51,29 L51,3 L46,3 L46,29 L43,28 L43,3 L39,3 L39,28 L36,28 L36,3 L32,3 L32,28 L29,28 L29,3 L25,3 L25,27 L24,29 L22,29 L22,3 L17,3 L17,28 L14,28 L14,3 L10,3 L10,28 L7,28 L7,3 L2,3 L-1,14 L-11,42 L-14,42 L-12,33 L-1,2 Z " fill="#000000" transform="translate(26,16)"/>
</svg>
