<?xml version="1.0" encoding="UTF-8"?>
<!-- Generator: visioncortex VTracer 0.6.12 -->
<svg version="1.1" xmlns="http://www.w3.org/2000/svg" width="171" height="122">
<path d="M0,0 L87,0 L91,10 L97,27 L96,30 L94,28 L85,3 L83,3 L82,20 L80,20 L80,2 L78,3 L77,20 L75,20 L75,2 L73,3 L72,20 L70,20 L70,2 L67,2 L67,20 L65,20 L65,2 L62,2 L62,20 L60,20 L60,2 L57,2 L57,20 L55,20 L55,2 L52,2 L52,20 L50,20 L50,2 L47,2 L47,20 L45,20 L45,2 L42,2 L42,20 L40,20 L40,2 L37,2 L37,20 L35,20 L35,2 L32,2 L32,20 L30,20 L29,3 L27,2 L27,20 L25,20 L24,3 L22,2 L22,20 L20,20 L19,3 L17,2 L17,20 L14,19 L14,2 L12,2 L12,20 L9,19 L9,2 L7,2 L7,20 L4,20 L4,2 L1,2 L-2,13 L-8,29 L-10,30 L-9,24 L-1,1 Z " fill="#000000" transform="translate(25,14)"/>
<path d="M0,0 L2,1 L11,27 L14,28 L14,10 L16,10 L16,28 L19,28 L19,10 L21,10 L21,28 L24,28 L24,10 L26,10 L26,28 L29,28 L29,10 L31,10 L32,27 L34,28 L34,10 L36,10 L37,27 L39,28 L39,10 L41,10 L42,27 L44,28 L44,10 L46,10 L47,27 L49,28 L49,10 L52,11 L52,28 L54,28 L54,10 L57,10 L57,28 L59,28 L59,11 L62,10 L62,28 L64,28 L64,11 L67,10 L67,28 L69,27 L70,10 L72,10 L72,28 L74,27 L75,10 L77,10 L77,28 L79,27 L80,10 L82,10 L82,28 L85,28 L85,10 L87,10 L87,28 L90,28 L90,10 L92,10 L92,28 L95,28 L98,18 L104,1 L106,0 L105,7 L97,30 L9,30 L-1,2 Z " fill="#000000" transform="translate(54,71)"/>
</svg>
