<?xml version="1.0" encoding="UTF-8"?>
<!-- Generator: visioncortex VTracer 0.6.12 -->
<svg version="1.1" xmlns="http://www.w3.org/2000/svg" width="124" height="68">
<path d="M0,0 L2,0 L0,5 L-14,27 L-29,50 L-38,64 L-40,64 L-38,58 L-28,43 L-12,18 Z " fill="#000000" transform="translate(52,1)"/>
<path d="M0,0 L2,0 L0,6 L-10,21 L-21,38 L-37,63 L-40,64 L-38,59 L-24,37 L-11,17 Z " fill="#000000" transform="translate(82,1)"/>
<path d="M0,0 L2,0 L1,4 L-9,20 L-24,43 L-37,63 L-40,63 L-33,51 L-23,36 L-7,11 Z " fill="#000000" transform="translate(112,1)"/>
</svg>
