<?xml version="1.0" encoding="UTF-8"?>
<!-- Generator: visioncortex VTracer 0.6.12 -->
<svg version="1.1" xmlns="http://www.w3.org/2000/svg" width="120" height="86">
<path d="M0,0 L31,0 L31,10 L54,10 L54,26 L68,26 L68,43 L85,43 L86,44 L86,52 L98,52 L98,74 L96,74 L96,54 L86,54 L86,67 L83,66 L83,54 L70,54 L70,52 L83,52 L83,45 L68,45 L68,50 L66,50 L66,45 L55,45 L55,43 L66,43 L66,28 L54,28 L54,33 L51,33 L51,28 L37,28 L37,26 L51,26 L51,12 L31,12 L31,24 L29,24 L29,12 L23,12 L23,10 L29,10 L29,2 L0,2 Z " fill="#000000" transform="translate(12,7)"/>
</svg>
