<?xml version="1.0" encoding="UTF-8"?>
<!-- Generator: visioncortex VTracer 0.6.12 -->
<svg version="1.1" xmlns="http://www.w3.org/2000/svg" width="127" height="124">
<path d="M0,0 L9,0 L31,2 L56,1 L74,1 L75,2 L76,73 L73,78 L47,77 L48,102 L42,104 L7,105 L-24,104 L-27,103 L-27,28 L-25,26 L-8,26 L0,27 L-1,1 Z M2,3 L2,27 L23,28 L47,28 L48,32 L47,35 L47,75 L73,75 L73,44 L72,4 L24,4 L12,3 Z M-22,28 L-24,29 L-25,101 L-20,102 L34,102 L45,101 L45,78 L35,78 L26,79 L7,79 L0,78 L1,73 L1,53 L0,29 Z M2,29 L2,45 L3,77 L12,78 L22,78 L42,76 L44,75 L45,47 L45,30 Z " fill="#000000" transform="translate(40,9)"/>
</svg>
