<?xml version="1.0" encoding="UTF-8"?>
<!-- Generator: visioncortex VTracer 0.6.12 -->
<svg version="1.1" xmlns="http://www.w3.org/2000/svg" width="113" height="292">
<path d="M0,0 L4,0 L2,9 L-3,30 L-5,49 L-5,70 L-3,94 L-1,94 L20,78 L32,69 L43,61 L46,62 L46,64 L27,78 L9,92 L-2,100 L2,127 L48,127 L48,131 L34,141 L13,157 L9,160 L7,160 L10,180 L11,191 L11,227 L8,248 L5,258 L2,259 L1,256 L5,237 L6,229 L6,189 L4,171 L4,164 L-15,178 L-32,191 L-43,199 L-46,198 L-46,196 L-27,182 L-9,168 L2,160 L-1,138 L-2,133 L-49,132 L-45,127 L-26,113 L-9,100 L-7,100 L-9,83 L-10,67 L-10,53 L-8,31 L-3,8 Z M-7,103 L-23,115 L-39,127 L-39,128 L-2,128 L-6,103 Z M2,132 L6,157 L13,153 L24,144 L39,133 L39,132 Z " fill="#000000" transform="translate(58,18)"/>
</svg>
