<?xml version="1.0" encoding="UTF-8"?>
<!-- Generator: visioncortex VTracer 0.6.12 -->
<svg version="1.1" xmlns="http://www.w3.org/2000/svg" width="124" height="272">
<path d="M0,0 L8,6 L19,16 L27,23 L33,28 L33,232 L19,245 L8,254 L1,260 L-1,259 L0,255 L8,248 L18,239 L28,231 L28,30 L13,16 L2,7 L-1,4 Z " fill="#000000" transform="translate(5,6)"/>
<path d="M0,0 L4,0 L3,4 L-11,16 L-23,27 L-25,28 L-25,230 L-15,239 L-7,246 L3,255 L3,259 L-1,257 L-12,247 L-20,240 L-30,231 L-30,27 L-17,15 L-9,8 Z " fill="#000000" transform="translate(111,7)"/>
<path d="M0,0 L6,0 L6,3 L1,3 Z " fill="#000000" transform="translate(102,133)"/>
<path d="M0,0 L6,0 L6,3 L1,3 Z " fill="#000000" transform="translate(114,133)"/>
</svg>
