<?xml version="1.0" encoding="UTF-8"?>
<!-- Generator: visioncortex VTracer 0.6.12 -->
<svg version="1.1" xmlns="http://www.w3.org/2000/svg" width="79" height="153">
<path d="M0,0 L5,2 L18,14 L19,54 L26,53 L36,54 L39,56 L40,14 L51,4 L56,0 L58,0 L56,4 L46,13 L43,15 L43,119 L58,133 L58,135 L54,133 L40,120 L40,76 L35,81 L30,82 L26,81 L19,80 L18,121 L7,131 L2,135 L0,135 L2,131 L13,121 L15,120 L15,15 L4,5 L0,2 Z M20,55 L18,59 L18,65 L20,61 L21,55 Z M23,55 L20,62 L18,69 L18,74 L20,72 L24,58 Z M26,55 L23,63 L20,73 L20,78 L22,76 L27,58 Z M29,55 L26,63 L22,79 L24,79 L30,59 Z M32,55 L29,63 L25,79 L27,79 L33,59 Z M35,56 L32,64 L28,79 L30,80 L36,59 Z M37,57 L31,78 L32,80 L35,74 L39,58 Z M39,61 L35,75 L36,78 L40,67 L40,61 Z M39,72 L40,74 Z " fill="#000000" transform="translate(8,7)"/>
</svg>
