<?xml version="1.0" encoding="UTF-8"?>
<!-- Generator: visioncortex VTracer 0.6.12 -->
<svg version="1.1" xmlns="http://www.w3.org/2000/svg" width="119" height="256">
<path d="M0,0 L4,1 L18,13 L32,26 L33,99 L34,98 L42,97 L47,96 L54,97 L58,96 L66,99 L66,101 L71,102 L72,26 L85,14 L96,5 L101,0 L105,1 L99,8 L89,17 L81,24 L77,27 L77,216 L91,228 L105,241 L104,243 L100,242 L86,229 L75,220 L72,217 L72,137 L67,140 L65,144 L56,147 L52,146 L48,145 L44,146 L43,145 L34,144 L33,142 L32,217 L24,225 L13,234 L3,243 L0,243 L1,239 L12,229 L23,220 L27,216 L27,27 L13,14 L2,5 L0,3 Z M46,98 L35,135 L35,142 L38,141 L49,102 L49,99 Z M43,99 Z M57,99 L50,122 L45,139 L45,143 L48,143 L54,124 L60,103 L60,100 Z M35,100 L32,108 L32,119 L34,116 L38,100 Z M40,100 L32,126 L32,133 L34,135 L43,104 L43,100 Z M54,99 L51,100 L39,141 L43,142 L55,101 Z M62,100 L50,142 L54,143 L65,105 L64,100 Z M67,103 L60,126 L55,143 L56,145 L60,142 L70,107 L69,103 Z M71,110 L68,118 L62,139 L62,142 L64,142 L67,137 L72,120 L72,110 Z M71,127 L69,135 L72,134 L72,127 Z " fill="#000000" transform="translate(6,5)"/>
</svg>
