<?xml version="1.0" encoding="UTF-8"?>
<!-- Generator: visioncortex VTracer 0.6.12 -->
<svg version="1.1" xmlns="http://www.w3.org/2000/svg" width="320" height="261">
<path d="M0,0 L38,0 L38,3 L7,4 L11,8 L47,9 L47,13 L16,14 L18,19 L54,19 L54,23 L22,23 L25,28 L60,29 L60,33 L28,34 L30,38 L65,39 L65,42 L32,42 L34,48 L69,49 L69,52 L35,52 L36,58 L71,58 L72,62 L38,62 L39,68 L74,68 L74,72 L40,72 L41,78 L76,78 L76,82 L43,83 L43,88 L78,88 L78,92 L45,93 L46,97 L81,98 L80,102 L47,102 L48,108 L83,108 L83,111 L49,111 L51,116 L85,117 L86,121 L53,122 L54,127 L89,127 L90,131 L57,132 L59,136 L94,137 L94,141 L62,141 L65,146 L100,147 L100,151 L69,152 L72,156 L108,157 L107,161 L77,162 L81,166 L117,167 L117,170 L115,171 L80,171 L75,166 L66,156 L57,142 L50,128 L44,110 L34,65 L26,41 L17,24 L8,12 L0,3 Z " fill="#000000" transform="translate(193,0)"/>
<path d="M0,0 L169,0 L170,1 L170,38 L166,38 L166,4 L160,4 L160,39 L156,38 L156,4 L150,4 L150,39 L146,38 L146,4 L140,4 L140,39 L136,38 L136,4 L131,4 L131,37 L130,39 L127,39 L127,4 L121,4 L121,38 L117,39 L117,4 L111,4 L111,38 L107,39 L107,4 L101,4 L101,38 L97,38 L97,4 L91,4 L91,39 L87,38 L87,4 L81,4 L81,39 L77,38 L77,4 L71,4 L71,39 L68,39 L67,37 L67,4 L62,4 L62,37 L61,39 L58,39 L58,4 L52,4 L52,38 L48,39 L48,4 L42,4 L42,38 L38,39 L38,4 L32,4 L32,38 L28,38 L28,4 L22,4 L22,39 L18,38 L18,4 L12,4 L12,39 L8,38 L8,4 L2,4 L2,39 L-1,39 L-2,37 L-2,2 Z " fill="#000000" transform="translate(4,90)"/>
<path d="M0,0 L3,1 L3,35 L9,35 L9,0 L13,1 L13,35 L19,35 L19,0 L23,1 L23,35 L29,35 L29,0 L33,1 L33,35 L38,35 L38,2 L39,0 L42,0 L42,35 L48,35 L48,1 L52,0 L52,35 L58,35 L58,1 L62,0 L62,35 L68,35 L68,1 L72,1 L72,35 L78,35 L78,0 L82,1 L82,35 L88,35 L88,0 L92,1 L92,35 L98,35 L98,0 L101,0 L102,2 L102,35 L107,35 L107,2 L108,0 L111,0 L111,35 L117,35 L117,1 L121,0 L121,35 L127,35 L127,1 L131,0 L131,35 L137,35 L137,1 L141,1 L141,35 L147,35 L147,0 L151,1 L151,35 L157,35 L157,0 L161,1 L161,35 L167,35 L167,0 L170,0 L171,2 L171,37 L169,39 L0,39 L-1,38 L-1,1 Z " fill="#000000" transform="translate(90,214)"/>
</svg>
