<?xml version="1.0" encoding="UTF-8"?>
<!-- Generator: visioncortex VTracer 0.6.12 -->
<svg version="1.1" xmlns="http://www.w3.org/2000/svg" width="242" height="103">
<path d="M0,0 L4,1 L16,14 L23,22 L24,25 L196,25 L198,21 L211,7 L217,0 L220,1 L217,6 L207,17 L205,23 L202,23 L199,30 L197,28 L194,30 L191,30 L189,33 L189,29 L186,29 L185,36 L184,32 L185,29 L182,29 L181,36 L180,32 L181,29 L178,29 L177,32 L177,29 L174,29 L173,35 L172,31 L173,29 L170,29 L169,35 L168,31 L169,29 L166,29 L165,31 L165,29 L162,29 L161,31 L161,29 L158,29 L157,34 L156,30 L150,30 L148,33 L148,29 L146,30 L144,33 L144,29 L141,29 L140,36 L139,32 L140,29 L137,29 L136,32 L136,29 L133,29 L132,32 L132,29 L129,29 L128,35 L127,31 L128,29 L125,29 L124,31 L124,29 L121,29 L120,31 L120,29 L117,29 L116,34 L115,30 L105,30 L103,33 L103,29 L100,29 L99,36 L98,32 L99,29 L96,29 L95,32 L95,29 L92,29 L91,32 L91,29 L88,29 L87,35 L86,31 L87,29 L84,29 L83,31 L83,29 L80,29 L79,31 L79,29 L76,29 L75,34 L74,30 L64,30 L62,33 L62,29 L59,29 L58,33 L58,29 L55,29 L54,36 L53,32 L54,29 L51,29 L50,32 L50,29 L47,29 L46,32 L46,29 L43,29 L42,35 L41,31 L42,29 L39,29 L38,31 L38,29 L35,29 L34,31 L34,29 L31,29 L30,34 L29,30 L23,28 L9,13 L2,5 Z " fill="#000000" transform="translate(10,4)"/>
<path d="M0,0 L1,4 L0,7 L3,7 L4,4 L4,7 L7,7 L8,4 L8,7 L11,7 L12,1 L13,5 L12,7 L15,7 L16,5 L16,7 L19,7 L20,5 L20,7 L23,7 L24,2 L25,6 L35,6 L37,3 L37,7 L40,7 L41,0 L42,4 L41,7 L44,7 L45,0 L46,4 L45,7 L48,7 L49,4 L49,7 L52,7 L53,1 L54,5 L53,7 L56,7 L57,1 L58,5 L57,7 L60,7 L61,5 L61,7 L64,7 L65,2 L66,6 L76,6 L78,3 L78,7 L81,7 L82,3 L82,7 L85,7 L86,0 L87,4 L86,7 L89,7 L90,4 L90,7 L93,7 L94,4 L94,7 L97,7 L98,1 L99,5 L98,7 L101,7 L102,5 L102,7 L105,7 L106,5 L106,7 L109,7 L110,2 L111,6 L121,6 L123,3 L123,7 L126,7 L127,0 L128,4 L127,7 L130,7 L131,4 L131,7 L135,7 L142,15 L154,29 L158,33 L157,36 L153,34 L144,24 L137,16 L133,11 L-37,11 L-47,22 L-56,33 L-59,36 L-62,35 L-60,31 L-48,18 L-44,11 L-40,9 L-38,4 L-37,7 L-34,7 L-33,4 L-33,7 L-30,7 L-29,1 L-28,5 L-29,7 L-26,7 L-25,5 L-25,7 L-22,7 L-21,5 L-21,7 L-18,7 L-17,2 L-16,6 L-6,6 L-4,3 L-4,7 L-1,7 Z " fill="#000000" transform="translate(72,62)"/>
</svg>
