<?xml version="1.0" encoding="UTF-8"?>
<!-- Generator: visioncortex VTracer 0.6.12 -->
<svg version="1.1" xmlns="http://www.w3.org/2000/svg" width="168" height="143">
<path d="M0,0 L19,0 L19,3 L5,4 L24,5 L24,8 L9,9 L10,10 L28,11 L28,13 L12,13 L13,15 L31,16 L31,18 L15,19 L16,20 L34,21 L33,23 L17,23 L17,26 L36,26 L35,28 L19,29 L19,31 L37,31 L37,33 L20,33 L20,36 L38,36 L38,38 L21,38 L21,41 L39,41 L39,43 L22,43 L22,46 L40,46 L40,48 L23,48 L23,51 L41,51 L41,53 L24,53 L25,55 L43,56 L43,58 L26,59 L26,61 L44,61 L44,63 L27,63 L28,65 L46,66 L46,68 L30,69 L30,71 L49,71 L49,73 L32,73 L33,75 L52,76 L52,78 L36,79 L37,80 L55,81 L55,83 L40,84 L41,85 L60,86 L60,88 L40,88 L32,79 L24,63 L18,38 L13,22 L7,11 L0,3 Z " fill="#000000" transform="translate(102,1)"/>
<path d="M0,0 L87,0 L87,20 L85,20 L85,2 L82,2 L82,20 L80,20 L80,2 L77,2 L77,20 L75,20 L75,2 L72,2 L72,20 L70,20 L70,2 L67,2 L67,20 L65,20 L65,2 L62,2 L62,20 L60,20 L60,2 L57,2 L57,20 L55,20 L55,2 L52,2 L52,20 L50,20 L50,2 L47,2 L47,20 L45,20 L45,2 L42,2 L42,20 L40,20 L40,2 L37,2 L37,20 L35,20 L35,2 L32,2 L32,20 L30,20 L30,2 L27,2 L27,20 L25,20 L25,2 L22,2 L22,19 L19,19 L19,2 L17,2 L17,19 L14,19 L14,2 L12,2 L12,19 L9,19 L9,2 L7,2 L7,19 L4,20 L4,2 L1,2 L1,20 L-1,20 L-1,1 Z " fill="#000000" transform="translate(5,48)"/>
<path d="M0,0 L2,1 L2,18 L5,18 L5,0 L7,1 L7,18 L10,18 L10,0 L12,1 L12,18 L15,18 L15,0 L17,1 L17,18 L20,18 L20,0 L22,1 L22,18 L25,18 L25,1 L27,1 L27,18 L30,18 L30,1 L32,0 L32,18 L35,18 L35,1 L37,0 L37,18 L40,18 L40,1 L42,0 L42,18 L45,18 L45,1 L47,0 L47,18 L50,18 L50,1 L52,0 L52,18 L55,18 L55,1 L57,0 L57,18 L60,18 L60,1 L62,0 L62,18 L65,18 L65,1 L68,1 L68,18 L70,18 L70,1 L73,1 L73,18 L75,18 L75,1 L78,1 L78,18 L80,18 L80,1 L83,1 L83,18 L86,18 L86,0 L88,1 L88,20 L0,20 Z " fill="#000000" transform="translate(49,111)"/>
</svg>
