<?xml version="1.0" encoding="UTF-8"?>
<!-- Generator: visioncortex VTracer 0.6.12 -->
<svg version="1.1" xmlns="http://www.w3.org/2000/svg" width="159" height="96">
<path d="M0,0 L7,6 L15,15 L120,15 L131,3 L134,0 L135,2 L127,12 L125,15 L123,17 L121,21 L119,19 L117,18 L116,21 L114,19 L112,18 L111,20 L107,18 L106,20 L102,18 L101,20 L97,18 L96,20 L96,18 L92,18 L91,20 L91,18 L89,18 L88,22 L86,18 L84,18 L83,21 L81,20 L81,18 L79,18 L78,21 L76,19 L74,18 L73,21 L71,19 L69,18 L68,21 L66,19 L64,18 L63,21 L61,19 L59,18 L58,21 L56,19 L54,18 L53,21 L51,19 L49,18 L48,20 L44,18 L43,20 L39,18 L38,20 L34,18 L33,20 L33,18 L29,18 L28,20 L28,18 L26,18 L25,22 L23,18 L21,18 L20,21 L18,20 L18,18 L13,17 L0,3 Z " fill="#000000" transform="translate(12,15)"/>
<path d="M0,0 L3,1 L3,3 L5,3 L6,0 L8,2 L10,3 L11,0 L13,2 L15,3 L16,0 L18,2 L20,3 L21,0 L23,2 L25,3 L26,0 L28,2 L30,3 L31,0 L33,2 L35,3 L36,1 L40,3 L41,1 L41,3 L45,3 L46,1 L46,3 L50,3 L51,1 L51,3 L55,3 L56,1 L56,3 L60,3 L61,1 L61,3 L63,3 L64,0 L66,1 L66,3 L68,3 L69,0 L71,2 L73,3 L74,0 L77,5 L90,19 L90,21 L86,19 L75,7 L-30,7 L-37,14 L-43,21 L-45,21 L-43,17 L-35,8 L-33,4 L-30,2 L-28,3 L-27,1 L-23,3 L-22,1 L-22,3 L-18,3 L-17,1 L-17,3 L-13,3 L-12,1 L-12,3 L-8,3 L-7,1 L-7,3 L-3,3 L-2,1 L-2,3 L0,3 Z " fill="#000000" transform="translate(57,52)"/>
</svg>
