<?xml version="1.0" encoding="UTF-8"?>
<!-- Generator: visioncortex VTracer 0.6.12 -->
<svg version="1.1" xmlns="http://www.w3.org/2000/svg" width="1144" height="745">
<path d="M0,0 L1,4 L-6,26 L-8,26 L-6,17 L-1,1 Z " fill="#000000" transform="translate(783,156)"/>
<path d="M0,0 L3,0 L3,24 L0,24 Z " fill="#000000" transform="translate(77,157)"/>
<path d="M0,0 L3,0 L4,7 L11,6 L15,9 L16,12 L16,19 L14,23 L10,25 L0,24 Z M7,8 L3,12 L3,19 L6,22 L11,22 L13,19 L13,11 L10,8 Z " fill="#000000" transform="translate(101,157)"/>
<path d="M0,0 L3,0 L3,24 L-6,25 L-11,22 L-13,15 L-11,9 L-8,6 L-2,6 L-1,7 Z M-6,8 L-9,10 L-10,18 L-7,22 L-2,22 L0,20 L0,11 L-4,8 Z " fill="#000000" transform="translate(240,157)"/>
<path d="M0,0 L3,0 L3,24 L-6,25 L-11,22 L-13,15 L-11,9 L-8,6 L-2,6 L-1,7 Z M-6,8 L-9,10 L-10,18 L-7,22 L-2,22 L0,20 L0,11 L-4,8 Z " fill="#000000" transform="translate(398,157)"/>
<path d="M0,0 L3,0 L3,24 L0,24 Z " fill="#000000" transform="translate(499,157)"/>
<path d="M0,0 L3,0 L3,24 L-6,25 L-11,22 L-13,15 L-11,9 L-8,6 L-2,6 L-1,7 Z M-6,8 L-9,10 L-10,18 L-7,22 L-2,22 L0,20 L0,11 L-4,8 Z " fill="#000000" transform="translate(535,157)"/>
<path d="M0,0 L3,0 L3,24 L0,24 L-1,6 L-6,8 L-5,5 Z " fill="#000000" transform="translate(586,157)"/>
<path d="M0,0 L5,2 L6,13 L-3,13 L-4,12 L-4,7 L3,5 L2,3 L-3,5 L-4,3 L-3,1 Z M1,7 L-2,8 L-2,11 L3,10 L3,7 Z " fill="#000000" transform="translate(609,156)"/>
<path d="M0,0 L3,0 L3,24 L-6,25 L-11,22 L-13,15 L-11,9 L-8,6 L-2,6 L-1,7 Z M-6,8 L-9,10 L-10,18 L-7,22 L-2,22 L0,20 L0,11 L-4,8 Z " fill="#000000" transform="translate(656,157)"/>
<path d="M0,0 L2,0 L2,24 L0,24 L0,5 L-6,8 L-6,5 Z " fill="#000000" transform="translate(748,157)"/>
<path d="M0,0 L3,0 L3,24 L0,24 L-1,6 L-6,8 L-5,5 Z " fill="#000000" transform="translate(766,157)"/>
<path d="M0,0 L7,0 L11,3 L11,10 L7,15 L0,20 L-1,22 L12,22 L12,24 L-4,24 L-3,19 L5,12 L7,12 L8,3 L1,3 L-1,7 L-4,7 L-2,2 Z " fill="#000000" transform="translate(790,157)"/>
<path d="M0,0 L7,0 L10,3 L11,6 L11,18 L8,23 L5,25 L-1,24 L-4,20 L-5,11 L-3,3 Z M1,2 L-2,7 L-2,17 L1,22 L6,22 L8,19 L8,5 L6,2 Z " fill="#000000" transform="translate(809,157)"/>
<path d="M0,0 L7,0 L11,3 L11,10 L7,15 L0,20 L-1,22 L12,22 L12,24 L-4,24 L-3,19 L5,12 L7,12 L8,3 L1,3 L-1,7 L-4,7 L-2,2 Z " fill="#000000" transform="translate(827,157)"/>
<path d="M0,0 L7,0 L11,4 L10,11 L-1,21 L11,22 L11,24 L-5,24 L-3,19 L7,10 L7,4 L6,3 L1,3 L-2,7 L-4,7 L-3,2 Z " fill="#000000" transform="translate(846,157)"/>
<path d="M0,0 L9,0 L8,3 L-1,3 Z " fill="#000000" transform="translate(187,158)"/>
<path d="M0,0 L9,0 L8,3 L-1,3 Z " fill="#000000" transform="translate(689,158)"/>
<path d="M0,0 L7,0 L10,4 L10,18 L0,19 L-4,16 L-4,11 L0,8 L7,7 L7,3 L0,4 L-1,6 L-4,5 L-2,1 Z M6,9 L-1,11 L-1,16 L5,16 L7,14 L7,9 Z " fill="#000000" transform="translate(11,163)"/>
<path d="M0,0 L6,0 L9,2 L10,18 L6,17 L3,19 L-3,18 L-5,15 L-4,10 L5,7 L7,7 L6,3 L-1,3 L-2,6 L-4,5 L-2,1 Z M6,9 L-1,11 L-2,15 L-1,16 L6,15 L7,9 Z " fill="#000000" transform="translate(38,163)"/>
<path d="M0,0 L6,0 L10,4 L11,10 L-2,10 L0,15 L6,15 L10,13 L9,17 L5,19 L-1,18 L-5,13 L-5,6 L-2,1 Z M2,2 L-2,5 L-2,8 L8,8 L7,4 Z " fill="#000000" transform="translate(64,163)"/>
<path d="M0,0 L6,0 L9,2 L10,18 L6,17 L3,19 L-3,18 L-5,15 L-4,10 L5,7 L7,7 L6,3 L-1,3 L-2,6 L-4,5 L-2,1 Z M6,9 L-1,11 L-2,15 L-1,16 L6,15 L7,9 Z " fill="#000000" transform="translate(88,163)"/>
<path d="M0,0 L6,0 L10,3 L11,6 L11,13 L7,18 L1,19 L-3,17 L-5,13 L-5,6 L-2,1 Z M2,2 L-2,5 L-2,14 L0,16 L6,16 L8,14 L8,5 L4,2 Z " fill="#000000" transform="translate(124,163)"/>
<path d="M0,0 L9,0 L9,3 L4,3 L3,18 L0,18 Z " fill="#000000" transform="translate(138,163)"/>
<path d="M0,0 L7,0 L10,4 L10,18 L0,19 L-4,16 L-4,11 L0,8 L7,7 L7,3 L0,4 L-1,6 L-4,5 L-2,1 Z M6,9 L-1,11 L-1,16 L5,16 L7,14 L7,9 Z " fill="#000000" transform="translate(153,163)"/>
<path d="M0,0 L6,0 L10,4 L10,6 L7,6 L4,3 L-1,5 L-1,13 L0,15 L6,15 L8,12 L10,12 L9,16 L5,19 L6,24 L0,25 L0,23 L3,22 L-2,17 L-5,13 L-5,6 L-2,1 Z " fill="#000000" transform="translate(171,163)"/>
<path d="M0,0 L7,0 L10,4 L10,18 L0,19 L-4,16 L-4,11 L0,8 L7,7 L7,3 L0,4 L-1,6 L-4,5 L-2,1 Z M6,9 L-1,11 L-1,16 L5,16 L7,14 L7,9 Z " fill="#000000" transform="translate(188,163)"/>
<path d="M0,0 L6,0 L10,3 L11,6 L11,13 L7,18 L1,19 L-3,17 L-5,13 L-5,6 L-2,1 Z M2,2 L-2,5 L-2,14 L0,16 L6,16 L8,14 L8,5 L4,2 Z " fill="#000000" transform="translate(206,163)"/>
<path d="M0,0 L6,0 L10,4 L11,10 L-2,10 L0,15 L6,15 L10,13 L9,17 L5,19 L-1,18 L-5,13 L-5,6 L-2,1 Z M2,2 L-2,5 L-2,8 L8,8 L7,4 Z " fill="#000000" transform="translate(251,163)"/>
<path d="M0,0 L7,1 L10,6 L7,6 L4,3 L-1,4 L-2,12 L0,15 L5,15 L7,12 L10,12 L8,17 L4,19 L-2,18 L-5,14 L-6,9 L-4,3 Z " fill="#000000" transform="translate(278,163)"/>
<path d="M0,0 L4,0 L9,1 L8,3 L4,4 L3,6 L2,18 L-1,18 L-1,1 Z " fill="#000000" transform="translate(291,163)"/>
<path d="M0,0 L6,0 L10,3 L11,6 L11,13 L7,18 L1,19 L-3,17 L-5,13 L-5,6 L-2,1 Z M2,2 L-2,5 L-2,14 L0,16 L6,16 L8,14 L8,5 L4,2 Z " fill="#000000" transform="translate(306,163)"/>
<path d="M0,0 L7,1 L11,1 L11,24 L8,25 L7,17 L4,19 L-1,18 L-4,15 L-5,13 L-5,6 L-2,1 Z M1,2 L-2,5 L-2,13 L0,16 L7,15 L8,6 L4,2 Z " fill="#000000" transform="translate(324,163)"/>
<path d="M0,0 L3,1 L4,15 L9,15 L10,14 L11,1 L14,1 L14,18 L4,19 L0,15 Z " fill="#000000" transform="translate(338,163)"/>
<path d="M0,0 L2,0 L2,18 L-1,18 L-1,1 Z " fill="#000000" transform="translate(356,163)"/>
<path d="M0,0 L6,0 L9,2 L9,5 L2,3 L0,3 L0,7 L7,8 L10,11 L9,17 L5,19 L-1,18 L-3,16 L-3,13 L1,15 L6,15 L7,11 L-2,9 L-3,3 Z " fill="#000000" transform="translate(365,163)"/>
<path d="M0,0 L6,0 L10,4 L11,10 L-2,10 L0,15 L6,15 L10,13 L9,17 L5,19 L-1,18 L-5,13 L-5,6 L-2,1 Z M2,2 L-2,5 L-2,8 L8,8 L7,4 Z " fill="#000000" transform="translate(409,163)"/>
<path d="M0,0 L7,1 L10,5 L10,10 L-3,10 L0,15 L7,15 L7,13 L10,14 L7,18 L1,19 L-4,16 L-6,9 L-4,3 Z M1,2 L-2,4 L-3,8 L7,8 L6,3 Z " fill="#000000" transform="translate(436,163)"/>
<path d="M0,0 L6,0 L9,3 L9,5 L6,5 L6,3 L-1,3 L0,6 L9,10 L10,14 L5,19 L-1,18 L-4,15 L-4,13 L-1,13 L0,15 L6,15 L6,12 L-3,8 L-4,4 Z " fill="#000000" transform="translate(452,163)"/>
<path d="M0,0 L7,1 L10,6 L7,6 L4,3 L-1,4 L-2,12 L0,15 L5,15 L7,12 L10,12 L8,17 L4,19 L-2,18 L-5,14 L-6,9 L-4,3 Z " fill="#000000" transform="translate(469,163)"/>
<path d="M0,0 L7,0 L10,4 L10,18 L0,19 L-4,16 L-4,11 L0,8 L7,7 L7,3 L0,4 L-1,6 L-4,5 L-2,1 Z M6,9 L-1,11 L-1,16 L5,16 L7,14 L7,9 Z " fill="#000000" transform="translate(485,163)"/>
<path d="M0,0 L6,0 L9,2 L10,18 L6,17 L3,19 L-3,18 L-5,15 L-4,10 L5,7 L7,7 L6,3 L-1,3 L-2,6 L-4,5 L-2,1 Z M6,9 L-1,11 L-2,15 L-1,16 L6,15 L7,9 Z " fill="#000000" transform="translate(510,163)"/>
<path d="M0,0 L6,0 L9,2 L10,18 L6,17 L3,19 L-3,18 L-5,15 L-4,10 L5,7 L7,7 L6,3 L-1,3 L-2,6 L-4,5 L-2,1 Z M6,9 L-1,11 L-2,15 L-1,16 L6,15 L7,9 Z " fill="#000000" transform="translate(546,163)"/>
<path d="M0,0 L7,1 L10,5 L10,10 L-3,10 L0,15 L7,15 L7,13 L10,14 L7,18 L1,19 L-4,16 L-6,9 L-4,3 Z M1,2 L-2,4 L-3,8 L7,8 L6,3 Z " fill="#000000" transform="translate(631,163)"/>
<path d="M0,0 L3,1 L3,18 L0,18 Z " fill="#000000" transform="translate(663,163)"/>
<path d="M0,0 L6,0 L10,4 L10,6 L7,6 L4,3 L-1,5 L-1,13 L0,15 L6,15 L8,12 L10,12 L9,16 L5,19 L6,24 L0,25 L0,23 L3,22 L-2,17 L-5,13 L-5,6 L-2,1 Z " fill="#000000" transform="translate(673,163)"/>
<path d="M0,0 L7,0 L10,4 L10,18 L0,19 L-4,16 L-4,11 L0,8 L7,7 L7,3 L0,4 L-1,6 L-4,5 L-2,1 Z M6,9 L-1,11 L-1,16 L5,16 L7,14 L7,9 Z " fill="#000000" transform="translate(690,163)"/>
<path d="M0,0 L7,1 L10,4 L11,10 L8,17 L4,19 L-2,18 L-5,14 L-6,9 L-4,3 Z M1,2 L-2,4 L-3,12 L0,16 L5,16 L8,12 L7,4 L4,2 Z " fill="#000000" transform="translate(709,163)"/>
<path d="M0,0 L3,0 L3,6 L0,6 Z " fill="#000000" transform="translate(561,178)"/>
<path d="M0,0 L3,0 L3,6 L0,6 Z " fill="#000000" transform="translate(723,178)"/>
<path d="M0,0 L7,1 L12,6 L12,8 L9,8 L6,4 L-1,4 L-4,7 L-5,9 L-5,17 L-3,21 L-1,22 L7,22 L9,21 L10,15 L2,15 L2,13 L13,13 L13,22 L9,25 L0,26 L-6,23 L-9,17 L-9,9 L-6,4 L-3,1 Z " fill="#000000" transform="translate(681,196)"/>
<path d="M0,0 L7,1 L11,5 L11,8 L8,7 L5,4 L-2,4 L-5,8 L-6,15 L-3,21 L-1,22 L6,22 L8,21 L9,15 L2,15 L2,13 L12,13 L12,22 L8,25 L0,26 L-6,23 L-9,19 L-9,8 L-5,2 Z " fill="#000000" transform="translate(921,196)"/>
<path d="M0,0 L5,1 L11,18 L16,6 L18,0 L23,0 L23,24 L20,24 L19,8 L13,24 L9,23 L4,9 L3,24 L0,24 Z " fill="#000000" transform="translate(15,197)"/>
<path d="M0,0 L3,0 L4,7 L11,6 L14,8 L14,24 L12,24 L11,10 L7,9 L4,12 L3,24 L0,24 Z " fill="#000000" transform="translate(122,197)"/>
<path d="M0,0 L15,0 L15,2 L3,2 L3,10 L14,10 L14,13 L3,13 L3,22 L16,22 L16,24 L0,24 Z " fill="#000000" transform="translate(243,197)"/>
<path d="M0,0 L3,0 L3,24 L0,24 Z " fill="#000000" transform="translate(312,197)"/>
<path d="M0,0 L3,0 L3,24 L-7,25 L-12,21 L-13,19 L-13,12 L-10,7 L-3,6 L-1,7 Z M-6,8 L-10,11 L-10,19 L-8,22 L-2,22 L0,19 L0,12 L-4,8 Z " fill="#000000" transform="translate(348,197)"/>
<path d="M0,0 L3,0 L3,24 L-7,25 L-12,21 L-13,19 L-13,12 L-10,7 L-3,6 L-1,7 Z M-6,8 L-10,11 L-10,19 L-8,22 L-2,22 L0,19 L0,12 L-4,8 Z " fill="#000000" transform="translate(393,197)"/>
<path d="M0,0 L15,0 L15,2 L3,2 L3,10 L14,10 L14,13 L3,13 L3,22 L16,22 L16,24 L0,24 Z " fill="#000000" transform="translate(427,197)"/>
<path d="M0,0 L3,0 L3,24 L-7,25 L-12,21 L-13,19 L-13,12 L-10,7 L-3,6 L-1,7 Z M-6,8 L-10,11 L-10,19 L-8,22 L-2,22 L0,19 L0,12 L-4,8 Z " fill="#000000" transform="translate(501,197)"/>
<path d="M0,0 L3,0 L3,24 L-7,25 L-12,21 L-13,19 L-13,12 L-10,7 L-3,6 L-1,7 Z M-6,8 L-10,11 L-10,19 L-8,22 L-2,22 L0,19 L0,12 L-4,8 Z " fill="#000000" transform="translate(546,197)"/>
<path d="M0,0 L4,0 L10,17 L11,18 L18,0 L22,0 L22,24 L19,24 L18,9 L13,23 L9,24 L3,7 L2,24 L0,24 Z " fill="#000000" transform="translate(580,197)"/>
<path d="M0,0 L15,0 L15,2 L3,2 L3,10 L13,10 L13,13 L3,13 L3,24 L0,24 Z " fill="#000000" transform="translate(801,197)"/>
<path d="M0,0 L15,0 L15,2 L2,2 L2,10 L13,10 L14,13 L2,13 L2,22 L15,22 L15,24 L0,24 Z " fill="#000000" transform="translate(819,197)"/>
<path d="M0,0 L5,1 L11,18 L16,6 L18,0 L23,0 L23,24 L20,24 L19,8 L13,24 L9,23 L4,9 L3,24 L0,24 Z " fill="#000000" transform="translate(838,197)"/>
<path d="M0,0 L15,0 L15,2 L2,2 L2,10 L13,10 L14,13 L2,13 L2,22 L15,22 L15,24 L0,24 Z " fill="#000000" transform="translate(866,197)"/>
<path d="M0,0 L5,1 L11,18 L16,6 L18,0 L23,0 L23,24 L20,24 L19,8 L13,24 L9,23 L4,9 L3,24 L0,24 Z " fill="#000000" transform="translate(885,197)"/>
<path d="M0,0 L2,0 L2,5 L5,6 L4,8 L2,8 L2,21 L5,21 L5,23 L0,23 L-1,22 L-1,8 L-4,7 L-3,5 L-1,5 Z " fill="#000000" transform="translate(79,198)"/>
<path d="M0,0 L1,0 L1,5 L4,5 L4,8 L1,8 L1,21 L5,22 L5,23 L-1,23 L-2,20 L-2,8 L-4,8 L-4,5 L-2,5 L-1,1 Z " fill="#000000" transform="translate(464,198)"/>
<path d="M0,0 L7,1 L10,4 L11,10 L8,17 L4,19 L-2,18 L-5,14 L-6,9 L-4,3 Z M1,2 L-2,4 L-3,12 L0,16 L5,16 L8,12 L7,4 L4,2 Z " fill="#000000" transform="translate(46,203)"/>
<path d="M0,0 L3,1 L10,0 L13,2 L13,18 L11,18 L10,4 L6,3 L3,6 L2,18 L-1,18 L-1,1 Z " fill="#000000" transform="translate(60,203)"/>
<path d="M0,0 L6,0 L9,2 L10,18 L6,17 L3,19 L-3,18 L-5,15 L-4,10 L5,7 L7,7 L6,3 L-1,3 L-2,6 L-4,5 L-2,1 Z M6,9 L-1,11 L-2,15 L-1,16 L6,15 L7,9 Z " fill="#000000" transform="translate(91,203)"/>
<path d="M0,0 L3,1 L10,0 L13,2 L13,18 L11,18 L10,4 L6,3 L3,6 L2,18 L-1,18 L-1,1 Z " fill="#000000" transform="translate(105,203)"/>
<path d="M0,0 L2,0 L2,18 L-1,18 L-1,1 Z " fill="#000000" transform="translate(141,203)"/>
<path d="M0,0 L6,0 L9,3 L9,5 L6,5 L6,3 L-1,3 L0,6 L9,10 L10,14 L5,19 L-1,18 L-4,15 L-4,13 L-1,13 L0,15 L6,15 L6,12 L-3,8 L-4,4 Z " fill="#000000" transform="translate(150,203)"/>
<path d="M0,0 L3,1 L9,0 L13,1 L19,0 L22,2 L23,5 L23,18 L20,18 L19,4 L16,3 L13,6 L12,18 L10,18 L9,5 L8,3 L4,4 L3,6 L2,18 L-1,18 L-1,1 Z " fill="#000000" transform="translate(163,203)"/>
<path d="M0,0 L7,1 L10,4 L11,10 L8,17 L4,19 L-2,18 L-5,14 L-6,9 L-4,3 Z M1,2 L-2,4 L-3,12 L0,16 L5,16 L8,12 L7,4 L4,2 Z " fill="#000000" transform="translate(194,203)"/>
<path d="M0,0 L7,1 L10,5 L10,10 L-3,10 L0,15 L7,15 L7,13 L10,14 L7,18 L1,19 L-4,16 L-6,9 L-4,3 Z M1,2 L-2,4 L-3,8 L7,8 L6,3 Z " fill="#000000" transform="translate(221,203)"/>
<path d="M0,0 L6,0 L9,3 L9,5 L6,5 L6,3 L-1,3 L0,6 L9,10 L10,14 L5,19 L-1,18 L-4,15 L-4,13 L-1,13 L0,15 L6,15 L6,12 L-3,8 L-4,4 Z " fill="#000000" transform="translate(265,203)"/>
<path d="M0,0 L7,1 L10,6 L7,6 L4,3 L-1,4 L-2,12 L0,15 L5,15 L7,12 L10,12 L8,17 L4,19 L-2,18 L-5,14 L-6,9 L-4,3 Z " fill="#000000" transform="translate(282,203)"/>
<path d="M0,0 L6,0 L9,2 L10,18 L6,17 L3,19 L-3,18 L-5,15 L-4,10 L5,7 L7,7 L6,3 L-1,3 L-2,6 L-4,5 L-2,1 Z M6,9 L-1,11 L-2,15 L-1,16 L6,15 L7,9 Z " fill="#000000" transform="translate(299,203)"/>
<path d="M0,0 L7,0 L10,4 L10,18 L0,19 L-4,16 L-4,11 L0,8 L7,7 L7,3 L0,4 L-1,6 L-4,5 L-2,1 Z M6,9 L-1,11 L-1,16 L5,16 L7,14 L7,9 Z " fill="#000000" transform="translate(322,203)"/>
<path d="M0,0 L7,0 L10,4 L10,18 L0,19 L-4,16 L-4,11 L0,8 L7,7 L7,3 L0,4 L-1,6 L-4,5 L-2,1 Z M6,9 L-1,11 L-1,16 L5,16 L7,14 L7,9 Z " fill="#000000" transform="translate(358,203)"/>
<path d="M0,0 L7,1 L10,4 L11,10 L8,17 L4,19 L-2,18 L-5,14 L-6,9 L-4,3 Z M1,2 L-2,4 L-3,12 L0,16 L5,16 L8,12 L7,4 L4,2 Z " fill="#000000" transform="translate(404,203)"/>
<path d="M0,0 L6,0 L9,3 L9,5 L6,5 L6,3 L-1,3 L0,6 L9,10 L10,14 L5,19 L-1,18 L-4,15 L-4,13 L-1,13 L0,15 L6,15 L6,12 L-3,8 L-4,4 Z " fill="#000000" transform="translate(449,203)"/>
<path d="M0,0 L7,0 L10,4 L10,18 L0,19 L-4,16 L-4,11 L0,8 L7,7 L7,3 L0,4 L-1,6 L-4,5 L-2,1 Z M6,9 L-1,11 L-1,16 L5,16 L7,14 L7,9 Z " fill="#000000" transform="translate(475,203)"/>
<path d="M0,0 L7,1 L10,4 L11,10 L8,17 L4,19 L-2,18 L-5,14 L-6,9 L-4,3 Z M1,2 L-2,4 L-3,12 L0,16 L5,16 L8,12 L7,4 L4,2 Z " fill="#000000" transform="translate(512,203)"/>
<path d="M0,0 L7,1 L10,5 L10,10 L-3,10 L0,15 L7,15 L7,13 L10,14 L7,18 L1,19 L-4,16 L-6,9 L-4,3 Z M1,2 L-2,4 L-3,8 L7,8 L6,3 Z " fill="#000000" transform="translate(557,203)"/>
<path d="M0,0 L2,0 L2,18 L-1,18 L-1,1 Z " fill="#000000" transform="translate(607,203)"/>
<path d="M0,0 L4,1 L5,0 L11,0 L14,3 L14,18 L11,18 L10,4 L6,3 L4,3 L3,18 L0,18 Z " fill="#000000" transform="translate(613,203)"/>
<path d="M0,0 L7,0 L10,4 L10,18 L0,19 L-4,16 L-4,11 L0,8 L7,7 L7,3 L0,4 L-1,6 L-4,5 L-2,1 Z M6,9 L-1,11 L-1,16 L5,16 L7,14 L7,9 Z " fill="#000000" transform="translate(634,203)"/>
<path d="M0,0 L6,0 L9,2 L9,5 L2,3 L0,3 L0,7 L7,8 L10,11 L9,17 L5,19 L-1,18 L-3,16 L-3,13 L1,15 L6,15 L7,11 L-2,9 L-3,3 Z " fill="#000000" transform="translate(651,203)"/>
<path d="M0,0 L7,1 L10,5 L10,10 L-3,10 L0,15 L7,15 L7,13 L10,14 L7,18 L1,19 L-4,16 L-6,9 L-4,3 Z M1,2 L-2,4 L-3,8 L7,8 L6,3 Z " fill="#000000" transform="translate(702,203)"/>
<path d="M0,0 L9,0 L9,3 L4,3 L3,18 L0,18 Z " fill="#000000" transform="translate(715,203)"/>
<path d="M0,0 L6,0 L9,2 L10,18 L6,17 L3,19 L-3,18 L-5,15 L-4,10 L5,7 L7,7 L6,3 L-1,3 L-2,6 L-4,5 L-2,1 Z M6,9 L-1,11 L-2,15 L-1,16 L6,15 L7,9 Z " fill="#000000" transform="translate(730,203)"/>
<path d="M0,0 L2,0 L2,18 L-1,18 L-1,1 Z " fill="#000000" transform="translate(744,203)"/>
<path d="M0,0 L6,0 L9,3 L9,5 L6,5 L6,3 L-1,3 L0,6 L9,10 L10,14 L5,19 L-1,18 L-4,15 L-4,13 L-1,13 L0,15 L6,15 L6,12 L-3,8 L-4,4 Z " fill="#000000" transform="translate(753,203)"/>
<path d="M0,0 L2,2 L3,8 L0,8 Z " fill="#000000" transform="translate(0,205)"/>
<path d="M0,0 L17,0 L17,2 L0,2 Z " fill="#000000" transform="translate(773,212)"/>
<path d="M0,0 L5,0 L5,33 L-2,33 L-9,34 L-15,29 L-17,24 L-16,15 L-13,10 L-8,8 L-2,9 L-1,10 Z M-8,12 L-12,17 L-12,25 L-8,30 L-2,29 L0,26 L0,16 L-4,12 Z " fill="#000000" transform="translate(33,306)"/>
<path d="M0,0 L5,0 L5,5 L0,5 Z " fill="#000000" transform="translate(104,306)"/>
<path d="M0,0 L5,0 L5,5 L0,5 Z " fill="#000000" transform="translate(303,306)"/>
<path d="M0,0 L2,0 L2,8 L6,8 L5,12 L2,12 L2,28 L6,28 L6,32 L2,33 L-3,30 L-3,12 L-7,11 L-8,13 L-13,14 L-14,17 L-15,32 L-19,32 L-19,8 L-14,9 L-9,7 L-3,8 L-3,2 Z " fill="#000000" transform="translate(294,307)"/>
<path d="M0,0 L7,1 L12,5 L13,7 L13,14 L-4,14 L-2,20 L5,21 L7,21 L9,17 L13,18 L11,23 L5,26 L-3,25 L-8,20 L-9,18 L-9,9 L-6,3 Z M0,4 L-4,8 L-4,11 L8,11 L7,6 L4,4 Z " fill="#000000" transform="translate(51,314)"/>
<path d="M0,0 L9,1 L12,5 L13,25 L8,25 L5,25 L-3,26 L-8,23 L-9,22 L-9,16 L-5,12 L4,10 L7,10 L6,6 L0,5 L-4,9 L-8,8 L-7,4 L-4,1 Z M3,14 L-3,16 L-4,21 L-3,22 L3,22 L7,19 L7,14 Z " fill="#000000" transform="translate(122,314)"/>
<path d="M0,0 L8,1 L11,4 L11,8 L7,8 L4,5 L-2,6 L-2,8 L11,13 L12,15 L12,21 L8,25 L-1,26 L-7,22 L-8,18 L-3,17 L-2,20 L5,21 L7,20 L7,17 L-5,13 L-7,10 L-6,3 Z " fill="#000000" transform="translate(146,314)"/>
<path d="M0,0 L7,1 L12,6 L13,14 L-5,14 L-2,20 L4,21 L8,17 L13,18 L10,23 L5,26 L-4,25 L-9,19 L-10,12 L-8,5 L-3,1 Z M0,4 L-4,7 L-4,11 L8,11 L7,6 L4,4 Z " fill="#000000" transform="translate(184,314)"/>
<path d="M0,0 L8,1 L12,5 L12,8 L7,7 L7,5 L-2,5 L-2,9 L10,12 L13,16 L12,22 L9,25 L0,26 L-5,23 L-7,21 L-6,17 L-3,17 L0,21 L6,21 L7,17 L-4,13 L-7,9 L-6,4 L-3,1 Z " fill="#000000" transform="translate(207,314)"/>
<path d="M0,0 L6,1 L11,7 L11,19 L6,25 L-1,26 L-5,24 L-5,34 L-10,34 L-10,1 L-5,2 Z M-1,4 L-5,8 L-6,14 L-4,20 L-2,22 L3,22 L6,19 L7,10 L4,5 Z " fill="#000000" transform="translate(234,314)"/>
<path d="M0,0 L7,1 L12,6 L13,8 L13,18 L9,24 L4,26 L-4,25 L-8,21 L-10,16 L-9,7 L-5,2 Z M0,4 L-5,9 L-5,17 L-1,22 L6,21 L8,18 L8,8 L6,5 Z " fill="#000000" transform="translate(258,314)"/>
<path d="M0,0 L9,1 L12,5 L13,25 L8,25 L5,25 L-3,26 L-8,23 L-9,22 L-9,16 L-5,12 L4,10 L7,10 L6,6 L0,5 L-4,9 L-8,8 L-7,4 L-4,1 Z M3,14 L-3,16 L-4,21 L-3,22 L3,22 L7,19 L7,14 Z " fill="#000000" transform="translate(344,314)"/>
<path d="M0,0 L8,1 L11,4 L11,8 L7,8 L4,5 L-2,6 L-2,8 L11,13 L12,15 L12,21 L8,25 L-1,26 L-7,22 L-8,18 L-3,17 L-2,20 L5,21 L7,20 L7,17 L-5,13 L-7,10 L-6,3 Z " fill="#000000" transform="translate(368,314)"/>
<path d="M0,0 L5,0 L10,14 L10,17 L12,17 L14,8 L17,0 L22,0 L19,10 L14,23 L9,24 L4,13 L0,2 Z " fill="#000000" transform="translate(79,315)"/>
<path d="M0,0 L5,0 L5,24 L0,24 Z " fill="#000000" transform="translate(104,315)"/>
<path d="M0,0 L5,0 L5,24 L0,24 Z " fill="#000000" transform="translate(303,315)"/>
<path d="M0,0 L5,0 L10,14 L10,17 L12,17 L14,8 L17,0 L22,0 L19,10 L14,23 L9,24 L4,13 L0,2 Z " fill="#000000" transform="translate(311,315)"/>
<path d="M0,0 L7,0 L8,10 L12,8 L18,9 L23,15 L24,22 L22,29 L16,34 L9,33 L6,33 L0,33 Z M9,14 L7,16 L7,26 L9,28 L14,28 L16,26 L17,20 L15,15 L14,14 Z " fill="#000000" transform="translate(188,383)"/>
<path d="M0,0 L6,0 L6,6 L0,6 Z " fill="#000000" transform="translate(242,383)"/>
<path d="M0,0 L6,0 L6,33 L0,33 L-3,33 L-9,34 L-14,31 L-17,27 L-17,15 L-12,9 L-6,8 L-1,10 Z M-8,14 L-10,16 L-10,26 L-8,28 L-3,28 L0,23 L-1,16 L-3,14 Z " fill="#000000" transform="translate(334,383)"/>
<path d="M0,0 L7,0 L7,6 L0,6 Z " fill="#000000" transform="translate(425,383)"/>
<path d="M0,0 L6,0 L6,33 L0,33 L-3,33 L-9,34 L-14,31 L-17,27 L-17,15 L-12,9 L-6,8 L-1,10 Z M-8,14 L-10,16 L-10,26 L-8,28 L-3,28 L0,23 L-1,16 L-3,14 Z " fill="#000000" transform="translate(454,383)"/>
<path d="M0,0 L7,0 L7,33 L1,33 L1,31 L-5,34 L-11,33 L-16,28 L-17,25 L-17,17 L-14,11 L-8,8 L-2,9 L-1,10 Z M-7,14 L-10,17 L-10,24 L-7,28 L-2,28 L0,25 L0,17 L-2,14 Z " fill="#000000" transform="translate(507,383)"/>
<path d="M0,0 L7,0 L7,33 L1,33 L1,31 L-5,34 L-11,33 L-16,28 L-17,25 L-17,17 L-14,11 L-8,8 L-2,9 L-1,10 Z M-7,14 L-10,17 L-10,24 L-7,28 L-2,28 L0,25 L0,17 L-2,14 Z " fill="#000000" transform="translate(573,383)"/>
<path d="M0,0 L7,0 L7,6 L0,6 Z " fill="#000000" transform="translate(649,383)"/>
<path d="M0,0 L9,1 L13,5 L13,7 L7,8 L1,6 L-1,6 L0,8 L10,11 L14,15 L13,22 L9,25 L0,26 L-5,24 L-9,19 L-6,17 L-1,18 L-1,20 L7,20 L7,17 L-3,15 L-8,10 L-7,4 L-4,1 Z " fill="#000000" transform="translate(49,391)"/>
<path d="M0,0 L8,1 L13,6 L13,9 L6,9 L5,7 L0,7 L-1,8 L-1,18 L0,19 L5,19 L7,16 L13,16 L14,18 L10,24 L5,26 L-3,25 L-8,21 L-9,18 L-9,8 L-5,2 Z " fill="#000000" transform="translate(89,391)"/>
<path d="M0,0 L7,1 L13,6 L14,9 L14,17 L11,22 L7,25 L-1,26 L-7,23 L-11,17 L-11,10 L-8,4 L-4,1 Z M-1,6 L-4,10 L-4,16 L-1,20 L4,20 L7,17 L7,9 L4,6 Z " fill="#000000" transform="translate(116,391)"/>
<path d="M0,0 L6,1 L9,3 L14,0 L20,1 L23,4 L24,7 L24,25 L17,25 L16,6 L11,7 L10,10 L9,25 L2,25 L2,6 L-4,8 L-5,25 L-12,25 L-12,1 L-6,1 L-6,3 Z " fill="#000000" transform="translate(146,391)"/>
<path d="M0,0 L9,1 L13,5 L14,25 L7,25 L4,25 L-3,26 L-7,24 L-9,20 L-8,15 L-5,12 L5,9 L5,7 L-1,6 L-2,9 L-8,8 L-6,3 L-4,1 Z M4,14 L-1,16 L-1,20 L3,21 L6,19 L6,14 Z " fill="#000000" transform="translate(223,391)"/>
<path d="M0,0 L9,1 L13,5 L14,25 L7,25 L4,25 L-3,26 L-7,24 L-9,20 L-8,15 L-5,12 L5,9 L5,7 L-1,6 L-2,9 L-8,8 L-6,3 L-4,1 Z M4,14 L-1,16 L-1,20 L3,21 L6,19 L6,14 Z " fill="#000000" transform="translate(287,391)"/>
<path d="M0,0 L6,1 L10,6 L10,25 L3,25 L2,6 L-5,7 L-6,25 L-13,25 L-13,2 L-12,1 L-6,1 L-3,1 Z " fill="#000000" transform="translate(384,391)"/>
<path d="M0,0 L9,1 L13,5 L13,7 L7,8 L1,6 L-1,6 L0,8 L10,11 L14,15 L13,22 L9,25 L0,26 L-5,24 L-9,19 L-6,17 L-1,18 L-1,20 L7,20 L7,17 L-3,15 L-8,10 L-7,4 L-4,1 Z " fill="#000000" transform="translate(406,391)"/>
<path d="M0,0 L9,1 L13,5 L14,25 L7,25 L4,25 L-3,26 L-7,24 L-9,20 L-8,15 L-5,12 L5,9 L5,7 L-1,6 L-2,9 L-8,8 L-6,3 L-4,1 Z M4,14 L-1,16 L-1,20 L3,21 L6,19 L6,14 Z " fill="#000000" transform="translate(473,391)"/>
<path d="M0,0 L7,1 L12,5 L13,8 L13,15 L-2,15 L0,19 L3,20 L6,17 L13,18 L11,23 L5,26 L-1,26 L-7,22 L-9,18 L-9,8 L-5,2 Z M0,6 L-2,8 L-2,11 L7,11 L5,6 Z " fill="#000000" transform="translate(527,391)"/>
<path d="M0,0 L7,1 L12,5 L13,8 L13,15 L-2,15 L0,19 L3,20 L6,17 L13,18 L11,23 L5,26 L-1,26 L-7,22 L-9,18 L-9,8 L-5,2 Z M0,6 L-2,8 L-2,11 L7,11 L5,6 Z " fill="#000000" transform="translate(593,391)"/>
<path d="M0,0 L9,1 L13,5 L14,25 L7,25 L4,25 L-3,26 L-7,24 L-9,20 L-8,15 L-5,12 L5,9 L5,7 L-1,6 L-2,9 L-8,8 L-6,3 L-4,1 Z M4,14 L-1,16 L-1,20 L3,21 L6,19 L6,14 Z " fill="#000000" transform="translate(669,391)"/>
<path d="M0,0 L9,1 L13,5 L13,7 L7,8 L1,6 L-1,6 L0,8 L10,11 L14,15 L13,22 L9,25 L0,26 L-5,24 L-9,19 L-6,17 L-1,18 L-1,20 L7,20 L7,17 L-3,15 L-8,10 L-7,4 L-4,1 Z " fill="#000000" transform="translate(694,391)"/>
<path d="M0,0 L5,1 L4,7 L-2,8 L-3,10 L-4,25 L-10,25 L-10,1 L-4,1 L-2,1 Z " fill="#000000" transform="translate(10,391)"/>
<path d="M0,0 L7,1 L12,6 L13,15 L-3,15 L-1,19 L5,20 L6,17 L12,18 L11,22 L8,25 L-1,26 L-7,23 L-10,17 L-10,10 L-7,4 L-4,1 Z M-1,6 L-3,11 L6,11 L5,7 L4,6 Z " fill="#000000" transform="translate(25,391)"/>
<path d="M0,0 L6,0 L6,24 L0,24 Z " fill="#000000" transform="translate(242,392)"/>
<path d="M0,0 L8,0 L12,5 L16,0 L24,0 L20,7 L17,12 L25,23 L25,24 L16,24 L13,19 L11,19 L8,24 L0,24 L5,15 L7,11 Z " fill="#000000" transform="translate(252,392)"/>
<path d="M0,0 L7,1 L12,6 L13,15 L-3,15 L-1,19 L5,20 L6,17 L12,18 L11,22 L8,25 L-1,26 L-7,23 L-10,17 L-10,10 L-7,4 L-4,1 Z M-1,6 L-3,11 L6,11 L5,7 L4,6 Z " fill="#000000" transform="translate(354,391)"/>
<path d="M0,0 L7,0 L7,24 L0,24 Z " fill="#000000" transform="translate(425,392)"/>
<path d="M0,0 L7,0 L13,13 L18,0 L25,0 L22,10 L16,24 L9,24 L0,1 Z " fill="#000000" transform="translate(621,392)"/>
<path d="M0,0 L7,0 L7,24 L0,24 Z " fill="#000000" transform="translate(649,392)"/>
<path d="M0,0 L632,0 L632,5 L0,5 Z " fill="#000000" transform="translate(78,421)"/>
<path d="M0,0 L5,0 L5,33 L-2,33 L-9,34 L-15,29 L-17,24 L-16,15 L-13,10 L-8,8 L-2,9 L-1,10 Z M-8,12 L-12,17 L-12,25 L-8,30 L-2,29 L0,26 L0,16 L-4,12 Z " fill="#000000" transform="translate(83,461)"/>
<path d="M0,0 L5,0 L5,33 L-2,33 L-9,34 L-15,29 L-17,24 L-16,15 L-13,10 L-8,8 L-2,9 L-1,10 Z M-8,12 L-12,17 L-12,25 L-8,30 L-2,29 L0,26 L0,16 L-4,12 Z " fill="#000000" transform="translate(264,461)"/>
<path d="M0,0 L5,0 L5,33 L0,32 L-3,34 L-10,33 L-15,28 L-16,26 L-16,16 L-12,10 L-8,8 L-2,9 L0,10 Z M-7,12 L-11,16 L-11,26 L-7,30 L-2,29 L1,24 L0,15 L-4,12 Z " fill="#000000" transform="translate(353,461)"/>
<path d="M0,0 L5,0 L5,33 L-2,33 L-9,34 L-15,29 L-17,24 L-16,15 L-13,10 L-8,8 L-2,9 L-1,10 Z M-8,12 L-12,17 L-12,25 L-8,30 L-2,29 L0,26 L0,16 L-4,12 Z " fill="#000000" transform="translate(674,461)"/>
<path d="M0,0 L5,0 L5,33 L0,32 L-3,34 L-10,33 L-15,28 L-16,26 L-16,16 L-12,10 L-8,8 L-2,9 L0,10 Z M-7,12 L-11,16 L-11,26 L-7,30 L-2,29 L1,24 L0,15 L-4,12 Z " fill="#000000" transform="translate(882,461)"/>
<path d="M0,0 L5,0 L5,33 L-2,33 L-9,34 L-15,29 L-17,24 L-16,15 L-13,10 L-8,8 L-2,9 L-1,10 Z M-8,12 L-12,17 L-12,25 L-8,30 L-2,29 L0,26 L0,16 L-4,12 Z " fill="#000000" transform="translate(949,461)"/>
<path d="M0,0 L5,0 L5,5 L0,5 Z " fill="#000000" transform="translate(1045,461)"/>
<path d="M0,0 L5,0 L5,33 L0,32 L-3,34 L-10,33 L-15,28 L-16,26 L-16,16 L-12,10 L-8,8 L-2,9 L0,10 Z M-7,12 L-11,16 L-11,26 L-7,30 L-2,29 L1,24 L0,15 L-4,12 Z " fill="#000000" transform="translate(1134,461)"/>
<path d="M0,0 L2,0 L2,8 L6,8 L5,12 L2,12 L2,28 L6,28 L6,32 L2,33 L-3,30 L-3,12 L-6,11 L-6,8 L-3,8 L-3,2 Z " fill="#000000" transform="translate(456,462)"/>
<path d="M0,0 L2,0 L2,8 L6,8 L6,12 L2,12 L2,28 L6,28 L7,32 L2,33 L-2,31 L-3,26 L-3,12 L-5,12 L-5,8 L-3,8 L-3,3 Z " fill="#000000" transform="translate(598,462)"/>
<path d="M0,0 L2,0 L2,8 L6,8 L5,12 L2,12 L2,28 L6,28 L6,32 L2,33 L-3,30 L-3,12 L-6,11 L-6,8 L-3,8 L-3,2 Z " fill="#000000" transform="translate(769,462)"/>
<path d="M0,0 L7,1 L11,5 L11,9 L7,9 L4,5 L-2,6 L-4,10 L-3,19 L-1,21 L4,21 L7,16 L12,17 L10,22 L7,25 L4,26 L6,31 L3,34 L-4,34 L-4,31 L1,31 L-2,28 L-2,26 L-8,21 L-9,19 L-9,7 L-5,2 Z " fill="#000000" transform="translate(13,469)"/>
<path d="M0,0 L7,1 L12,6 L13,8 L13,18 L9,24 L4,26 L-4,25 L-8,21 L-10,16 L-9,7 L-5,2 Z M0,4 L-5,9 L-5,17 L-1,22 L6,21 L8,18 L8,8 L6,5 Z " fill="#000000" transform="translate(36,469)"/>
<path d="M0,0 L8,1 L11,4 L12,7 L13,25 L8,25 L8,23 L2,26 L-4,26 L-8,24 L-10,18 L-7,13 L-3,11 L7,10 L6,6 L-1,5 L-5,9 L-9,7 L-6,2 Z M3,14 L-4,16 L-5,20 L-3,22 L3,22 L7,18 L7,14 Z " fill="#000000" transform="translate(102,469)"/>
<path d="M0,0 L8,1 L11,4 L11,8 L7,8 L4,5 L-2,6 L-2,8 L11,13 L12,15 L12,21 L8,25 L-1,26 L-7,22 L-8,18 L-3,17 L-2,20 L5,21 L7,20 L7,17 L-5,13 L-7,10 L-6,3 Z " fill="#000000" transform="translate(125,469)"/>
<path d="M0,0 L6,1 L11,7 L11,19 L6,25 L-1,26 L-5,24 L-5,34 L-10,34 L-10,1 L-5,2 Z M-1,4 L-5,8 L-6,14 L-4,20 L-2,22 L3,22 L6,19 L7,10 L4,5 Z " fill="#000000" transform="translate(167,469)"/>
<path d="M0,0 L8,1 L11,4 L12,7 L13,25 L8,25 L8,23 L2,26 L-4,26 L-8,24 L-10,18 L-7,13 L-3,11 L7,10 L6,6 L-1,5 L-5,9 L-9,7 L-6,2 Z M3,14 L-4,16 L-5,20 L-3,22 L3,22 L7,18 L7,14 Z " fill="#000000" transform="translate(191,469)"/>
<path d="M0,0 L5,1 L4,6 L-1,6 L-3,10 L-4,25 L-8,25 L-8,1 L-3,2 Z " fill="#000000" transform="translate(216,469)"/>
<path d="M0,0 L7,1 L12,5 L13,7 L13,14 L-4,14 L-2,20 L5,21 L7,21 L9,17 L13,18 L11,23 L5,26 L-3,25 L-8,20 L-9,18 L-9,9 L-6,3 Z M0,4 L-4,8 L-4,11 L8,11 L7,6 L4,4 Z " fill="#000000" transform="translate(231,469)"/>
<path d="M0,0 L7,1 L12,5 L13,7 L13,14 L-4,14 L-2,20 L5,21 L7,21 L9,17 L13,18 L11,23 L5,26 L-3,25 L-8,20 L-9,18 L-9,9 L-6,3 Z M0,4 L-4,8 L-4,11 L8,11 L7,6 L4,4 Z " fill="#000000" transform="translate(282,469)"/>
<path d="M0,0 L8,1 L11,4 L11,8 L7,8 L4,5 L-2,6 L-2,8 L11,13 L12,15 L12,21 L8,25 L-1,26 L-7,22 L-8,18 L-3,17 L-2,20 L5,21 L7,20 L7,17 L-5,13 L-7,10 L-6,3 Z " fill="#000000" transform="translate(306,469)"/>
<path d="M0,0 L7,1 L12,6 L13,8 L13,18 L9,24 L4,26 L-4,25 L-8,21 L-10,16 L-9,7 L-5,2 Z M0,4 L-5,9 L-5,17 L-1,22 L6,21 L8,18 L8,8 L6,5 Z " fill="#000000" transform="translate(372,469)"/>
<path d="M0,0 L8,1 L12,5 L12,8 L7,7 L7,5 L-2,5 L-2,9 L10,12 L13,16 L12,22 L9,25 L0,26 L-5,23 L-7,21 L-6,17 L-3,17 L0,21 L6,21 L7,17 L-4,13 L-7,9 L-6,4 L-3,1 Z " fill="#000000" transform="translate(410,469)"/>
<path d="M0,0 L7,1 L12,5 L13,7 L13,14 L-4,14 L-2,20 L5,21 L7,21 L9,17 L13,18 L11,23 L5,26 L-3,25 L-8,20 L-9,18 L-9,9 L-6,3 Z M0,4 L-4,8 L-4,11 L8,11 L7,6 L4,4 Z " fill="#000000" transform="translate(435,469)"/>
<path d="M0,0 L7,1 L12,5 L14,11 L13,19 L8,25 L-1,26 L-7,22 L-9,18 L-9,8 L-5,2 Z M0,4 L-4,8 L-5,14 L-2,21 L5,22 L9,17 L9,9 L4,4 Z " fill="#000000" transform="translate(473,469)"/>
<path d="M0,0 L5,1 L4,6 L-1,6 L-3,10 L-4,25 L-8,25 L-8,1 L-3,2 Z " fill="#000000" transform="translate(499,469)"/>
<path d="M0,0 L7,1 L11,4 L12,8 L7,9 L6,6 L0,5 L-3,8 L-3,18 L0,21 L6,20 L8,16 L12,16 L11,22 L5,26 L-1,26 L-7,22 L-9,17 L-9,9 L-6,3 Z " fill="#000000" transform="translate(529,469)"/>
<path d="M0,0 L7,1 L12,6 L13,8 L13,18 L9,24 L4,26 L-4,25 L-8,21 L-10,16 L-9,7 L-5,2 Z M0,4 L-5,9 L-5,17 L-1,22 L6,21 L8,18 L8,8 L6,5 Z " fill="#000000" transform="translate(552,469)"/>
<path d="M0,0 L6,1 L10,5 L10,25 L6,25 L5,9 L4,6 L0,5 L-3,6 L-4,8 L-5,25 L-10,25 L-10,1 L-6,1 L-6,3 Z " fill="#000000" transform="translate(579,469)"/>
<path d="M0,0 L7,1 L12,6 L13,14 L-5,14 L-2,20 L4,21 L8,17 L13,18 L10,23 L5,26 L-4,25 L-9,19 L-10,12 L-8,5 L-3,1 Z M0,4 L-4,7 L-4,11 L8,11 L7,6 L4,4 Z " fill="#000000" transform="translate(616,469)"/>
<path d="M0,0 L6,1 L10,5 L10,25 L6,25 L5,9 L4,6 L0,5 L-3,6 L-4,8 L-5,25 L-10,25 L-10,1 L-6,1 L-6,3 Z " fill="#000000" transform="translate(643,469)"/>
<path d="M0,0 L7,1 L12,5 L14,11 L13,19 L8,25 L-1,26 L-7,22 L-9,18 L-9,8 L-5,2 Z M0,4 L-4,8 L-5,14 L-2,21 L5,22 L9,17 L9,9 L4,4 Z " fill="#000000" transform="translate(692,469)"/>
<path d="M0,0 L7,1 L12,5 L14,11 L13,19 L8,25 L-1,26 L-7,22 L-9,18 L-9,8 L-5,2 Z M0,4 L-4,8 L-5,14 L-2,21 L5,22 L9,17 L9,9 L4,4 Z " fill="#000000" transform="translate(733,469)"/>
<path d="M0,0 L5,1 L4,6 L-1,6 L-2,8 L-3,25 L-8,25 L-8,1 L-3,2 Z " fill="#000000" transform="translate(786,469)"/>
<path d="M0,0 L9,1 L12,5 L13,25 L8,25 L5,25 L-3,26 L-8,23 L-9,22 L-9,16 L-5,12 L4,10 L7,10 L6,6 L0,5 L-4,9 L-8,8 L-7,4 L-4,1 Z M3,14 L-3,16 L-4,21 L-3,22 L3,22 L7,19 L7,14 Z " fill="#000000" transform="translate(801,469)"/>
<path d="M0,0 L7,1 L11,4 L12,8 L7,9 L6,6 L0,5 L-3,8 L-3,18 L0,21 L6,20 L8,16 L12,16 L11,22 L5,26 L6,32 L3,34 L-4,34 L-4,31 L1,30 L-1,28 L-1,25 L-6,23 L-9,17 L-9,9 L-6,3 Z " fill="#000000" transform="translate(827,469)"/>
<path d="M0,0 L9,1 L12,5 L13,25 L8,25 L5,25 L-3,26 L-8,23 L-9,22 L-9,16 L-5,12 L4,10 L7,10 L6,6 L0,5 L-4,9 L-8,8 L-7,4 L-4,1 Z M3,14 L-3,16 L-4,21 L-3,22 L3,22 L7,19 L7,14 Z " fill="#000000" transform="translate(850,469)"/>
<path d="M0,0 L7,1 L12,5 L14,11 L13,19 L8,25 L-1,26 L-7,22 L-9,18 L-9,8 L-5,2 Z M0,4 L-4,8 L-5,14 L-2,21 L5,22 L9,17 L9,9 L4,4 Z " fill="#000000" transform="translate(901,469)"/>
<path d="M0,0 L8,1 L11,4 L12,7 L13,25 L8,25 L8,23 L2,26 L-4,26 L-8,24 L-10,18 L-7,13 L-3,11 L7,10 L6,6 L-1,5 L-5,9 L-9,7 L-6,2 Z M3,14 L-4,16 L-5,20 L-3,22 L3,22 L7,18 L7,14 Z " fill="#000000" transform="translate(968,469)"/>
<path d="M0,0 L8,1 L12,5 L12,8 L7,7 L7,5 L-2,5 L-2,9 L10,12 L13,16 L12,22 L9,25 L0,26 L-5,23 L-7,21 L-6,17 L-3,17 L0,21 L6,21 L7,17 L-4,13 L-7,9 L-6,4 L-3,1 Z " fill="#000000" transform="translate(990,469)"/>
<path d="M0,0 L9,1 L12,5 L13,25 L8,25 L5,25 L-3,26 L-8,23 L-9,22 L-9,16 L-5,12 L4,10 L7,10 L6,6 L0,5 L-4,9 L-8,8 L-7,4 L-4,1 Z M3,14 L-3,16 L-4,21 L-3,22 L3,22 L7,19 L7,14 Z " fill="#000000" transform="translate(1063,469)"/>
<path d="M0,0 L8,1 L11,4 L11,8 L7,8 L4,5 L-2,6 L-2,8 L11,13 L12,15 L12,21 L8,25 L-1,26 L-7,22 L-8,18 L-3,17 L-2,20 L5,21 L7,20 L7,17 L-5,13 L-7,10 L-6,3 Z " fill="#000000" transform="translate(1087,469)"/>
<path d="M0,0 L5,1 L10,15 L12,13 L17,0 L22,0 L13,24 L8,24 L0,3 Z " fill="#000000" transform="translate(1021,470)"/>
<path d="M0,0 L5,0 L5,24 L0,24 Z " fill="#000000" transform="translate(1045,470)"/>
<path d="M0,0 L6,0 L2,6 L-3,6 Z " fill="#000000" transform="translate(19,514)"/>
<path d="M0,0 L4,0 L4,33 L0,33 Z " fill="#000000" transform="translate(156,514)"/>
<path d="M0,0 L4,0 L5,10 L10,8 L16,9 L19,12 L20,15 L20,33 L15,33 L14,13 L7,14 L5,18 L4,33 L0,33 Z " fill="#000000" transform="translate(166,514)"/>
<path d="M0,0 L4,0 L4,33 L0,33 Z " fill="#000000" transform="translate(297,514)"/>
<path d="M0,0 L8,1 L12,0 L11,4 L9,6 L0,4 L0,6 L-4,5 L-2,1 Z " fill="#000000" transform="translate(361,514)"/>
<path d="M0,0 L5,0 L5,33 L0,32 L-3,34 L-10,33 L-15,28 L-16,26 L-16,16 L-12,10 L-8,8 L-2,9 L0,10 Z M-7,12 L-11,16 L-11,26 L-7,30 L-2,29 L1,24 L0,15 L-4,12 Z " fill="#000000" transform="translate(683,514)"/>
<path d="M0,0 L5,0 L5,33 L0,33 Z " fill="#000000" transform="translate(832,514)"/>
<path d="M0,0 L5,0 L5,33 L-2,33 L-9,34 L-15,29 L-17,24 L-16,15 L-13,10 L-8,8 L-2,9 L-1,10 Z M-8,12 L-12,17 L-12,25 L-8,30 L-2,29 L0,26 L0,16 L-4,12 Z " fill="#000000" transform="translate(883,514)"/>
<path d="M0,0 L4,0 L4,5 L0,5 Z " fill="#000000" transform="translate(935,514)"/>
<path d="M0,0 L6,0 L2,6 L-2,6 Z " fill="#000000" transform="translate(955,514)"/>
<path d="M0,0 L5,0 L5,33 L0,33 Z " fill="#000000" transform="translate(1109,514)"/>
<path d="M0,0 L5,0 L5,5 L0,5 Z " fill="#000000" transform="translate(1119,514)"/>
<path d="M0,0 L7,1 L12,6 L13,14 L-5,14 L-2,20 L4,21 L8,17 L13,18 L10,23 L5,26 L-4,25 L-9,19 L-10,12 L-8,5 L-3,1 Z M0,4 L-4,7 L-4,11 L8,11 L7,6 L4,4 Z " fill="#000000" transform="translate(17,522)"/>
<path d="M0,0 L9,1 L12,5 L13,25 L8,25 L5,25 L-3,26 L-8,23 L-9,22 L-9,16 L-5,12 L4,10 L7,10 L6,6 L0,5 L-4,9 L-8,8 L-7,4 L-4,1 Z M3,14 L-3,16 L-4,21 L-3,22 L3,22 L7,19 L7,14 Z " fill="#000000" transform="translate(58,522)"/>
<path d="M0,0 L6,1 L9,3 L14,0 L20,1 L23,4 L24,7 L24,25 L19,25 L18,6 L14,5 L11,7 L10,25 L5,25 L4,5 L-2,6 L-4,10 L-5,25 L-9,25 L-9,1 L-4,2 Z " fill="#000000" transform="translate(101,522)"/>
<path d="M0,0 L7,1 L12,5 L13,7 L13,14 L-4,14 L-2,20 L5,21 L7,21 L9,17 L13,18 L11,23 L5,26 L-3,25 L-8,20 L-9,18 L-9,9 L-6,3 Z M0,4 L-4,8 L-4,11 L8,11 L7,6 L4,4 Z " fill="#000000" transform="translate(138,522)"/>
<path d="M0,0 L7,1 L12,5 L14,11 L13,19 L8,25 L-1,26 L-7,22 L-9,18 L-9,8 L-5,2 Z M0,4 L-4,8 L-5,14 L-2,21 L5,22 L9,17 L9,9 L4,4 Z " fill="#000000" transform="translate(199,522)"/>
<path d="M0,0 L5,1 L4,6 L-1,6 L-3,10 L-4,25 L-8,25 L-8,1 L-3,2 Z " fill="#000000" transform="translate(225,522)"/>
<path d="M0,0 L8,1 L12,5 L12,8 L7,7 L7,5 L-2,5 L-2,9 L10,12 L13,16 L12,22 L9,25 L0,26 L-5,23 L-7,21 L-6,17 L-3,17 L0,21 L6,21 L7,17 L-4,13 L-7,9 L-6,4 L-3,1 Z " fill="#000000" transform="translate(254,522)"/>
<path d="M0,0 L7,1 L12,5 L14,11 L13,19 L8,25 L-1,26 L-7,22 L-9,18 L-9,8 L-5,2 Z M0,4 L-4,8 L-5,14 L-2,21 L5,22 L9,17 L9,9 L4,4 Z " fill="#000000" transform="translate(279,522)"/>
<path d="M0,0 L7,1 L11,4 L12,8 L7,9 L6,6 L0,5 L-3,8 L-3,18 L0,21 L6,20 L8,16 L12,16 L11,22 L5,26 L6,32 L3,34 L-4,34 L-4,31 L1,30 L-1,28 L-1,25 L-6,23 L-9,17 L-9,9 L-6,3 Z " fill="#000000" transform="translate(340,522)"/>
<path d="M0,0 L9,1 L12,5 L13,25 L8,25 L5,25 L-3,26 L-8,23 L-9,22 L-9,16 L-5,12 L4,10 L7,10 L6,6 L0,5 L-4,9 L-8,8 L-7,4 L-4,1 Z M3,14 L-3,16 L-4,21 L-3,22 L3,22 L7,19 L7,14 Z " fill="#000000" transform="translate(363,522)"/>
<path d="M0,0 L7,1 L12,6 L13,8 L13,18 L9,24 L4,26 L-4,25 L-8,21 L-10,16 L-9,7 L-5,2 Z M0,4 L-5,9 L-5,17 L-1,22 L6,21 L8,18 L8,8 L6,5 Z " fill="#000000" transform="translate(389,522)"/>
<path d="M0,0 L6,1 L11,7 L11,19 L6,25 L-1,26 L-5,24 L-5,34 L-10,34 L-10,1 L-5,2 Z M-1,4 L-5,8 L-6,14 L-4,20 L-2,22 L3,22 L6,19 L7,10 L4,5 Z " fill="#000000" transform="translate(432,522)"/>
<path d="M0,0 L8,1 L11,4 L12,7 L13,25 L8,25 L8,23 L2,26 L-4,26 L-8,24 L-10,18 L-7,13 L-3,11 L7,10 L6,6 L-1,5 L-5,9 L-9,7 L-6,2 Z M3,14 L-4,16 L-5,20 L-3,22 L3,22 L7,18 L7,14 Z " fill="#000000" transform="translate(456,522)"/>
<path d="M0,0 L5,1 L4,6 L-1,6 L-2,8 L-3,25 L-8,25 L-8,1 L-3,2 Z " fill="#000000" transform="translate(481,522)"/>
<path d="M0,0 L8,1 L11,4 L12,7 L13,25 L8,25 L8,23 L2,26 L-4,26 L-8,24 L-10,18 L-7,13 L-3,11 L7,10 L6,6 L-1,5 L-5,9 L-9,7 L-6,2 Z M3,14 L-4,16 L-5,20 L-3,22 L3,22 L7,18 L7,14 Z " fill="#000000" transform="translate(497,522)"/>
<path d="M0,0 L7,1 L12,5 L14,11 L13,19 L8,25 L-1,26 L-7,22 L-9,18 L-9,8 L-5,2 Z M0,4 L-4,8 L-5,14 L-2,21 L5,22 L9,17 L9,9 L4,4 Z " fill="#000000" transform="translate(561,522)"/>
<path d="M0,0 L6,1 L9,4 L10,7 L10,25 L5,25 L4,5 L-3,6 L-5,10 L-6,25 L-10,25 L-10,1 L-5,2 Z " fill="#000000" transform="translate(589,522)"/>
<path d="M0,0 L8,1 L11,4 L12,7 L13,25 L8,25 L8,23 L2,26 L-4,26 L-8,24 L-10,18 L-7,13 L-3,11 L7,10 L6,6 L-1,5 L-5,9 L-9,7 L-6,2 Z M3,14 L-4,16 L-5,20 L-3,22 L3,22 L7,18 L7,14 Z " fill="#000000" transform="translate(612,522)"/>
<path d="M0,0 L8,1 L11,4 L11,8 L7,8 L4,5 L-2,6 L-2,8 L11,13 L12,15 L12,21 L8,25 L-1,26 L-7,22 L-8,18 L-3,17 L-2,20 L5,21 L7,20 L7,17 L-5,13 L-7,10 L-6,3 Z " fill="#000000" transform="translate(636,522)"/>
<path d="M0,0 L7,1 L12,5 L13,7 L13,14 L-4,14 L-2,20 L5,21 L7,21 L9,17 L13,18 L11,23 L5,26 L-3,25 L-8,20 L-9,18 L-9,9 L-6,3 Z M0,4 L-4,8 L-4,11 L8,11 L7,6 L4,4 Z " fill="#000000" transform="translate(702,522)"/>
<path d="M0,0 L7,1 L12,5 L13,7 L13,14 L-4,14 L-2,20 L5,21 L7,21 L9,17 L13,18 L11,23 L5,26 L-3,25 L-8,20 L-9,18 L-9,9 L-6,3 Z M0,4 L-4,8 L-4,11 L8,11 L7,6 L4,4 Z " fill="#000000" transform="translate(743,522)"/>
<path d="M0,0 L8,1 L11,4 L11,8 L7,8 L4,5 L-2,6 L-2,8 L11,13 L12,15 L12,21 L8,25 L-1,26 L-7,22 L-8,18 L-3,17 L-2,20 L5,21 L7,20 L7,17 L-5,13 L-7,10 L-6,3 Z " fill="#000000" transform="translate(767,522)"/>
<path d="M0,0 L7,1 L11,5 L11,9 L7,9 L4,5 L-2,6 L-4,10 L-3,19 L-1,21 L4,21 L7,16 L12,17 L10,22 L7,25 L-1,26 L-6,23 L-9,19 L-9,7 L-5,2 Z " fill="#000000" transform="translate(792,522)"/>
<path d="M0,0 L8,1 L11,4 L12,7 L13,25 L8,25 L8,23 L2,26 L-4,26 L-8,24 L-10,18 L-7,13 L-3,11 L7,10 L6,6 L-1,5 L-5,9 L-9,7 L-6,2 Z M3,14 L-4,16 L-5,20 L-3,22 L3,22 L7,18 L7,14 Z " fill="#000000" transform="translate(815,522)"/>
<path d="M0,0 L9,1 L12,5 L13,25 L8,25 L5,25 L-3,26 L-8,23 L-9,22 L-9,16 L-5,12 L4,10 L7,10 L6,6 L0,5 L-4,9 L-8,8 L-7,4 L-4,1 Z M3,14 L-3,16 L-4,21 L-3,22 L3,22 L7,19 L7,14 Z " fill="#000000" transform="translate(850,522)"/>
<path d="M0,0 L8,1 L11,4 L12,7 L13,25 L8,25 L8,23 L2,26 L-4,26 L-8,24 L-10,18 L-7,13 L-3,11 L7,10 L6,6 L-1,5 L-5,9 L-9,7 L-6,2 Z M3,14 L-4,16 L-5,20 L-3,22 L3,22 L7,18 L7,14 Z " fill="#000000" transform="translate(901,522)"/>
<path d="M0,0 L9,1 L12,5 L13,25 L8,25 L5,25 L-3,26 L-8,23 L-9,22 L-9,16 L-5,12 L4,10 L7,10 L6,6 L0,5 L-4,9 L-8,8 L-7,4 L-4,1 Z M3,14 L-3,16 L-4,21 L-3,22 L3,22 L7,19 L7,14 Z " fill="#000000" transform="translate(953,522)"/>
<path d="M0,0 L7,1 L11,5 L11,9 L7,9 L4,5 L-2,6 L-4,10 L-3,19 L-1,21 L4,21 L7,16 L12,17 L10,22 L7,25 L-1,26 L-6,23 L-9,19 L-9,7 L-5,2 Z " fill="#000000" transform="translate(995,522)"/>
<path d="M0,0 L7,1 L12,6 L13,8 L13,18 L9,24 L4,26 L-4,25 L-8,21 L-10,16 L-9,7 L-5,2 Z M0,4 L-5,9 L-5,17 L-1,22 L6,21 L8,18 L8,8 L6,5 Z " fill="#000000" transform="translate(1018,522)"/>
<path d="M0,0 L6,1 L10,5 L10,25 L6,25 L5,9 L4,6 L0,5 L-3,6 L-4,8 L-5,25 L-10,25 L-10,1 L-6,1 L-6,3 Z " fill="#000000" transform="translate(1045,522)"/>
<path d="M0,0 L8,1 L11,4 L11,8 L7,8 L4,5 L-2,6 L-2,8 L11,13 L12,15 L12,21 L8,25 L-1,26 L-7,22 L-8,18 L-3,17 L-2,20 L5,21 L7,20 L7,17 L-5,13 L-7,10 L-6,3 Z " fill="#000000" transform="translate(1067,522)"/>
<path d="M0,0 L7,1 L12,6 L13,8 L13,18 L9,24 L4,26 L-4,25 L-8,21 L-10,16 L-9,7 L-5,2 Z M0,4 L-5,9 L-5,17 L-1,22 L6,21 L8,18 L8,8 L6,5 Z " fill="#000000" transform="translate(1092,522)"/>
<path d="M0,0 L6,1 L8,2 L8,7 L4,5 L-1,6 L-2,8 L-2,18 L1,21 L6,20 L8,19 L8,24 L5,26 L-2,25 L-7,20 L-8,18 L-8,8 L-4,2 Z " fill="#000000" transform="translate(1136,522)"/>
<path d="M0,0 L4,0 L5,17 L7,20 L13,19 L14,17 L15,0 L20,0 L20,24 L15,24 L13,24 L6,25 L1,22 L0,20 Z " fill="#000000" transform="translate(307,523)"/>
<path d="M0,0 L20,0 L19,5 L9,16 L7,19 L21,20 L21,24 L-1,24 L0,19 L10,8 L12,5 L0,4 Z " fill="#000000" transform="translate(529,523)"/>
<path d="M0,0 L4,0 L4,31 L1,34 L-5,34 L-5,30 L-1,30 Z " fill="#000000" transform="translate(935,523)"/>
<path d="M0,0 L5,0 L5,24 L0,24 Z " fill="#000000" transform="translate(1119,523)"/>
<path d="M0,0 L9,2 L9,0 L12,0 L11,5 L6,6 L1,5 L-3,6 L-2,2 Z " fill="#000000" transform="translate(274,566)"/>
<path d="M0,0 L4,0 L4,5 L0,5 Z " fill="#000000" transform="translate(393,566)"/>
<path d="M0,0 L4,0 L4,5 L0,5 Z " fill="#000000" transform="translate(556,566)"/>
<path d="M0,0 L4,0 L4,33 L0,33 Z " fill="#000000" transform="translate(640,566)"/>
<path d="M0,0 L5,0 L5,33 L0,32 L-3,34 L-10,33 L-15,28 L-16,26 L-16,16 L-12,10 L-8,8 L-2,9 L0,10 Z M-7,12 L-11,16 L-11,26 L-7,30 L-2,29 L1,24 L0,15 L-4,12 Z " fill="#000000" transform="translate(738,566)"/>
<path d="M0,0 L4,0 L4,33 L0,33 Z " fill="#000000" transform="translate(889,566)"/>
<path d="M0,0 L4,0 L4,5 L0,5 Z " fill="#000000" transform="translate(899,566)"/>
<path d="M0,0 L9,2 L9,0 L12,0 L11,5 L6,6 L1,5 L-3,6 L-2,2 Z " fill="#000000" transform="translate(985,566)"/>
<path d="M0,0 L6,0 L21,23 L22,0 L27,0 L27,33 L21,33 L6,10 L5,33 L0,33 Z " fill="#000000" transform="translate(1092,566)"/>
<path d="M0,0 L2,0 L2,8 L6,8 L5,12 L2,12 L2,28 L6,28 L6,32 L2,33 L-3,30 L-3,12 L-5,12 L-5,8 L-3,8 L-3,2 Z " fill="#000000" transform="translate(5,567)"/>
<path d="M0,0 L2,0 L2,8 L6,8 L6,12 L2,12 L2,28 L6,28 L7,32 L2,33 L-2,31 L-3,26 L-3,12 L-5,12 L-5,8 L-3,8 L-3,3 Z " fill="#000000" transform="translate(828,567)"/>
<path d="M0,0 L7,1 L12,5 L14,11 L13,19 L8,25 L-1,26 L-7,22 L-9,18 L-9,8 L-5,2 Z M0,4 L-4,8 L-5,14 L-2,21 L5,22 L9,17 L9,9 L4,4 Z " fill="#000000" transform="translate(22,574)"/>
<path d="M0,0 L7,1 L12,5 L14,11 L13,19 L8,25 L-1,26 L-7,22 L-9,18 L-9,8 L-5,2 Z M0,4 L-4,8 L-5,14 L-2,21 L5,22 L9,17 L9,9 L4,4 Z " fill="#000000" transform="translate(73,574)"/>
<path d="M0,0 L6,1 L9,1 L13,1 L13,34 L8,34 L7,25 L0,26 L-6,22 L-8,18 L-8,8 L-4,2 Z M1,4 L-3,8 L-3,18 L1,22 L6,21 L9,17 L9,10 L6,5 Z " fill="#000000" transform="translate(148,574)"/>
<path d="M0,0 L7,1 L12,5 L13,7 L13,14 L-4,14 L-2,20 L5,21 L7,21 L9,17 L13,18 L11,23 L5,26 L-3,25 L-8,20 L-9,18 L-9,9 L-6,3 Z M0,4 L-4,8 L-4,11 L8,11 L7,6 L4,4 Z " fill="#000000" transform="translate(200,574)"/>
<path d="M0,0 L6,1 L10,5 L10,25 L6,25 L5,9 L4,6 L0,5 L-3,6 L-4,8 L-5,25 L-10,25 L-10,1 L-6,1 L-6,3 Z " fill="#000000" transform="translate(253,574)"/>
<path d="M0,0 L8,1 L11,4 L12,7 L13,25 L8,25 L8,23 L2,26 L-4,26 L-8,24 L-10,18 L-7,13 L-3,11 L7,10 L6,6 L-1,5 L-5,9 L-9,7 L-6,2 Z M3,14 L-4,16 L-5,20 L-3,22 L3,22 L7,18 L7,14 Z " fill="#000000" transform="translate(277,574)"/>
<path d="M0,0 L7,1 L12,5 L14,11 L13,19 L8,25 L-1,26 L-7,22 L-9,18 L-9,8 L-5,2 Z M0,4 L-4,8 L-5,14 L-2,21 L5,22 L9,17 L9,9 L4,4 Z " fill="#000000" transform="translate(302,574)"/>
<path d="M0,0 L8,1 L11,4 L11,8 L7,8 L4,5 L-2,6 L-2,8 L11,13 L12,15 L12,21 L8,25 L-1,26 L-7,22 L-8,18 L-3,17 L-2,20 L5,21 L7,20 L7,17 L-5,13 L-7,10 L-6,3 Z " fill="#000000" transform="translate(351,574)"/>
<path d="M0,0 L7,1 L12,6 L13,14 L-5,14 L-2,20 L4,21 L8,17 L13,18 L10,23 L5,26 L-4,25 L-9,19 L-10,12 L-8,5 L-3,1 Z M0,4 L-4,7 L-4,11 L8,11 L7,6 L4,4 Z " fill="#000000" transform="translate(376,574)"/>
<path d="M0,0 L8,1 L11,4 L12,7 L13,25 L8,25 L8,23 L2,26 L-4,26 L-8,24 L-10,18 L-7,13 L-3,11 L7,10 L6,6 L-1,5 L-5,9 L-9,7 L-6,2 Z M3,14 L-4,16 L-5,20 L-3,22 L3,22 L7,18 L7,14 Z " fill="#000000" transform="translate(411,574)"/>
<path d="M0,0 L6,1 L9,3 L14,0 L20,1 L23,5 L23,25 L19,25 L18,9 L17,6 L14,5 L11,6 L10,8 L9,25 L4,25 L3,6 L0,5 L-3,6 L-4,8 L-5,25 L-10,25 L-10,1 L-6,1 L-6,3 Z " fill="#000000" transform="translate(438,574)"/>
<path d="M0,0 L6,1 L9,3 L14,0 L20,1 L23,4 L24,7 L24,25 L19,25 L18,6 L14,5 L11,7 L10,25 L5,25 L4,5 L-2,6 L-4,10 L-5,25 L-9,25 L-9,1 L-4,2 Z " fill="#000000" transform="translate(501,574)"/>
<path d="M0,0 L9,1 L12,5 L13,25 L8,25 L5,25 L-3,26 L-8,23 L-9,22 L-9,16 L-5,12 L4,10 L7,10 L6,6 L0,5 L-4,9 L-8,8 L-7,4 L-4,1 Z M3,14 L-3,16 L-4,21 L-3,22 L3,22 L7,19 L7,14 Z " fill="#000000" transform="translate(538,574)"/>
<path d="M0,0 L8,1 L11,4 L11,8 L7,8 L4,5 L-2,6 L-2,8 L11,13 L12,15 L12,21 L8,25 L-1,26 L-7,22 L-8,18 L-3,17 L-2,20 L5,21 L7,20 L7,17 L-5,13 L-7,10 L-6,3 Z " fill="#000000" transform="translate(572,574)"/>
<path d="M0,0 L8,1 L11,4 L12,7 L13,25 L8,25 L8,23 L2,26 L-4,26 L-8,24 L-10,18 L-7,13 L-3,11 L7,10 L6,6 L-1,5 L-5,9 L-9,7 L-6,2 Z M3,14 L-4,16 L-5,20 L-3,22 L3,22 L7,18 L7,14 Z " fill="#000000" transform="translate(622,574)"/>
<path d="M0,0 L7,1 L12,5 L14,11 L13,19 L8,25 L-1,26 L-7,22 L-9,18 L-9,8 L-5,2 Z M0,4 L-4,8 L-5,14 L-2,21 L5,22 L9,17 L9,9 L4,4 Z " fill="#000000" transform="translate(680,574)"/>
<path d="M0,0 L7,1 L12,5 L13,7 L13,14 L-4,14 L-2,20 L5,21 L7,21 L9,17 L13,18 L11,23 L5,26 L-3,25 L-8,20 L-9,18 L-9,9 L-6,3 Z M0,4 L-4,8 L-4,11 L8,11 L7,6 L4,4 Z " fill="#000000" transform="translate(757,574)"/>
<path d="M0,0 L9,1 L12,5 L13,25 L8,25 L5,25 L-3,26 L-8,23 L-9,22 L-9,16 L-5,12 L4,10 L7,10 L6,6 L0,5 L-4,9 L-8,8 L-7,4 L-4,1 Z M3,14 L-3,16 L-4,21 L-3,22 L3,22 L7,19 L7,14 Z " fill="#000000" transform="translate(807,574)"/>
<path d="M0,0 L9,1 L12,5 L13,25 L8,25 L5,25 L-3,26 L-8,23 L-9,22 L-9,16 L-5,12 L4,10 L7,10 L6,6 L0,5 L-4,9 L-8,8 L-7,4 L-4,1 Z M3,14 L-3,16 L-4,21 L-3,22 L3,22 L7,19 L7,14 Z " fill="#000000" transform="translate(871,574)"/>
<path d="M0,0 L9,1 L12,5 L13,25 L8,25 L5,25 L-3,26 L-8,23 L-9,22 L-9,16 L-5,12 L4,10 L7,10 L6,6 L0,5 L-4,9 L-8,8 L-7,4 L-4,1 Z M3,14 L-3,16 L-4,21 L-3,22 L3,22 L7,19 L7,14 Z " fill="#000000" transform="translate(939,574)"/>
<path d="M0,0 L7,1 L11,5 L11,9 L7,9 L4,5 L-2,6 L-4,10 L-3,19 L-1,21 L4,21 L7,16 L12,17 L10,22 L7,25 L4,26 L6,31 L3,34 L-4,34 L-4,31 L1,31 L-2,28 L-2,26 L-8,21 L-9,19 L-9,7 L-5,2 Z " fill="#000000" transform="translate(965,574)"/>
<path d="M0,0 L7,1 L12,6 L13,8 L13,18 L9,24 L4,26 L-4,25 L-8,21 L-10,16 L-9,7 L-5,2 Z M0,4 L-5,9 L-5,17 L-1,22 L6,21 L8,18 L8,8 L6,5 Z " fill="#000000" transform="translate(988,574)"/>
<path d="M0,0 L7,1 L12,5 L13,7 L13,14 L-4,14 L-2,20 L5,21 L7,21 L9,17 L13,18 L11,23 L5,26 L-3,25 L-8,20 L-9,18 L-9,9 L-6,3 Z M0,4 L-4,8 L-4,11 L8,11 L7,6 L4,4 Z " fill="#000000" transform="translate(1013,574)"/>
<path d="M0,0 L8,1 L11,4 L11,8 L7,8 L4,5 L-2,6 L-2,8 L11,13 L12,15 L12,21 L8,25 L-1,26 L-7,22 L-8,18 L-3,17 L-2,20 L5,21 L7,20 L7,17 L-5,13 L-7,10 L-6,3 Z " fill="#000000" transform="translate(1037,574)"/>
<path d="M0,0 L7,1 L11,5 L11,14 L-5,14 L-2,20 L4,21 L8,17 L11,17 L11,22 L8,25 L-1,26 L-6,23 L-9,19 L-10,12 L-8,5 L-3,1 Z M0,4 L-4,7 L-4,11 L8,11 L7,6 L4,4 Z " fill="#000000" transform="translate(1133,574)"/>
<path d="M0,0 L4,0 L5,17 L7,20 L13,19 L14,17 L15,0 L20,0 L20,24 L15,24 L13,24 L6,25 L1,22 L0,20 Z " fill="#000000" transform="translate(91,575)"/>
<path d="M0,0 L4,0 L5,17 L7,20 L13,19 L14,17 L15,0 L20,0 L20,24 L15,24 L13,24 L6,25 L1,22 L0,20 Z " fill="#000000" transform="translate(167,575)"/>
<path d="M0,0 L4,0 L4,31 L1,34 L-5,34 L-5,30 L-1,30 Z " fill="#000000" transform="translate(393,575)"/>
<path d="M0,0 L4,0 L4,24 L0,24 Z " fill="#000000" transform="translate(556,575)"/>
<path d="M0,0 L5,0 L10,14 L10,17 L12,17 L14,8 L17,0 L22,0 L19,10 L14,23 L9,24 L4,13 L0,2 Z " fill="#000000" transform="translate(647,575)"/>
<path d="M0,0 L4,0 L5,17 L7,20 L13,19 L14,17 L15,0 L20,0 L20,24 L15,24 L13,24 L6,25 L1,22 L0,20 Z " fill="#000000" transform="translate(838,575)"/>
<path d="M0,0 L4,0 L4,24 L0,24 Z " fill="#000000" transform="translate(899,575)"/>
<path d="M0,0 L20,0 L19,5 L9,16 L7,19 L21,20 L21,24 L-1,24 L0,19 L10,8 L12,5 L0,4 Z " fill="#000000" transform="translate(907,575)"/>
<path d="M0,0 L5,0 L5,5 L0,5 Z " fill="#000000" transform="translate(1055,594)"/>
<path d="M0,0 L3,0 L1,6 L-2,15 L-2,29 L2,40 L3,44 L-1,43 L-7,31 L-8,27 L-8,17 L-4,6 Z " fill="#000000" transform="translate(239,618)"/>
<path d="M0,0 L7,1 L7,6 L1,6 L1,10 L6,10 L6,15 L1,15 L1,34 L-6,34 L-6,15 L-9,15 L-9,10 L-6,10 L-5,3 Z " fill="#000000" transform="translate(333,618)"/>
<path d="M0,0 L7,0 L13,3 L16,6 L17,10 L10,12 L7,8 L-1,8 L-4,14 L-4,21 L-1,27 L4,28 L8,26 L10,22 L16,23 L17,26 L13,32 L7,35 L0,35 L-8,31 L-12,23 L-12,12 L-9,6 L-3,1 Z " fill="#000000" transform="translate(406,618)"/>
<path d="M0,0 L9,1 L14,4 L16,7 L16,11 L9,12 L7,8 L-3,8 L-4,12 L-4,23 L-3,27 L4,28 L8,25 L9,22 L16,23 L15,29 L9,34 L6,35 L-1,35 L-7,32 L-11,27 L-13,20 L-12,10 L-8,4 Z " fill="#000000" transform="translate(535,618)"/>
<path d="M0,0 L9,1 L14,4 L16,7 L16,11 L9,12 L7,8 L-3,8 L-4,12 L-4,23 L-3,27 L4,28 L8,25 L9,22 L16,23 L15,29 L9,34 L6,35 L-1,35 L-7,32 L-11,27 L-13,20 L-12,10 L-8,4 Z " fill="#000000" transform="translate(694,618)"/>
<path d="M0,0 L4,1 L10,13 L11,17 L11,27 L7,38 L3,44 L0,44 L2,38 L5,29 L5,15 L1,4 Z " fill="#000000" transform="translate(782,618)"/>
<path d="M0,0 L5,0 L6,10 L10,8 L16,9 L21,15 L21,27 L16,33 L9,34 L0,33 Z M9,12 L5,16 L5,27 L8,30 L13,30 L16,27 L17,18 L14,13 Z " fill="#000000" transform="translate(116,619)"/>
<path d="M0,0 L7,0 L7,6 L0,6 Z " fill="#000000" transform="translate(342,619)"/>
<path d="M0,0 L9,0 L14,5 L14,12 L11,16 L15,18 L16,26 L12,32 L7,34 L-1,33 L-6,28 L-6,24 L0,23 L2,27 L7,27 L8,21 L7,19 L2,18 L2,13 L6,11 L7,6 L2,7 L0,10 L-6,9 L-5,4 Z " fill="#000000" transform="translate(433,619)"/>
<path d="M0,0 L9,0 L14,4 L15,11 L12,15 L16,19 L16,27 L12,32 L8,34 L-1,33 L-6,27 L-6,24 L0,23 L3,27 L8,26 L8,20 L2,18 L3,13 L7,11 L7,7 L4,6 L2,7 L1,10 L-5,9 L-4,3 Z " fill="#000000" transform="translate(561,619)"/>
<path d="M0,0 L7,0 L8,10 L12,8 L18,9 L23,14 L24,16 L24,26 L20,32 L16,34 L9,33 L7,33 L0,33 Z M9,14 L7,17 L7,24 L10,28 L15,28 L17,25 L17,17 L15,14 Z " fill="#000000" transform="translate(597,619)"/>
<path d="M0,0 L9,0 L14,4 L15,11 L12,15 L16,19 L16,27 L12,32 L8,34 L-1,33 L-6,27 L-6,24 L0,23 L3,27 L8,26 L8,20 L2,18 L3,13 L7,11 L7,7 L4,6 L2,7 L1,10 L-5,9 L-4,3 Z " fill="#000000" transform="translate(720,619)"/>
<path d="M0,0 L4,0 L4,5 L0,5 Z " fill="#000000" transform="translate(813,619)"/>
<path d="M0,0 L2,0 L2,8 L6,8 L6,12 L2,12 L2,28 L6,28 L7,32 L2,33 L-2,31 L-3,26 L-3,12 L-5,12 L-5,8 L-3,8 L-3,3 Z " fill="#000000" transform="translate(877,620)"/>
<path d="M0,0 L2,0 L2,8 L6,8 L5,12 L2,12 L2,28 L6,28 L6,32 L2,33 L-3,30 L-3,12 L-6,11 L-6,8 L-3,8 L-3,2 Z " fill="#000000" transform="translate(1005,620)"/>
<path d="M0,0 L6,1 L9,3 L14,0 L20,1 L23,4 L24,7 L24,25 L19,25 L18,6 L14,5 L11,7 L10,25 L5,25 L4,5 L-2,6 L-4,10 L-5,25 L-9,25 L-9,1 L-4,2 Z " fill="#000000" transform="translate(23,627)"/>
<path d="M0,0 L7,1 L12,6 L13,14 L-5,14 L-2,20 L4,21 L8,17 L13,18 L10,23 L5,26 L-4,25 L-9,19 L-10,12 L-8,5 L-3,1 Z M0,4 L-4,7 L-4,11 L8,11 L7,6 L4,4 Z " fill="#000000" transform="translate(76,627)"/>
<path d="M0,0 L8,1 L12,5 L12,8 L7,7 L7,5 L-2,5 L-2,9 L10,12 L13,16 L12,22 L9,25 L0,26 L-5,23 L-7,21 L-6,17 L-3,17 L0,21 L6,21 L7,17 L-4,13 L-7,9 L-6,4 L-3,1 Z " fill="#000000" transform="translate(99,627)"/>
<path d="M0,0 L7,1 L12,6 L13,8 L13,18 L9,24 L4,26 L-4,25 L-8,21 L-10,16 L-9,7 L-5,2 Z M0,4 L-5,9 L-5,17 L-1,22 L6,21 L8,18 L8,8 L6,5 Z " fill="#000000" transform="translate(150,627)"/>
<path d="M0,0 L7,1 L11,4 L12,8 L7,9 L6,6 L0,5 L-3,8 L-3,18 L0,21 L6,20 L8,16 L12,16 L11,22 L5,26 L6,32 L3,34 L-4,34 L-4,31 L1,30 L-1,28 L-1,25 L-6,23 L-9,17 L-9,9 L-6,3 Z " fill="#000000" transform="translate(175,627)"/>
<path d="M0,0 L7,1 L12,5 L14,11 L13,19 L8,25 L-1,26 L-7,22 L-9,18 L-9,8 L-5,2 Z M0,4 L-4,8 L-5,14 L-2,21 L5,22 L9,17 L9,9 L4,4 Z " fill="#000000" transform="translate(198,627)"/>
<path d="M0,0 L7,1 L12,6 L13,14 L-5,14 L-2,20 L4,21 L8,17 L13,18 L10,23 L5,26 L-4,25 L-9,19 L-10,12 L-8,5 L-3,1 Z M0,4 L-4,7 L-4,11 L8,11 L7,6 L4,4 Z " fill="#000000" transform="translate(278,627)"/>
<path d="M0,0 L5,1 L4,6 L-1,6 L-2,8 L-3,25 L-8,25 L-8,1 L-3,2 Z " fill="#000000" transform="translate(303,627)"/>
<path d="M0,0 L6,1 L9,1 L15,1 L15,29 L11,34 L8,35 L-1,35 L-6,32 L-8,27 L-6,26 L1,28 L8,29 L8,23 L5,25 L-2,25 L-7,20 L-8,18 L-8,7 L-3,1 Z M1,6 L-1,8 L-1,17 L2,20 L7,19 L9,15 L8,8 L6,6 Z " fill="#000000" transform="translate(362,627)"/>
<path d="M0,0 L9,1 L13,5 L14,25 L7,25 L4,25 L-3,26 L-7,24 L-9,20 L-8,15 L-5,12 L5,9 L5,7 L-1,6 L-2,9 L-8,8 L-6,3 L-4,1 Z M4,14 L-1,16 L-1,20 L3,21 L6,19 L6,14 Z " fill="#000000" transform="translate(476,627)"/>
<path d="M0,0 L7,1 L12,5 L13,7 L13,14 L-4,14 L-2,20 L5,21 L7,21 L9,17 L13,18 L11,23 L5,26 L-3,25 L-8,20 L-9,18 L-9,9 L-6,3 Z M0,4 L-4,8 L-4,11 L8,11 L7,6 L4,4 Z " fill="#000000" transform="translate(649,627)"/>
<path d="M0,0 L8,1 L13,7 L12,9 L6,9 L4,7 L-2,7 L-2,16 L0,19 L5,18 L6,16 L12,16 L13,19 L8,25 L-1,26 L-7,23 L-10,17 L-10,10 L-7,4 L-3,1 Z " fill="#000000" transform="translate(765,627)"/>
<path d="M0,0 L6,1 L9,4 L10,7 L10,25 L5,25 L4,5 L-3,6 L-5,10 L-6,25 L-10,25 L-10,1 L-5,2 Z " fill="#000000" transform="translate(859,627)"/>
<path d="M0,0 L9,1 L12,5 L13,25 L8,25 L5,25 L-3,26 L-8,23 L-9,22 L-9,16 L-5,12 L4,10 L7,10 L6,6 L0,5 L-4,9 L-8,8 L-7,4 L-4,1 Z M3,14 L-3,16 L-4,21 L-3,22 L3,22 L7,19 L7,14 Z " fill="#000000" transform="translate(894,627)"/>
<path d="M0,0 L6,1 L9,3 L14,0 L20,1 L23,4 L24,7 L24,25 L19,25 L18,6 L14,5 L11,7 L10,25 L5,25 L4,5 L-2,6 L-4,10 L-5,25 L-9,25 L-9,1 L-4,2 Z " fill="#000000" transform="translate(921,627)"/>
<path d="M0,0 L7,1 L12,5 L13,7 L13,14 L-4,14 L-2,20 L5,21 L7,21 L9,17 L13,18 L11,23 L5,26 L-3,25 L-8,20 L-9,18 L-9,9 L-6,3 Z M0,4 L-4,8 L-4,11 L8,11 L7,6 L4,4 Z " fill="#000000" transform="translate(958,627)"/>
<path d="M0,0 L6,1 L9,4 L10,7 L10,25 L5,25 L4,5 L-3,6 L-5,10 L-6,25 L-10,25 L-10,1 L-5,2 Z " fill="#000000" transform="translate(986,627)"/>
<path d="M0,0 L7,1 L12,5 L13,7 L13,14 L-4,14 L-2,20 L5,21 L7,21 L9,17 L13,18 L11,23 L5,26 L-3,25 L-8,20 L-9,18 L-9,9 L-6,3 Z M0,4 L-4,8 L-4,11 L8,11 L7,6 L4,4 Z " fill="#000000" transform="translate(1022,627)"/>
<path d="M0,0 L7,1 L11,4 L12,8 L7,9 L6,6 L0,5 L-3,8 L-3,18 L0,21 L6,20 L8,16 L12,16 L11,22 L5,26 L-1,26 L-7,22 L-9,17 L-9,9 L-6,3 Z " fill="#000000" transform="translate(1063,627)"/>
<path d="M0,0 L7,1 L12,5 L14,11 L13,19 L8,25 L-1,26 L-7,22 L-9,18 L-9,8 L-5,2 Z M0,4 L-4,8 L-5,14 L-2,21 L5,22 L9,17 L9,9 L4,4 Z " fill="#000000" transform="translate(1086,627)"/>
<path d="M0,0 L6,1 L9,3 L14,0 L20,1 L23,4 L24,7 L24,25 L19,25 L18,6 L14,5 L11,7 L10,25 L5,25 L4,5 L-2,6 L-4,10 L-5,25 L-9,25 L-9,1 L-4,2 Z " fill="#000000" transform="translate(1113,627)"/>
<path d="M0,0 L5,0 L5,24 L0,23 L-3,24 L-2,19 L-1,18 Z " fill="#000000" transform="translate(3,628)"/>
<path d="M0,0 L5,1 L10,15 L12,13 L17,0 L22,0 L13,24 L8,24 L0,3 Z " fill="#000000" transform="translate(245,628)"/>
<path d="M0,0 L7,0 L7,24 L0,24 Z " fill="#000000" transform="translate(342,628)"/>
<path d="M0,0 L4,0 L4,31 L1,34 L-5,34 L-5,30 L-1,30 Z " fill="#000000" transform="translate(813,628)"/>
<path d="M0,0 L5,0 L6,19 L11,20 L14,18 L15,0 L20,0 L20,24 L15,23 L11,25 L4,24 L1,21 L0,19 Z " fill="#000000" transform="translate(823,628)"/>
<path d="M0,0 L13,0 L13,6 L0,6 Z " fill="#000000" transform="translate(453,637)"/>
<path d="M0,0 L13,0 L13,6 L0,6 Z " fill="#000000" transform="translate(581,637)"/>
<path d="M0,0 L13,0 L13,6 L0,6 Z " fill="#000000" transform="translate(740,637)"/>
<path d="M0,0 L6,0 L6,7 L0,7 Z " fill="#000000" transform="translate(383,645)"/>
<path d="M0,0 L5,0 L5,9 L1,12 L0,9 L2,9 L2,6 L0,5 Z " fill="#000000" transform="translate(495,647)"/>
</svg>
