<?xml version="1.0" encoding="UTF-8"?>
<!-- Generator: visioncortex VTracer 0.6.12 -->
<svg version="1.1" xmlns="http://www.w3.org/2000/svg" width="706" height="470">
<path d="M0,0 L17,0 L21,6 L25,7 L25,0 L259,0 L267,1 L270,3 L270,5 L265,7 L274,10 L275,17 L272,19 L277,22 L285,22 L292,30 L298,33 L299,37 L304,39 L312,39 L316,44 L315,49 L311,52 L317,52 L321,55 L323,60 L327,65 L330,71 L342,73 L345,74 L345,72 L370,71 L375,76 L379,81 L381,87 L384,89 L388,103 L390,104 L407,105 L410,107 L410,110 L412,110 L416,116 L418,124 L420,124 L420,126 L428,126 L432,127 L441,126 L444,128 L444,126 L447,127 L455,125 L463,124 L470,125 L479,124 L483,122 L487,122 L487,470 L349,470 L353,456 L348,470 L201,470 L199,470 L-14,470 L-14,468 L-12,468 L-13,464 L-16,463 L-16,467 L-20,470 L-219,470 L-219,64 L-216,64 L-214,60 L-208,59 L-207,57 L-199,56 L-199,54 L-195,53 L-190,56 L-177,57 L-173,58 L-173,54 L-172,51 L-170,51 L-174,44 L-174,42 L-176,42 L-178,37 L-176,34 L-172,32 L-172,27 L-168,25 L-164,24 L-161,25 L-161,27 L-149,27 L-148,25 L-142,23 L-141,26 L-132,22 L-130,22 L-130,27 L-129,30 L-132,30 L-132,28 L-134,28 L-132,32 L-129,31 L-129,33 L-122,32 L-117,27 L-110,27 L-106,26 L-102,27 L-102,25 L-96,23 L-92,25 L-81,24 L-69,23 L-63,22 L-54,24 L-45,21 L-43,21 L-41,14 L-39,12 L-24,7 L-14,3 L-2,1 Z M259,10 L260,12 Z M-24,12 L-29,15 L-30,19 L-26,22 L-22,23 L-15,23 L-8,20 L-8,15 L-14,12 Z M243,21 Z M29,23 L26,172 L25,247 L25,390 L26,390 L27,381 L27,335 L28,195 L31,38 L31,23 Z M197,27 Z M-159,29 Z M-26,31 Z M80,31 L77,51 L72,96 L71,110 L71,152 L73,167 L78,183 L83,193 L87,196 L85,191 L79,179 L75,164 L73,140 L73,127 L75,90 L81,40 L81,31 Z M271,30 L267,32 L268,34 L272,35 L272,33 L274,33 L273,30 Z M-135,32 Z M265,32 Z M-33,34 L-43,77 L-43,82 L-41,78 L-32,40 L-32,34 Z M60,37 Z M252,41 Z M254,41 Z M-105,42 L-108,44 L-107,46 L-105,46 L-103,42 Z M-101,43 Z M240,48 Z M264,51 Z M-169,52 Z M192,60 Z M-25,61 Z M-66,69 Z M183,73 Z M11,77 Z M356,79 L357,84 L372,124 L381,148 L389,171 L394,189 L395,242 L398,261 L404,278 L406,279 L405,274 L401,263 L398,246 L397,234 L397,197 L395,182 L389,163 L381,141 L358,80 Z M342,81 L343,107 L347,163 L351,211 L355,246 L360,274 L365,290 L372,304 L383,316 L386,323 L386,336 L383,354 L373,390 L364,419 L365,423 L373,399 L384,360 L388,340 L388,320 L384,314 L375,304 L370,296 L364,280 L359,256 L356,232 L354,216 L349,161 L344,83 Z M-44,82 L-49,103 L-49,108 L-47,104 L-43,86 Z M303,87 L303,166 L302,168 L302,187 L298,240 L295,275 L294,295 L296,328 L297,338 L297,349 L294,362 L286,378 L283,383 L284,385 L292,372 L298,357 L299,352 L299,330 L297,307 L297,292 L299,256 L302,222 L305,180 L306,152 L305,100 L304,87 Z M-65,91 Z M114,96 Z M111,98 L112,100 Z M105,100 Z M102,101 Z M-50,108 L-53,120 L-53,125 L-51,121 L-49,113 L-49,108 Z M326,108 Z M326,110 Z M83,114 Z M90,121 L90,123 L93,122 Z M-54,125 L-58,141 L-58,147 L-56,143 L-53,130 L-53,125 Z M259,134 Z M-59,147 L-67,180 L-80,236 L-91,284 L-91,289 L-89,285 L-78,237 L-74,221 L-67,190 L-64,177 L-58,151 Z M16,157 Z M65,159 Z M207,160 Z M85,167 L86,172 L87,168 Z M308,172 Z M92,181 Z M87,196 L89,200 L98,208 L103,210 L98,205 L90,198 L89,196 Z M64,197 Z M-212,210 Z M103,210 L107,214 L126,223 L142,231 L144,230 L135,224 L111,213 L105,210 Z M-210,211 Z M-77,211 L-76,213 Z M-78,213 Z M165,226 Z M144,231 L150,239 L154,250 L155,263 L152,296 L146,349 L141,391 L138,419 L138,427 L139,427 L143,398 L152,317 L157,273 L157,251 L153,239 L146,231 Z M159,249 L160,252 L162,252 L161,249 Z M311,251 Z M290,257 Z M100,263 Z M392,274 Z M178,277 Z M406,279 L409,288 L416,299 L418,300 L416,295 L407,279 Z M143,284 Z M-92,289 L-99,318 L-101,327 L-101,332 L-99,328 L-91,294 L-91,289 Z M150,296 L151,298 Z M145,298 Z M418,300 L420,305 L422,308 L424,308 L425,313 L427,318 L429,315 L431,310 L438,308 L435,306 L425,303 L420,303 L419,300 Z M430,312 L432,314 L432,312 Z M432,314 Z M433,315 Z M434,316 L436,320 L438,321 L436,317 Z M438,321 L439,330 L441,329 L440,322 Z M438,330 Z M436,331 L430,334 L431,336 L438,332 Z M-102,332 L-106,350 L-104,350 L-101,337 L-101,332 Z M-121,332 L-123,334 L-121,334 L-121,352 L-124,353 L-117,353 L-119,351 L-120,332 Z M454,335 Z M443,335 L441,337 L442,338 L442,356 L445,355 L444,335 Z M453,336 Z M452,338 L451,339 L451,345 L453,346 L453,338 Z M461,338 L462,340 Z M462,340 L461,351 L463,349 L463,340 Z M453,346 Z M459,346 Z M454,348 Z M460,351 Z M459,353 Z M457,354 Z M455,355 Z M453,356 Z M-76,374 Z M282,385 L275,395 L268,405 L269,407 L273,402 L273,400 L275,400 L283,387 Z M28,393 Z M46,394 Z M0,395 Z M44,395 Z M10,396 Z M16,396 L15,398 L18,397 Z M19,396 L22,397 L23,405 L25,403 L24,398 L23,396 Z M32,396 Z M40,396 Z M-1,397 Z M57,397 Z M67,397 Z M72,397 Z M14,398 Z M34,398 Z M56,398 Z M68,398 L69,400 L71,400 L71,398 Z M77,398 Z M-8,399 Z M-2,399 L-1,401 Z M10,399 L10,403 L12,402 L12,399 Z M43,399 Z M-6,400 Z M13,400 Z M-8,401 Z M-1,401 Z M8,403 Z M-19,405 Z M22,405 Z M89,406 Z M101,406 Z M21,407 Z M31,407 L33,409 L33,407 Z M267,407 L263,412 L264,414 L268,409 Z M19,408 L20,410 L21,408 Z M40,408 L39,413 L43,413 L43,408 Z M2,409 Z M77,409 Z M18,410 Z M-17,411 Z M17,411 Z M28,411 Z M44,411 L45,413 Z M-31,413 Z M25,413 Z M14,414 L14,416 L25,416 L25,414 Z M40,414 Z M73,414 L75,416 L75,414 Z M262,414 L253,425 L244,437 L240,442 L241,444 L251,432 L263,416 Z M13,416 Z M346,416 Z M350,416 Z M-71,417 L-72,421 L-69,422 L-67,420 L-68,417 Z M72,417 L72,419 L75,419 L75,417 Z M345,417 L343,421 L344,427 L346,428 L346,417 Z M88,418 Z M353,418 L354,420 Z M19,419 Z M-76,420 Z M354,420 L353,430 L352,434 L355,431 L356,429 L355,420 Z M99,421 Z M2,422 L2,425 L4,422 Z M23,422 Z M99,423 Z M363,423 L355,446 L355,448 L357,448 L364,426 Z M-182,424 L-181,426 Z M85,424 Z M96,424 L97,426 L99,425 Z M100,424 Z M13,425 Z M262,425 L261,427 L272,428 L272,426 Z M15,426 Z M116,426 L117,428 Z M226,426 Z M-73,427 Z M18,427 L19,429 Z M99,427 L101,429 L102,427 Z M4,428 L5,430 Z M7,428 L9,430 L10,428 Z M28,428 Z M132,428 Z M260,428 L261,430 Z M346,428 L346,430 L349,429 Z M351,428 Z M-5,429 Z M12,429 L12,432 L14,432 L14,437 L18,439 L19,434 L18,430 Z M26,429 Z M116,429 Z M270,429 L271,431 Z M135,430 Z M138,430 Z M-126,431 L-128,432 L-127,435 L-122,432 Z M7,431 L7,434 Z M-3,432 Z M29,432 Z M131,432 Z M269,432 L270,434 Z M-4,433 Z M-1,433 Z M-77,434 Z M-6,434 Z M4,434 L6,436 L6,434 Z M32,434 Z M127,434 L126,435 L126,456 L127,456 L128,447 L128,434 Z M131,434 Z M351,434 Z M-128,435 Z M2,435 Z M268,435 Z M349,435 Z M347,436 Z M142,437 Z M267,437 L263,446 L266,445 L268,440 Z M345,437 Z M23,439 L24,441 L27,440 Z M117,439 Z M16,440 L17,444 L19,444 L21,451 L23,452 L22,447 L19,441 Z M1,441 Z M14,442 Z M129,442 L130,444 Z M170,442 Z M120,443 Z M33,446 L34,448 L36,447 Z M86,446 Z M118,447 Z M130,447 L129,449 L132,448 Z M138,450 Z M16,451 L15,454 L17,457 L21,457 L21,452 L17,453 Z M38,452 L38,454 L40,453 Z M173,452 Z M-21,453 L-21,456 L-24,457 L-23,459 L-15,459 L-14,461 L-13,458 L-15,456 L-20,455 L-18,454 Z M37,454 L35,455 L36,457 L38,457 Z M124,455 Z M39,457 L40,459 Z M159,457 Z M34,458 Z M181,458 L182,461 L186,462 L186,460 L188,460 L189,463 L191,460 Z M-29,459 L-29,461 L-31,462 L-26,461 L-25,459 Z M-24,460 Z M-7,460 Z M-32,462 Z M-18,462 Z M196,462 L197,464 Z M26,467 Z " fill="#000000" transform="translate(219,0)"/>
<path d="M0,0 L6,1 L8,3 L4,4 L3,8 L0,2 Z " fill="#000000" transform="translate(643,305)"/>
</svg>
