<?xml version="1.0" encoding="UTF-8"?>
<!-- Generator: visioncortex VTracer 0.6.12 -->
<svg version="1.1" xmlns="http://www.w3.org/2000/svg" width="706" height="493">
<path d="M0,0 L706,0 L706,493 L0,493 L0,270 L4,271 L0,269 Z M131,32 L130,36 L136,38 L144,66 L147,83 L147,107 L143,131 L140,152 L140,168 L142,182 L144,196 L146,196 L148,206 L152,221 L155,235 L156,243 L156,254 L155,257 L152,253 L149,258 L149,268 L147,268 L146,271 L148,273 L152,269 L149,278 L145,285 L140,283 L136,282 L138,285 L140,285 L140,287 L138,287 L140,291 L145,297 L147,295 L146,288 L154,274 L158,261 L159,245 L156,224 L146,187 L143,172 L143,149 L150,105 L150,86 L147,66 L141,45 L138,36 L140,36 L139,32 Z M244,41 L241,43 L242,47 L247,48 L250,46 L249,42 Z M97,43 L94,45 L95,48 L101,49 L105,47 L104,44 Z M184,73 Z M129,82 Z M129,85 Z M192,85 L190,86 L189,91 L192,93 L196,91 L198,90 L196,85 Z M179,88 L180,90 L182,89 Z M89,91 Z M219,91 Z M86,95 L87,98 L90,98 L91,95 Z M223,95 Z M225,95 Z M272,96 Z M176,97 Z M271,100 Z M238,102 L237,106 L239,106 Z M228,103 L227,106 L230,105 Z M304,106 Z M308,106 Z M280,108 Z M303,108 L301,110 L301,122 L298,123 L297,130 L295,130 L294,126 L292,131 L292,134 L301,131 L304,125 L306,125 L306,119 L306,116 L309,115 L310,119 L312,116 L312,110 L308,108 Z M130,109 Z M279,109 Z M296,110 Z M267,111 L265,113 L266,117 L270,118 L271,141 L272,154 L272,187 L270,192 L269,201 L273,203 L277,210 L279,210 L281,214 L282,218 L287,223 L294,234 L301,245 L306,254 L309,260 L309,268 L301,272 L300,276 L297,273 L291,275 L289,276 L288,280 L296,283 L301,285 L305,289 L304,285 L302,273 L308,271 L312,269 L312,261 L304,245 L297,234 L296,229 L294,229 L290,222 L287,221 L285,216 L279,207 L273,199 L275,192 L274,187 L277,186 L278,180 L276,180 L275,153 L275,136 L274,134 L273,121 L275,116 L274,111 Z M286,111 Z M218,112 Z M279,112 Z M285,112 Z M286,114 L286,117 L288,114 Z M293,114 L292,117 L297,118 L297,116 L295,116 L295,114 Z M222,115 L223,118 Z M277,117 Z M292,118 L293,120 Z M297,120 Z M313,120 Z M285,121 L283,126 L284,130 L288,129 L288,127 L286,127 L288,122 Z M312,122 Z M311,124 Z M240,127 L240,130 L242,127 Z M277,127 L278,129 L279,127 Z M279,128 L280,130 Z M410,128 L417,140 L422,148 L422,152 L426,152 L428,157 L436,170 L443,182 L455,202 L463,218 L473,239 L482,266 L486,291 L486,314 L483,333 L478,349 L474,359 L466,370 L461,379 L459,390 L458,413 L458,428 L460,429 L461,394 L464,378 L469,370 L475,362 L480,352 L482,346 L491,349 L493,350 L492,347 L483,343 L487,326 L489,307 L488,284 L484,264 L476,240 L465,216 L455,197 L447,183 L444,176 L441,175 L439,170 L427,151 L420,140 L412,128 Z M185,129 L184,132 L187,132 L186,129 Z M59,130 Z M216,130 Z M284,130 Z M287,130 L289,133 L291,133 L291,131 Z M61,131 Z M65,131 Z M197,131 Z M209,131 Z M188,132 L188,135 Z M192,132 Z M222,132 Z M230,132 L228,133 L228,135 L232,134 L232,132 Z M254,132 L256,138 L259,138 L258,133 Z M205,133 L202,137 L202,139 L207,138 L208,134 Z M279,133 L279,135 L277,135 L277,143 L281,141 L281,139 L283,138 L284,135 L282,133 Z M196,134 L196,136 L199,135 Z M210,134 L208,135 L208,139 L207,141 L209,144 L214,143 L216,136 L214,136 L214,134 Z M216,134 Z M343,133 L340,135 L346,135 L345,133 Z M339,135 Z M348,135 Z M62,136 L58,141 L56,142 L57,147 L62,146 L62,144 L67,144 L68,140 L70,140 L69,137 L66,137 L66,142 L64,141 L63,136 Z M268,136 L267,140 L270,139 L270,136 Z M166,137 L165,139 L168,138 Z M172,137 Z M200,137 Z M352,137 L351,140 L353,140 Z M222,138 L223,141 Z M308,138 L307,140 L309,140 Z M310,138 Z M75,139 Z M229,139 Z M326,138 L324,139 L324,142 L316,141 L314,142 L315,146 L317,145 L315,148 L316,154 L315,159 L316,161 L320,160 L320,162 L330,161 L332,161 L335,164 L341,161 L337,158 L338,155 L331,155 L330,149 L335,153 L338,152 L336,145 L331,146 L329,139 Z M230,140 Z M409,140 Z M69,141 Z M76,141 L76,143 L80,145 L78,141 Z M227,141 L227,143 L230,142 Z M71,142 Z M285,142 L281,146 L285,147 L286,144 L288,143 Z M352,142 L347,143 L342,143 L341,144 L342,153 L345,157 L347,157 L349,154 L350,147 L349,146 L354,144 Z M68,144 L69,151 L71,151 L72,144 Z M222,144 L220,148 L220,153 L224,152 L225,146 L224,144 Z M227,144 Z M309,144 L306,147 L311,146 L311,144 Z M79,146 Z M172,146 L173,148 Z M210,146 Z M66,147 Z M174,147 Z M203,147 L205,150 L206,147 Z M62,148 Z M171,148 Z M305,148 L303,155 L304,157 L306,157 L306,160 L309,159 L309,152 L306,152 L306,150 L308,150 L308,148 Z M174,149 L175,152 L177,150 Z M62,150 L61,154 L60,159 L59,161 L61,163 L63,164 L66,164 L67,159 L65,150 Z M171,150 Z M206,151 Z M98,152 Z M171,152 Z M268,152 Z M421,152 Z M172,153 Z M201,153 L200,155 L203,154 Z M226,153 L229,156 L228,153 Z M243,153 Z M419,153 Z M81,154 Z M104,154 Z M263,154 Z M77,155 L78,157 Z M101,155 Z M106,155 Z M199,155 Z M339,155 Z M350,155 L349,157 L351,157 Z M229,156 Z M259,156 L260,158 Z M310,156 L310,158 L312,157 Z M507,157 Z M590,157 L588,159 L589,163 L593,164 L603,190 L617,219 L625,232 L630,239 L631,237 L622,222 L616,212 L603,183 L595,162 L597,162 L596,158 L595,157 Z M206,158 Z M291,158 L292,160 Z M347,158 L344,159 L345,162 L348,165 L351,165 L351,167 L353,166 L352,159 Z M422,157 L420,158 L420,160 L423,159 Z M267,159 L268,161 Z M312,159 Z M359,160 L359,163 L362,166 L364,164 L363,162 L361,162 L361,160 Z M78,161 L78,164 L76,164 L77,167 L79,166 L79,161 Z M304,161 L303,162 L303,167 L306,166 L305,161 Z M309,161 L307,164 L312,165 L313,163 L312,161 Z M233,162 L232,168 L234,168 L234,162 Z M325,162 L321,165 L321,167 L325,165 L327,162 Z M75,163 Z M250,163 L250,166 L252,165 L252,163 Z M292,163 L291,165 L293,165 Z M365,163 Z M62,164 Z M90,164 L91,166 Z M65,165 L65,168 L62,168 L62,174 L66,173 L66,171 L68,170 L68,165 Z M285,165 Z M308,165 L308,167 L310,166 Z M312,165 Z M332,165 Z M87,166 Z M247,166 Z M246,167 Z M289,168 Z M324,168 Z M127,169 L127,174 L132,178 L130,180 L133,180 L130,189 L132,189 L131,194 L132,197 L135,197 L135,199 L140,201 L140,198 L137,187 L135,183 L135,177 L137,176 L133,169 Z M173,169 Z M306,169 Z M76,170 Z M81,170 Z M243,170 L240,173 L239,175 L241,175 L241,177 L244,178 L250,176 L250,185 L252,186 L253,183 L253,170 L250,171 L250,173 L247,170 Z M80,171 Z M277,171 Z M12,173 Z M122,173 Z M224,173 L226,176 L226,174 L228,173 Z M290,173 Z M379,173 Z M66,174 L66,176 L68,176 L68,174 Z M120,174 L120,180 L121,180 L121,174 Z M173,174 L172,178 L174,182 L174,187 L176,187 L176,174 Z M288,174 L287,181 L290,182 L291,175 Z M6,175 Z M158,175 Z M208,175 Z M310,175 Z M2,176 Z M11,176 Z M196,176 Z M206,176 Z M373,176 Z M66,177 Z M128,177 Z M165,177 L164,183 L166,181 Z M168,177 Z M193,176 L191,178 L194,180 Z M247,177 Z M319,177 Z M64,178 Z M124,178 Z M160,178 L159,183 L161,182 Z M162,178 Z M307,178 L308,180 Z M172,179 L173,182 Z M245,179 L244,181 L246,181 Z M123,180 Z M281,180 L280,185 L281,190 L283,189 L283,185 L286,186 L285,181 Z M329,180 Z M179,181 L180,183 Z M235,181 Z M241,182 L240,184 L243,183 Z M3,183 Z M5,183 L4,185 L7,184 Z M22,183 Z M137,183 Z M236,183 L233,187 L234,189 L238,189 L238,195 L241,195 L241,186 L238,183 Z M336,183 L337,185 Z M7,184 L8,186 L11,185 Z M21,184 Z M126,184 Z M179,185 Z M307,185 L308,188 Z M334,185 L335,187 L336,185 Z M14,186 Z M162,186 Z M5,187 Z M15,187 Z M126,187 L127,189 Z M287,187 Z M300,187 L302,191 L305,190 L302,187 Z M330,187 L331,190 Z M350,187 Z M368,187 L368,189 L370,188 Z M349,189 Z M309,190 Z M329,190 Z M337,190 Z M126,191 Z M162,191 Z M287,191 L284,198 L287,197 L288,191 Z M365,191 Z M387,191 Z M231,192 L232,194 Z M347,192 L347,197 L350,198 L352,196 L349,192 Z M362,192 Z M475,191 L471,193 L471,195 L473,195 L473,193 L476,193 Z M575,192 L572,195 L574,199 L579,196 L579,193 Z M159,193 Z M343,193 L344,195 Z M210,194 L211,196 Z M360,194 L359,199 L361,198 Z M91,195 L91,198 L93,198 L93,200 L99,205 L102,204 L99,197 L92,195 Z M105,195 L105,197 L101,197 L102,200 L108,200 L107,205 L102,206 L103,208 L107,210 L108,214 L110,214 L111,209 L109,207 L112,203 L111,198 Z M178,195 L178,204 L183,204 L184,201 L180,201 L179,195 Z M277,195 L275,200 L278,203 L281,203 L280,199 L281,197 L280,195 Z M355,195 Z M581,195 L581,198 L579,199 L575,200 L572,201 L575,209 L582,209 L585,212 L589,212 L589,214 L586,213 L585,216 L588,216 L589,218 L592,218 L591,214 L592,212 L590,212 L592,209 L592,206 L595,207 L596,204 L591,203 L588,206 L587,202 L590,201 L590,198 L585,199 L585,195 Z M99,196 Z M299,196 L298,199 L301,198 L301,196 Z M362,196 Z M499,196 L500,198 L503,200 L506,205 L509,204 L507,204 L506,197 Z M565,196 L567,198 L567,196 Z M84,197 L84,204 L88,204 L89,206 L87,207 L88,212 L89,214 L87,216 L89,218 L86,221 L86,223 L88,224 L89,227 L93,228 L95,226 L93,225 L95,224 L95,222 L100,220 L99,216 L99,208 L92,202 L91,200 L89,200 L88,197 Z M206,197 Z M210,197 L211,205 L212,205 L212,199 Z M232,197 L229,201 L229,206 L228,209 L229,213 L228,220 L227,231 L232,234 L230,235 L230,237 L237,238 L239,237 L239,225 L240,222 L242,222 L242,220 L248,220 L249,214 L247,215 L245,218 L242,218 L241,213 L239,212 L239,206 L237,206 L236,208 L233,208 L233,197 Z M239,197 L239,199 L241,199 L241,197 Z M303,197 L302,199 L305,202 L310,201 L308,200 L308,197 Z M586,197 Z M596,197 Z M71,198 L69,200 L70,203 L70,201 L72,201 L73,198 Z M261,198 L259,204 L259,213 L256,211 L257,205 L254,205 L253,208 L253,216 L252,218 L253,229 L250,232 L248,233 L247,246 L247,262 L254,263 L257,261 L260,262 L258,269 L255,270 L255,268 L252,269 L255,272 L261,270 L261,265 L263,264 L262,262 L265,263 L265,260 L256,258 L253,258 L254,253 L258,253 L257,249 L255,246 L260,245 L259,248 L265,248 L266,246 L265,235 L264,230 L265,229 L267,229 L268,235 L270,235 L271,239 L273,241 L271,222 L270,217 L267,215 L269,215 L269,210 L266,207 L265,201 L263,201 L262,198 Z M282,198 L283,201 L282,205 L286,205 L287,202 L286,199 Z M345,198 L346,202 L348,199 Z M194,198 L189,201 L185,203 L192,206 L197,202 L196,198 Z M289,199 L289,202 L291,201 Z M324,199 L325,201 Z M362,199 L364,203 L364,199 Z M365,199 L366,201 Z M531,199 L532,201 L535,200 Z M73,200 L74,204 Z M157,200 Z M239,200 Z M333,200 L334,202 Z M596,200 Z M156,201 Z M163,201 L164,203 Z M351,201 Z M594,202 Z M154,203 Z M196,203 L195,206 L197,213 L198,213 L198,206 Z M333,203 Z M356,203 Z M66,204 L66,207 L68,207 L68,205 L70,204 Z M72,204 L70,208 L71,212 L76,210 L74,215 L76,215 L78,210 L78,206 L75,205 L75,207 L73,207 Z M159,204 L159,212 L161,212 L162,209 L161,204 Z M245,202 L238,204 L238,205 L243,206 L246,209 L246,202 Z M313,203 L308,205 L307,208 L308,210 L313,209 L313,207 L316,207 L316,210 L312,212 L313,218 L317,216 L320,208 L317,207 L317,205 Z M324,204 Z M155,205 Z M205,205 Z M287,205 L288,207 Z M373,205 Z M468,205 Z M497,205 Z M290,206 Z M298,206 Z M68,207 Z M162,207 Z M285,207 L287,209 L287,207 Z M82,208 L83,210 Z M84,208 L83,213 L85,213 L86,209 Z M141,208 L140,209 L140,221 L143,220 L143,209 Z M323,208 Z M498,208 Z M569,208 L568,210 L570,210 Z M571,208 L570,211 L573,210 Z M593,208 L594,210 L598,209 Z M67,209 L68,211 Z M164,209 L162,215 L160,214 L159,219 L162,231 L166,231 L166,227 L170,226 L170,217 L169,212 L171,209 Z M322,209 Z M180,210 L179,214 L181,218 L184,218 L184,230 L190,229 L192,235 L190,237 L191,239 L188,238 L186,239 L185,253 L183,254 L184,261 L181,262 L184,262 L182,269 L183,275 L185,281 L187,288 L189,288 L188,291 L191,303 L195,302 L196,309 L194,310 L198,311 L199,296 L199,286 L200,279 L202,278 L208,279 L208,283 L206,306 L205,305 L206,294 L205,283 L206,279 L203,280 L203,315 L206,318 L205,319 L205,330 L207,333 L207,331 L210,331 L211,346 L213,351 L218,349 L221,347 L221,349 L229,349 L229,351 L232,351 L232,357 L236,358 L236,354 L235,350 L232,345 L230,345 L229,343 L227,339 L226,335 L224,335 L223,329 L227,327 L228,323 L226,319 L224,323 L221,323 L222,317 L218,318 L215,323 L216,326 L219,327 L215,329 L211,330 L210,321 L210,313 L209,309 L209,307 L216,306 L216,300 L218,299 L218,297 L216,297 L216,294 L219,294 L218,285 L216,264 L209,265 L208,266 L201,265 L200,263 L192,263 L194,259 L189,261 L189,258 L192,257 L190,257 L189,248 L190,243 L197,241 L198,239 L203,237 L207,238 L206,242 L214,238 L211,233 L213,233 L214,228 L213,223 L211,219 L206,220 L205,218 L204,222 L208,222 L207,224 L207,229 L203,231 L200,230 L200,228 L202,228 L202,219 L199,220 L199,222 L195,220 L191,220 L191,225 L188,223 L188,216 L186,212 L181,212 Z M489,210 L490,212 Z M493,210 L495,213 L496,210 Z M577,210 Z M45,211 Z M63,211 Z M136,211 L137,213 Z M568,211 Z M597,211 L597,213 L595,213 L596,215 L599,213 Z M72,212 Z M101,212 Z M200,212 L201,214 Z M272,212 L272,215 L274,215 L273,212 Z M64,213 Z M68,213 L68,217 L66,217 L66,219 L70,218 L71,220 L73,215 L71,213 Z M135,213 L136,215 Z M432,213 L433,215 Z M170,214 Z M193,214 L189,216 L189,218 L194,217 Z M557,214 L558,217 L559,214 Z M125,215 Z M136,215 Z M302,215 L299,223 L304,222 L306,221 L305,216 Z M540,215 L543,217 L543,215 Z M544,215 Z M200,216 Z M211,216 L211,218 L213,218 L213,216 Z M430,216 Z M594,216 L595,221 L597,223 L597,217 Z M125,217 L126,219 Z M172,217 L172,237 L175,239 L175,217 Z M544,217 Z M273,218 L274,232 L276,241 L278,241 L279,243 L283,242 L287,247 L289,247 L286,250 L287,258 L292,257 L299,253 L294,249 L292,243 L290,243 L289,237 L284,232 L285,236 L283,236 L281,230 L280,223 L275,218 Z M392,218 Z M468,218 Z M570,218 L569,220 L573,219 Z M602,218 Z M68,219 L69,221 Z M107,219 L106,222 L108,222 Z M126,219 Z M128,219 L129,221 L132,219 Z M251,219 Z M395,219 Z M122,220 Z M430,220 L429,222 L433,222 L433,220 Z M545,220 L546,222 Z M598,220 L600,226 L603,225 L601,221 Z M66,221 Z M145,221 Z M244,221 Z M307,221 Z M44,222 L46,224 L48,222 Z M68,222 L66,225 L67,227 L69,227 L69,222 Z M126,222 L127,224 L129,222 Z M609,222 L610,227 L614,225 L612,222 Z M48,223 Z M189,223 Z M397,223 L397,225 L399,224 Z M43,224 Z M246,224 Z M301,224 Z M121,225 L122,228 L123,225 Z M147,225 L148,227 L149,225 Z M300,225 Z M296,226 L297,228 Z M299,226 Z M338,226 L339,229 L341,228 L340,226 Z M449,225 L449,227 L445,226 L446,229 L450,229 Z M46,227 Z M206,227 Z M432,227 L431,230 L434,230 L434,227 Z M67,228 L69,232 L69,228 Z M89,228 L89,230 L91,229 Z M100,228 Z M142,227 L139,230 L143,229 Z M145,228 Z M223,228 L224,230 Z M552,228 Z M19,229 Z M98,229 Z M144,229 Z M170,228 L168,230 L171,230 Z M249,229 Z M374,229 L375,231 Z M550,229 Z M92,230 Z M147,230 Z M250,230 Z M283,230 Z M603,230 Z M138,231 Z M140,231 Z M150,231 L150,233 L152,232 Z M245,231 Z M318,230 L316,231 L316,236 L319,237 L325,238 L325,236 L320,234 L319,230 Z M359,231 L359,242 L360,243 L366,243 L367,235 L365,235 L363,231 Z M599,231 Z M602,231 Z M105,232 L104,234 L108,234 L107,232 Z M129,232 Z M139,232 Z M166,232 L164,234 L169,233 Z M7,233 Z M119,233 Z M184,233 L185,237 L188,236 L188,234 Z M5,234 Z M93,234 L94,236 Z M395,234 Z M605,234 L603,237 L606,236 Z M120,235 Z M47,236 L47,238 L49,238 L49,236 Z M119,236 L119,241 L121,240 L120,236 Z M151,236 L152,239 Z M226,236 Z M340,236 Z M228,237 Z M343,236 L341,238 L344,240 Z M350,237 L351,239 Z M357,237 L358,239 Z M611,237 L609,239 L614,242 L616,246 L620,246 L619,242 L615,240 L613,237 Z M353,238 Z M396,238 Z M94,239 L93,242 L91,243 L95,244 L97,242 L97,239 Z M131,239 L131,242 L133,242 L133,239 Z M229,239 L228,246 L230,248 L236,248 L241,245 L240,240 L239,239 Z M351,239 Z M367,239 Z M371,238 L369,239 L369,245 L373,245 L372,238 Z M394,239 Z M460,239 L461,241 Z M631,239 L633,244 L643,258 L651,269 L663,287 L673,305 L682,326 L690,351 L697,378 L702,398 L704,400 L703,392 L693,352 L686,330 L681,317 L674,301 L663,282 L656,272 L644,255 L632,239 Z M42,239 L40,240 L42,249 L44,251 L42,252 L42,255 L47,257 L51,255 L50,251 L53,251 L52,249 L46,249 L46,247 L50,248 L49,245 L44,244 L43,239 Z M124,240 Z M221,240 L221,242 L224,241 Z M596,240 L596,244 L594,245 L600,249 L600,247 L603,250 L610,248 L606,246 L604,245 L606,244 L605,242 L602,243 L602,245 L600,244 L600,241 Z M46,241 Z M104,241 Z M396,241 L394,244 L397,245 L398,241 Z M459,241 L460,243 Z M461,241 L462,244 Z M103,242 Z M197,242 L197,244 L200,244 L200,242 Z M276,242 Z M339,242 L339,245 L341,245 L341,242 Z M451,242 L448,245 L449,248 L451,248 L452,253 L453,253 L453,247 L450,247 L450,245 L452,245 Z M31,243 Z M110,243 Z M119,243 L121,245 L121,243 Z M124,243 L125,246 L126,243 Z M131,243 L129,247 L127,247 L128,249 L130,249 L131,247 L133,248 L134,245 L133,243 Z M173,243 Z M223,243 L224,245 Z M243,243 L239,250 L230,251 L230,254 L234,256 L234,254 L236,254 L228,268 L226,258 L226,251 L223,251 L223,254 L218,253 L218,259 L220,259 L220,263 L218,263 L218,271 L220,287 L224,304 L226,307 L227,302 L226,295 L225,291 L224,281 L226,281 L228,273 L233,267 L237,259 L242,259 L242,262 L239,265 L242,267 L245,267 L244,250 L245,243 Z M277,243 L278,245 Z M279,243 L279,245 L281,245 L281,243 Z M318,243 L317,245 L319,250 L322,247 L320,246 L319,243 Z M35,244 Z M273,244 L272,246 L274,249 L274,244 Z M106,245 L104,246 L104,253 L103,256 L105,261 L103,267 L103,274 L106,273 L106,271 L108,271 L111,260 L113,250 L110,247 Z M347,245 Z M387,245 L388,248 L388,246 L390,245 Z M239,246 Z M277,246 L277,248 L279,248 L280,252 L282,252 L281,247 Z M139,247 Z M160,247 Z M183,247 Z M284,247 L284,252 L285,252 L285,247 Z M327,247 Z M95,248 Z M137,248 Z M140,248 L141,250 Z M143,248 Z M145,248 Z M161,248 L162,250 Z M175,248 Z M191,248 L191,251 L193,251 L193,248 Z M331,248 L332,251 L334,249 Z M458,248 Z M585,248 L585,252 L588,251 L587,248 Z M591,248 Z M93,249 L94,251 L96,250 Z M97,249 L98,251 Z M174,249 Z M444,249 L442,253 L442,256 L446,257 L446,249 Z M457,249 L457,251 L459,250 Z M4,250 Z M146,250 L145,255 L149,256 L151,252 Z M162,250 L163,253 L163,250 Z M173,250 Z M206,250 Z M269,250 L263,255 L265,260 L267,260 L270,254 L271,253 L271,250 Z M322,250 Z M593,250 L594,252 Z M91,251 Z M99,251 L100,253 Z M197,251 L197,253 L202,253 L202,251 Z M455,251 L454,255 L456,255 Z M571,251 Z M595,251 L595,253 L597,252 Z M97,252 Z M129,252 L130,255 Z M205,252 Z M209,252 Z M259,252 L258,254 L263,254 L263,252 Z M570,252 Z M119,253 L120,255 Z M138,252 L136,254 L138,254 L139,256 L141,255 L141,253 Z M164,253 L165,255 Z M172,251 L171,254 L166,253 L165,256 L168,259 L167,262 L171,262 L172,260 L174,264 L178,265 L177,258 L174,255 Z M208,253 Z M280,253 L282,258 L283,254 Z M597,253 L598,262 L601,283 L603,306 L606,342 L610,355 L619,366 L621,366 L623,372 L625,379 L626,388 L626,415 L625,435 L627,434 L628,419 L628,382 L625,370 L619,362 L613,355 L610,348 L607,328 L604,285 L600,256 L599,253 Z M211,254 L204,255 L198,256 L198,258 L202,258 L202,260 L211,259 L215,260 L216,255 Z M73,255 L74,258 L76,255 Z M96,255 Z M120,255 Z M191,255 Z M231,255 L230,257 L232,257 Z M411,255 L412,258 L414,257 L414,255 Z M586,255 Z M602,255 Z M130,256 Z M284,256 Z M295,256 Z M119,257 L120,259 L121,257 Z M129,257 L130,260 L130,257 Z M142,257 Z M294,257 L293,259 L297,260 L297,258 Z M595,257 Z M86,258 Z M181,258 Z M279,258 L280,261 Z M120,259 Z M134,259 L135,261 Z M336,259 L335,261 L337,261 Z M42,260 Z M89,260 Z M132,260 Z M141,260 L142,262 Z M210,260 Z M297,260 Z M43,261 L42,268 L45,267 L44,261 Z M292,260 L288,261 L289,265 L296,264 L295,260 Z M123,262 L122,265 L124,269 L126,268 L125,263 Z M280,262 L281,270 L283,277 L285,278 L281,262 Z M41,263 Z M257,263 L259,265 L259,263 Z M265,263 Z M297,263 L297,266 L299,266 L299,263 Z M247,264 Z M250,264 L251,266 Z M267,264 Z M273,264 Z M286,264 Z M50,265 L47,269 L52,268 L51,265 Z M77,265 L77,268 L79,267 Z M162,265 L162,267 L167,268 L167,266 Z M248,265 Z M268,265 Z M276,265 L274,268 L273,274 L277,274 L277,265 Z M290,265 L291,267 L293,266 Z M37,266 L38,268 Z M46,266 L47,268 Z M116,266 Z M159,266 Z M168,266 Z M169,267 L168,270 L171,271 L171,267 Z M268,267 L267,270 L272,272 L270,268 Z M296,267 L293,268 L293,270 L296,270 L297,272 L299,268 Z M338,267 Z M41,268 L42,271 L44,272 L44,269 Z M95,268 Z M142,268 Z M167,268 Z M337,268 Z M76,269 L75,271 L77,271 Z M125,269 L126,272 L129,271 Z M235,269 L235,271 L231,272 L233,274 L239,275 L235,276 L231,275 L231,277 L229,278 L236,278 L237,280 L240,278 L240,276 L245,278 L245,270 L239,269 Z M421,269 Z M143,270 L142,273 L144,275 L145,272 Z M248,270 L248,275 L252,273 L251,270 Z M261,270 L260,273 L262,273 L262,271 L264,270 Z M443,271 Z M583,270 L580,271 L581,275 L586,271 Z M76,272 L77,274 Z M116,272 Z M119,272 Z M168,272 Z M174,272 L168,274 L166,273 L166,276 L172,275 L171,279 L175,282 L172,282 L172,285 L168,284 L169,289 L173,289 L175,293 L176,295 L174,295 L176,299 L179,303 L183,302 L183,300 L180,300 L184,294 L184,292 L182,290 L183,286 L181,285 L179,283 L177,284 L178,278 L175,275 L177,274 Z M308,272 L303,276 L306,278 L308,277 L309,272 Z M422,272 L423,274 Z M95,273 L96,276 L96,273 Z M230,273 Z M362,273 Z M117,273 L114,275 L119,276 L119,278 L121,277 Z M264,274 L266,283 L267,280 L270,280 L270,282 L274,284 L273,278 L268,278 L267,275 Z M39,275 L39,279 L41,280 L40,275 Z M91,275 Z M105,275 L105,277 L107,277 L107,275 Z M124,275 L125,284 L126,284 L126,276 Z M129,275 Z M251,275 L252,278 Z M269,275 L269,277 L271,277 L271,275 Z M278,274 L275,275 L276,278 L280,277 L279,274 Z M14,276 Z M44,276 Z M46,276 L47,278 L48,276 Z M131,276 Z M249,276 Z M256,276 Z M420,275 L416,277 L419,278 L421,277 Z M43,277 Z M130,277 Z M139,276 L137,278 L140,278 Z M101,278 L101,284 L99,285 L99,291 L97,284 L95,284 L94,288 L92,289 L92,296 L90,298 L92,303 L95,304 L97,303 L96,299 L95,297 L98,297 L99,295 L106,294 L107,295 L107,300 L109,300 L113,291 L115,285 L118,287 L121,284 L120,280 L114,278 L113,280 L109,280 L108,283 L104,279 L103,280 Z M132,278 Z M161,278 L161,280 L163,280 L163,278 Z M278,278 L279,282 Z M229,279 Z M232,279 Z M238,279 L239,289 L244,290 L248,288 L247,282 L243,281 L239,279 Z M253,279 L254,281 Z M155,280 Z M256,280 Z M281,280 L280,285 L281,287 L285,287 L285,282 Z M304,280 Z M438,280 Z M133,281 Z M168,281 L168,283 L170,282 Z M417,281 L416,285 L421,284 L422,281 Z M127,282 L128,284 Z M413,282 L412,284 L414,284 Z M439,282 Z M134,283 Z M229,283 L229,285 L232,285 L234,289 L238,291 L237,286 L234,283 Z M288,283 L289,285 L294,285 L292,283 Z M422,283 Z M255,284 L257,288 L258,286 L257,284 Z M131,285 Z M251,285 Z M137,286 Z M567,286 Z M571,286 L572,288 Z M114,287 L115,290 Z M261,287 Z M269,287 Z M131,288 L132,290 Z M266,288 L264,292 L267,295 L267,291 L269,291 L269,288 Z M283,288 L283,297 L282,296 L278,296 L276,301 L277,305 L282,302 L283,300 L285,303 L287,301 L285,290 Z M466,288 Z M69,289 L70,291 Z M280,289 L282,293 L282,289 Z M305,289 Z M580,289 Z M37,290 L36,292 L39,292 L39,290 Z M297,289 L290,290 L290,294 L297,295 L303,293 L302,291 Z M30,291 Z M160,291 Z M235,291 L234,296 L237,293 L237,291 Z M466,291 L465,293 L467,293 Z M29,292 Z M39,292 Z M128,292 Z M228,292 L229,295 L229,292 Z M546,292 L545,299 L549,300 L548,293 Z M30,293 Z M45,293 Z M159,293 L158,296 L160,297 L161,293 Z M253,293 Z M303,293 L303,297 L301,297 L300,300 L293,301 L289,300 L289,307 L293,319 L298,320 L300,320 L302,330 L305,330 L305,323 L307,323 L306,321 L307,320 L309,330 L313,350 L313,358 L312,364 L316,364 L321,394 L321,399 L317,400 L312,402 L313,407 L315,407 L315,404 L320,403 L320,401 L322,402 L323,408 L321,408 L321,410 L324,410 L325,421 L332,477 L334,476 L327,416 L320,370 L322,370 L322,362 L317,354 L314,341 L317,341 L317,353 L319,354 L320,352 L320,345 L319,340 L317,335 L315,337 L316,340 L314,340 L312,328 L311,323 L311,311 L308,311 L307,301 L304,293 Z M129,294 Z M138,294 L132,299 L130,302 L129,299 L125,298 L127,305 L120,313 L109,323 L95,334 L94,336 L99,334 L113,322 L125,312 L125,310 L129,308 L130,305 L135,305 L138,298 L140,295 Z M256,294 Z M80,295 L80,298 L81,302 L83,302 L83,307 L81,308 L84,309 L84,306 L86,306 L89,301 L87,296 Z M230,295 Z M450,295 Z M102,296 Z M122,296 L123,298 Z M157,296 Z M218,296 L220,298 L220,296 Z M258,296 Z M350,296 Z M146,297 L149,301 L151,300 L148,297 Z M270,297 L270,299 L272,299 L272,297 Z M453,297 Z M467,297 Z M579,297 L580,299 Z M69,298 Z M88,298 Z M160,298 Z M446,297 L438,298 L437,300 L442,303 L444,304 L450,302 L448,297 Z M450,298 Z M453,299 Z M510,299 L511,301 L512,299 Z M566,299 L566,304 L570,300 Z M24,300 L24,302 L27,302 L27,300 Z M70,300 Z M101,300 Z M171,300 L172,302 Z M273,300 L267,304 L269,305 L270,307 L273,305 L273,303 L275,303 L274,300 Z M250,301 L248,305 L252,301 Z M545,301 Z M578,301 L578,303 L575,302 L574,307 L572,308 L574,308 L573,312 L571,313 L570,316 L568,317 L567,313 L565,313 L563,315 L561,315 L563,322 L569,324 L573,322 L577,318 L579,317 L578,313 L583,313 L579,310 L581,309 L581,311 L585,309 L584,306 L585,301 Z M90,302 L91,304 Z M219,302 Z M263,302 L264,304 Z M136,303 Z M194,303 L193,305 L195,305 Z M70,304 Z M220,304 L219,307 L222,307 L222,304 Z M265,304 Z M564,304 Z M41,305 Z M45,305 Z M192,305 Z M247,305 L248,307 Z M277,305 L278,309 L280,308 L279,305 Z M284,305 L286,307 L286,305 Z M462,305 Z M188,307 Z M216,307 Z M509,307 L508,309 L510,314 L512,311 L511,307 Z M193,308 Z M250,308 L251,311 Z M268,308 L265,312 L266,322 L270,324 L272,320 L273,318 L276,317 L276,314 L273,314 L272,310 L271,312 L270,308 Z M211,309 L211,314 L213,314 L213,309 Z M214,309 L215,311 Z M217,309 L218,311 Z M271,309 Z M276,309 Z M464,309 Z M283,310 Z M35,311 Z M239,311 Z M274,311 Z M30,312 Z M201,312 L200,317 L203,317 L202,312 Z M320,312 L321,315 L321,312 Z M131,313 L132,316 L132,313 Z M279,313 L277,315 L277,318 L281,318 L281,313 Z M411,313 Z M128,314 Z M224,314 L224,317 Z M418,314 Z M219,315 Z M239,315 L240,317 L241,315 Z M322,315 L324,321 L327,320 Z M165,316 L165,318 L169,319 L168,316 Z M229,316 L229,318 L232,317 Z M243,316 L243,321 L245,321 L244,316 Z M510,315 L508,317 L511,318 Z M240,317 Z M192,318 L191,331 L192,336 L194,335 L194,333 L197,332 L194,319 Z M169,319 L172,322 L171,319 Z M201,319 L202,321 L203,319 Z M291,319 L292,321 Z M460,319 Z M214,319 L211,320 L211,322 L216,321 Z M222,320 L224,322 L225,320 Z M294,320 Z M296,320 L297,322 Z M280,321 Z M11,322 L9,328 L13,326 L14,324 L12,324 Z M277,322 L278,324 Z M174,323 Z M274,323 L275,325 Z M369,323 Z M454,323 Z M478,323 Z M276,324 L275,333 L275,335 L279,334 L278,325 Z M307,324 L308,326 Z M452,324 Z M67,325 Z M251,325 Z M270,325 L268,329 L269,332 L271,328 Z M475,325 L476,327 Z M541,325 L541,329 L539,329 L540,333 L544,334 L542,328 L547,329 L545,325 Z M236,326 Z M335,326 L335,329 L339,326 Z M553,326 L553,329 Z M69,327 Z M177,327 Z M213,327 Z M265,327 L266,332 L267,329 Z M70,328 Z M178,328 Z M314,328 L315,332 L315,328 Z M568,329 L568,331 L571,331 L571,329 Z M236,328 L234,331 L236,335 L240,335 L240,337 L238,337 L238,340 L243,338 L245,331 L244,330 L239,330 L238,331 Z M546,330 Z M581,330 L581,332 L583,331 Z M179,332 Z M247,332 L250,334 L250,332 Z M460,332 Z M583,332 Z M207,333 L209,335 L209,333 Z M245,333 Z M269,333 Z M414,333 L415,335 L417,333 Z M268,334 L269,337 Z M315,334 Z M246,335 Z M264,335 Z M538,335 L539,339 L541,339 L539,344 L543,344 L544,339 L542,339 L542,337 L540,337 L540,335 Z M92,336 L77,348 L73,352 L78,350 L92,339 L94,336 Z M176,336 L175,338 L176,343 L178,342 L178,337 Z M182,336 L184,340 L190,345 L188,341 L184,336 Z M197,336 Z M255,336 L255,338 L257,337 Z M282,336 Z M588,336 Z M196,337 Z M229,337 Z M269,337 L270,339 L272,338 Z M272,337 L274,341 L276,340 L276,338 Z M281,337 L282,341 Z M474,337 L474,339 L476,339 L476,337 Z M230,338 L232,344 L236,345 L236,340 Z M263,338 L264,342 L265,338 Z M277,339 Z M194,341 L195,343 L198,342 Z M205,341 Z M245,341 Z M272,341 Z M276,341 L274,345 L278,345 Z M279,341 Z M586,341 L587,344 Z M155,342 Z M181,342 L182,350 L184,350 L185,353 L186,349 L185,344 Z M260,342 L261,344 L262,342 Z M263,342 L264,344 Z M168,343 L169,345 Z M206,343 L207,345 Z M244,343 Z M462,343 Z M191,344 Z M243,344 Z M458,344 Z M579,344 L580,347 L581,344 Z M167,345 Z M192,345 L192,348 L198,351 L198,348 Z M169,346 Z M207,346 Z M257,346 L259,348 L259,346 Z M263,346 L262,350 L264,353 L266,348 Z M276,346 L276,348 L274,348 L275,352 L279,350 L280,347 Z M254,347 L251,349 L252,353 L253,355 L251,356 L252,358 L255,357 L255,353 L258,351 L256,351 L256,347 Z M287,345 L281,347 L282,349 L289,350 L290,346 Z M585,348 Z M210,349 L210,353 L212,353 Z M269,349 L268,354 L268,357 L273,356 L270,349 Z M172,350 L174,354 L173,350 Z M186,350 L186,352 L188,351 Z M247,350 Z M493,350 L491,366 L490,374 L493,379 L501,385 L503,389 L504,395 L504,419 L501,450 L501,460 L502,460 L506,427 L507,413 L507,399 L505,388 L501,382 L493,376 L493,368 L495,360 L495,351 Z M162,351 Z M241,351 Z M360,351 L362,353 L362,351 Z M247,352 Z M289,352 L290,354 Z M539,352 Z M220,353 Z M264,353 Z M163,354 Z M227,354 L227,356 L229,356 L229,354 Z M250,354 Z M263,354 L263,359 L265,357 L264,354 Z M287,354 Z M183,355 Z M224,355 Z M230,355 Z M243,355 L244,358 Z M184,356 Z M206,356 Z M361,356 Z M122,357 Z M250,357 L250,359 L252,358 Z M123,358 L122,359 L122,365 L124,365 L125,359 Z M197,358 Z M244,358 Z M194,359 Z M272,359 L271,361 L274,364 L276,362 L275,359 Z M155,360 Z M173,360 L171,361 L171,363 L174,363 L175,360 Z M199,361 Z M270,361 L270,365 L272,364 Z M211,362 Z M75,362 L73,364 L74,372 L76,373 L76,362 Z M157,363 L158,366 Z M199,363 Z M201,363 Z M71,364 Z M193,364 Z M231,365 L228,367 L227,374 L234,372 L234,365 Z M314,365 L315,368 Z M114,366 Z M160,366 L160,368 L162,367 Z M172,366 L173,368 L174,366 Z M234,367 Z M115,368 Z M213,368 L214,373 L215,369 Z M223,368 L223,371 L225,371 L224,368 Z M226,368 Z M313,368 Z M161,369 Z M312,369 L310,372 L310,375 L315,376 L316,371 Z M120,370 Z M117,371 Z M173,371 L174,374 L176,373 L175,371 Z M208,371 Z M410,371 Z M74,373 L75,375 Z M209,373 Z M231,373 Z M208,374 L209,377 L211,377 L211,375 Z M214,374 Z M228,374 Z M75,375 L74,378 L76,379 Z M175,375 Z M216,375 L217,378 Z M315,377 L316,379 Z M74,379 L75,382 L78,381 Z M314,380 Z M71,381 Z M444,382 L441,385 L445,386 Z M186,386 L186,388 L188,388 L188,386 Z M445,386 Z M216,391 L217,394 Z M220,394 L221,397 Z M216,395 Z M217,396 L217,399 L219,398 Z M299,396 Z M199,397 L200,401 L202,401 L200,397 Z M298,397 Z M424,397 Z M160,398 L160,401 L162,401 L162,398 Z M296,398 Z M314,400 Z M421,400 Z M310,402 Z M297,404 L297,406 L302,406 L302,404 Z M293,406 Z M302,406 Z M317,406 L317,408 L319,407 Z M697,407 Z M685,407 L682,409 L685,409 L685,425 L682,426 L688,426 L686,425 L686,407 Z M192,410 Z M695,410 Z M694,411 L695,413 Z M332,413 Z M693,413 L692,415 L692,422 L694,424 L694,413 Z M695,414 Z M699,414 Z M700,415 Z M701,416 L701,424 L703,423 L703,417 Z M183,418 Z M185,419 L187,421 L187,419 Z M186,423 Z M187,425 Z M188,427 L189,429 Z M458,436 L459,449 L460,449 L460,436 Z M620,444 L621,447 L622,444 Z M633,444 L632,446 L633,463 L634,463 L635,454 L634,444 Z M617,445 Z M621,447 Z M620,448 L620,462 L616,463 L624,463 L622,461 L621,448 Z M266,451 Z M459,452 Z M459,454 L459,460 L460,460 L460,454 Z M318,467 L318,469 L328,469 L328,468 Z M495,467 L494,470 L494,486 L497,485 L496,467 Z M506,467 Z M509,467 Z M453,468 L454,487 L456,485 L455,468 Z M465,468 L466,486 L468,485 L468,471 L467,468 Z M504,468 Z M511,468 L512,474 L513,474 L513,469 Z M450,469 Z M462,469 Z M491,469 Z M317,470 Z M325,474 Z M511,475 Z M324,477 Z M323,478 L320,487 L323,484 L324,478 Z M508,479 Z M506,481 Z M513,483 Z M504,484 L504,485 L513,485 L513,484 Z M452,486 Z M465,486 Z M468,486 Z M492,486 Z " fill="#000000" transform="translate(0,0)"/>
<path d="M0,0 L3,0 L3,9 L0,9 Z " fill="#000000" transform="translate(276,226)"/>
<path d="M0,0 L2,3 L1,7 L-2,7 L-1,2 Z " fill="#000000" transform="translate(252,235)"/>
<path d="M0,0 L3,3 L1,8 L-1,8 L-2,11 L-4,11 L-5,6 Z " fill="#000000" transform="translate(191,264)"/>
<path d="M0,0 L2,0 L5,5 L0,4 L0,8 L-2,8 L-2,10 L-4,10 L-4,4 Z M-2,5 Z " fill="#000000" transform="translate(196,272)"/>
<path d="M0,0 L2,1 L2,9 L-1,6 Z " fill="#000000" transform="translate(304,304)"/>
</svg>
